<svg id="b96c28b1-bfae-4fba-a31a-c8236c1f88da" xmlns="http://www.w3.org/2000/svg" viewBox="0 0 160 121"><path d="M249.84,60H110.16A10,10,0,0,0,100,69.8V170.2a10,10,0,0,0,10.16,9.8H249.84A10,10,0,0,0,260,170.2V69.8A10,10,0,0,0,249.84,60Zm0,81-20-17.55a7.82,7.82,0,0,0-10.51.24l-20.26,19.54-40-46a7.81,7.81,0,0,0-11.62-.08L110.16,139V69.8H249.84Z" transform="translate(-100 -59.5)" style="fill:#888"/><path d="M206.67,95.51a14,14,0,1,1,14,13.47A13.72,13.72,0,0,1,206.67,95.51Z" transform="translate(-100 -59.5)" style="fill:#888"/></svg>