<svg id="b96c28b1-bfae-4fba-a31a-c8236c1f88da" xmlns="http://www.w3.org/2000/svg" viewBox="0 0 160 121"><path d="M249.84,60H110.16A10,10,0,0,0,100,69.8V170.2a10,10,0,0,0,10.16,9.8H249.84A10,10,0,0,0,260,170.2V69.8A10,10,0,0,0,249.84,60Zm0,81-20-17.55a7.82,7.82,0,0,0-10.51.24l-20.26,19.54-40-46a7.81,7.81,0,0,0-11.62-.08L110.16,139V69.8H249.84Z" transform="translate(-100 -59.5)" style="fill:#888"/><path d="M206.67,95.51a14,14,0,1,1,14,13.47A13.72,13.72,0,0,1,206.67,95.51Z" transform="translate(-100 -59.5)" style="fill:#888"/><path d="M170,60l2.3,3,2.6,1.19,0,2.79,2.87,2.87h3.89L180,66.93l1.63-2,7.67-1.65L190.78,60Z" transform="translate(-100 -59.5)" style="fill:#fff"/><path d="M179.49,135l-2.87-2.86,2.2-2.54-1.35-3.7-2.58-3.71-7.83-15.73,19.4,22.35c-1.57-.69-3.08,1.29-3.08,1.29l-1.63,2,1.63,2.86-.56,3.54,2.5.8-2.61,9.08,2.61,5.22-2.84,3,5.9,11.24-5.88,7.61,3.27,4.59H180l-2.63-4.7,2-4.89,3.09-3.86-5.88-14.19,3.38-8-1.95-6.36Z" transform="translate(-100 -59.5)" style="fill:#fff"/></svg>