<svg xmlns="http://www.w3.org/2000/svg" viewBox="0 0 805.9 989.2"><defs/><defs><clipPath id="a" transform="translate(91.6)"><path fill="none" d="M0 0h640v960H0z"/></clipPath></defs><g clip-path="url(#a)"><path fill="#85c8b2" d="M91.6 0h640v960h-640z"/><path fill="#5cb496" d="M78.3 392.5c43.2-2.2 86.9-.7 129.6 2.4 119 8.5 239.7 27.2 356.3 2.4a588.7 588.7 0 00180.8-74v-69c-84.2 44.3-167 91.5-260.3 89.9-107.4-1.8-201-68.4-302-106H78.2z"/><path fill="#b2dcce" d="M745 708.5a562 562 0 00-359.8-73.7A561.9 561.9 0 0078.3 782.1v122.8h44.1c18.5-12.7 34.5-30.4 50-47 70.2-75 158.7-145.4 261.5-146.1 81-.6 155.4 42.5 221.2 89.6 30 21.5 59.4 44.2 89.9 65.1z"/><path fill="#b2dcce" d="M469.8 583.5c97.8 8.9 184.6 60.6 275.2 100V399.2a793.4 793.4 0 01-126.1 42c-108.4 26-221 26.4-331.6 40.4-71.4 9-144 24.6-209 54.5v173.2C203 646 331.3 570.9 469.8 583.5z"/><path fill="#5cb496" d="M745 496c-110.1 10.3-222.4 2.2-333.4 2.2-113 0-230.5 10.2-333.3 53.7v58.9C133 588.4 186 562.1 242.1 544c136.6-43.8 284.6-36 425.7-10.3 25.5 4.7 51.4 10 77.2 9.8z"/><path fill="#b2dcce" d="M745 260.3c-64 43.5-142 64-219.4 71.4-82.4 7.9-165.3 2.2-248 .8-66.8-1-134.3.8-199.3 14.6v37c17.5-4.5 35-9.9 52.2-14.5 104.1-27.4 213.5-22.1 321.1-25.8 101.5-3.4 207-16.5 293.4-68.7z"/><path fill="#29956b" d="M391.8 922c-2.2-12.3 1.6-24.5-.5-36.8-2.6-15.5-9.2-29.6-15.3-43.9-2.1-1.8-4.3-7.3-8-3.6.3-2-.4-4.4-1-6.3-2.4-.1-9.2 3.6-11 2.2-3.5-2.8 1.8-7.6 4.1-8.7-5.3-.7-1.9-3.9-4-6.4-4-4.4-5.7-4.5-12.3-5.6-9.5-1.6-14.4-5.2-22.8-7.3-.8-10.7-4.8-3.7-9.6-4.8a23 23 0 01-13-9.5c3.8-3.7 10.4-2 15.2-4.7-1.5-1-2-2.9-4.8-3.4 9.8-5.9 15.3-7.9 5.2-15-4.3-3-10.2-5.6-12.3-11.1-7.3 3.6-8.4-7.3-12.8-8.2-6.2-1.2-8 5.5-14.4 2.5-5.7-2.6-8.1-12.6-1.7-16 5.2-2.7 10.2 1.4 15-4.6 2.7-3.5 3.1-8.6 2.5-12.9-1 .2-2.6-.4-3.7-.2a22 22 0 00-1-9.3 10.3 10.3 0 00-3.8 0c-1.7 5.4-12.1 5.8-10.6-.4.5-2 6.6-.7 6.6-4.6 0-2.8-4.8-3.9-6.5-4.7-4-2-13-5.5-17.4-5.9-6-.5-7.8 5.3-12.9 4.1 1-7.8-7.4-7.8-5.7-15 2.2-8.9-8.3-8.3-13.5-9.6 2.5-6.4-8-9.3-12.6-10.2 1.8-.9 3.1-3.2 4.7-4.2-3-4.8-10.1-4.3-15.3-4-11.2.5-25.4.5-36 3.2 4.5 6.5.5 19 2.4 26.4 3 11.8 11.2 20.9 17 32.6 5.9 11.5 14.6 20.5 18.7 33 4.7 14.8-6.3 30.4-3 45.6 4 18.6 7.7 29.3-.5 45.5-11 21.8-4.4 47.5 7.2 69.6 11 21 25.1 29.6 48.2 24.8 14.8-3.1 28.8-9.5 44.1-10.5 16.5-1.1 32.4 4.7 48.8 5 15.8.1 31.4-2 47.1-2.1l-.8-5zM658.1 669.5c-8.5 0-19.4-1.9-27.7.2-4.2 1.1-7.9 6-14.7 6.6 1 1.7.6 4.3 2.3 6.2-8.4 3.6-14.4 12.7-22.3 13.4-.5-1.8-1.3-3-1.8-4.9-7.1-.9-10 5-9.3 11.6-13 2.6-6-23.7-22.4-22.2-12.4 1.1 9.3 15.7 5 26.2-7.6 1.5-10.5-5-9.2-11.7-7 3.3-5.6 7.8-2.5 13.3.2.4 11.2 12.4 10.6 12 8.4 6.3 20.6 5.4 17.2 21l-14.3.4c.8 3.5-.4 7.4 1 10.6-5.8 2.2-13.7.9-19.6 2.4-.9-3.7-3.8-5-5.6-8a17.8 17.8 0 00-10.5 9.1c5 5.2 12 7 18.2 10.8-6.3 1.2-43.6 5.5-43.6 15 0 7.4 22.9 6.7 28.9 6.5-7.4 1.9-14.8.2-20.9 5.8 6.4 2.9 16 4 23.6 4.9-4.5 2-16.3 2.9-15.7 9.4.6 6.3 11.7 4.3 16 6.3-21 1.2-29 17.1-49 5.8-.4 1.3 0 2.5-.4 3.8-11-16.6-19.5.8-12.3 6.7-5.4 2.7-7.6 8.5-7.7 14.5-9.5 1.3-20.7 14.2-20.9 23.9-.2 14.5 14.9 15 25 21.4 13 8.1 16.6 24.8 28 33.8 10.9 8.6 29.7 5.2 42.7 5.1 52.6-.4 93.3-30.6 132.9-62.2 31-24.8 41.9-52.8 49.5-91.3 5.2-26.7 12-47.8-7.5-70-14.2-16.2-26.3-18.7-46.3-20.5-9.2-.9-17.5-1.9-23.3-9.4"/><path fill="#29956b" d="M488 815.4l.2-4.7c0-6.4.6-12.6-1-18.8-1.2-4-2.7-7.2-3-13.2-.7-8.4-9.5-23.4-3.3-30.2 7.9 5.7 5.2 27 8.6 35.7 2.2 5.7 5.4 7.2 6.5 14 .8 5.4-.1 11.2-1 16.6-.1 1-1.5 4 .1 4.4 1.1.3 2.7-2.5 3-3.4.9-2.3 0-4.4 0-6.7 0-4.7 2-8.1.5-13a66.6 66.6 0 01-1.3-6.7c-.5-2.6-1.7-3.7-2.7-6-2.2-4.8 1.1-11.4.6-16.6-.1-1.5-1.3-5 1.2-5.3 2.1-.2 2.3 2.5 2.3 4a73.5 73.5 0 01-1.2 10.8c-.3 1.5-1 2.8-.7 4.4.3 2 1.8 2.5 2.8 3.7 2.5 3 2 7.7 2.8 11.4.5 2.5-1 11.6 1.8 12.6s4.4-3.5 4.4-5.4c0-2.6-1.7-4.8-2.3-7.3a29.9 29.9 0 01-.7-9.4c.2-3.7-1-6-1.8-9.5-.4-1.8-1-4.8.7-6s2.7-.4 3.4 1.3c.8 1.9-.5 3.8-.6 5.6s.6 2.7 1 4.3c.7 2.3-.9 12.3 2.5 12.2 4.2 0 1-12 .8-14.2-.2-3.3-1.2-6.5-1.4-9.8 0-3.1.6-6 .9-9.1.2-2.8-.8-9.3 3.2-10 2.5 4.8-2 8.8-2 13.5 0 4.1 1.6 8.2 1.7 12.4 0 2.4 0 4.2 1.2 6.3s2.3 3 2.3 5.9c0 4.4-.2 8.3.3 12.6.1 1.3 0 5.9 1.3 6.7 1.9 1.3 3.4-1.8 3.8-3.1 1-2.7.4-4.8-.3-7.2s-.6-4.4-.5-7.1a54 54 0 00-.6-9.8c-.5-3.7-.2-7-.5-10.7 0-1-2-10 2-7.7 1.8 1 .7 8.3.6 10.1 0 3.8 1.5 7.2 2.2 11 .6 3.3.3 6.5.9 9.6a17.7 17.7 0 01-.2 7.4c-.5 2.4-1.5 11.5 3.2 8.1 3.2-2.2 3.3-5.5 3.1-8.8a103.3 103.3 0 01.3-12.6c.2-2.3-.5-4.3-.8-6.6-.3-2.7.5-3.7 1.1-6.3s.2-4.7-.3-7c-.2-1.3-1-5 .8-5.9 2.4-1 2.1 4.8 2.2 6.5.2 3.4 1.5 7.7.5 11-.5 1.6-1.4 2-1.3 3.8s1.2 3 1.7 4.9c.6 2.3-.6 4.1-.6 6.4a21.2 21.2 0 00.8 4.8c.8 4.6-3 10.2-5.8 14.1-1.5 2.1-2.2 4.5-4 6.3-4.2 4-10.5 6.1-16 6.5-6 .4-16 1.3-21.2-2.2-2.3-1.6-2.4-5.3-2.2-8.6z"/><path fill="#185a40" d="M51.3 673.4c11.8-3 27.6-3 40-3.6 5.8-.2 13.6-.8 17 4.5-1.7 1.1-3.2 3.7-5.2 4.7 5 1 16.8 4.1 14 11.3 5.8 1.4 17.4.8 15 10.6-2 8.1 7.3 8 6.3 16.8 5.7 1.3 7.7-5.1 14.3-4.6 4.9.4 14.9 4.3 19.4 6.5 1.9 1 7.1 2.2 7.2 5.3 0 4.3-6.8 3-7.3 5.1-1.7 7 10 6.5 11.8.4a11 11 0 014.1 0c1.3 3.1 1.4 7 1.2 10.4 1.2-.2 3 .4 4.2.3.6 4.7.1 10.3-3 14.3-5.2 6.7-10.8 2.1-16.5 5-7.2 3.8-4.5 15 1.8 17.9 7.1 3.3 9.2-4.2 16-2.8 4.9 1 6.1 13 14.2 9 2.4 6.2 9 9 13.7 12.4 11.2 8 5.2 10.2-5.7 16.7 3 .6 3.6 2.8 5.3 3.8-5.3 3-12.7 1.1-17 5.2 3 5 9.3 9.3 14.6 10.6s9.7-6.5 10.6 5.4c9.4 2.3 14.8 6.4 25.4 8.1 7.3 1.2 9.3 1.4 13.6 6.2 2.4 2.8-1.4 6.3 4.5 7.1-2.5 1.2-8.4 6.6-4.5 9.7 2 1.5 9.5-2.6 12.2-2.4.6 2 1.4 4.7 1 7 5.2-5.1 7.7 5.7 10.7 4.5 7.9-3.1.3-7-1.9-11s-4.5-8-1.7-11c5.5-5.9 7.2.8 9.6 3.5 1.6 1.8 1.8 10.2 7.4 6.8s-1.6-8.3-2.8-11.5c-1.8-4.8-1-9-1.7-14s-2.4-8.1-3.6-13c-1.4-5.7.4-11.8 0-17.4-.2-4.2-3.2-7.7-3.6-11.7-.1-1.7.2-2.3-1-3.8-1-1.3-2.5-2-3-3.7-.5-2.3 1.6-3.7 1.2-5.9 3-.2 2.5 6.3 3 7.8.9 3.6 4.4 4.3 3.6 8.3-.2 1-.8 2.4-.3 3.5s2 2 2.7 3.3a13.7 13.7 0 011 7c-.3 3.1-1.5 6 .2 9 .8 1.6 1.5 2.2 1.6 4.2 0 1.4-.9 3.8.3 5 1.2 1.2 2.3-.5 3 1.7.7 2 0 4.4.7 6.4.9 2.4.8 12 5.8 7.4 3.3-3-1.6-7.1-1.8-10.4-.2-3.2 0-4.2-2.3-6.3s-2.2-3.3-2.6-6.2c-.7-5-.6-10.1-1.1-15.3-.3-3-2.4-4-3.4-6.6-.3-1 0-2-.1-3-.3-1.7-.2-1-1.2-2.2-.7-1-1.4-1.3-1.5-2.7-.1-.9.6-1.8.4-2.7a21 21 0 00-2.4-5.2c-1.2-1.8-3-1.9-3-4.3 0-1.8 1-3.8 2.7-3.2 1.1.5 2 3 2.8 4a8.2 8.2 0 011.9 3.3c.3 1.3-.4 3 0 4.3.6 2 2.8 2.3 3.5 4.4.8 2.6.1 4.2 1.6 6.3a11.3 11.3 0 012 5.5c.4 3.2.5 3.6 2.7 5.8 3.4 3.5-1.2 7 .4 10.7.6 1.5 1.8 1.8 2.1 3.6.4 2.3-1 4.8.5 6.5.5.5 1.6.3 2.2 1s.3 1.7.6 2.5a44.6 44.6 0 003 4.8c.8 1 1.9 1.7 2.3 3 .8 1.8-.4 4.2.5 6 .8 1.5 3.6 3.9 5 1.9.9-1.4.3-3.7-.3-5-.4-.6-1.1-.7-1.4-1.4-.4-1.3.6-3.2 0-4.4-1-2.3-2.6-2.2-3.1-4.8s-.2-6.8-1.4-9.2c-1.4-2.9-4.4-2.2-3-6.1 1.7-4.3 4-7.8 2-12.5-2-5-6-9.8-2-14.8 2.7 1 2.8 2.7 2.5 5.4-.3 3.5 1.6 3.7 3 6.6 1 2 1.1 6 1 8.2-.1 2-2.6 4.7-1.3 6.7 1.2 1.8 3.4 1.2 4 4 .2 1.3-.3 3-.3 4.3 0 2 .7 2.7 1.6 4.4a44.6 44.6 0 013.4 6.2 41 41 0 002.4 6c-.1 1.6 1 2.3 2.4 1.2 1.4-1 .4-2.6.2-3.9-.3-2 .2-3.5.4-5.5.4-3.1-1.5-4.9-2.4-7.7-.7-2.2-.3-4.3-.2-6.5.1-3.6-.6-5.8.9-9.2 2-4.7 1-8.4 1.1-13.3 0-3.2 1.9-5.6 2.9-8.6s0-4.5-1.3-7.2a10 10 0 01-1.4-5.6c.1-.9 1.5-5.1 2.7-5 1.6 0 .8 4 .7 5s-1.2 3-1 4c.2.4 1.5 1.1 1.9 1.6 2.4 3.3 2.3 5 .8 8.8-1.2 2.8-2.7 6.5-1.8 9.7 1 3.7 1.8 4.8.5 8.7a8.7 8.7 0 00-.3 4.6 17.4 17.4 0 010 7.6 5.4 5.4 0 00.5 4.2c.9 1.4 2.4 1.6 3 3.3.6 2.1.3 6.3.3 8.5 0 1-.6 3.3 0 4 2.3 2.2 2.9-2.3 3-3.4 0-2.6-.8-5.1-1-7.7-.1-3 1-5.9.7-8.8-.3-2.5-1.9-4.3-2-7-.1-3.4 1.3-7 2.5-10.1.4-1.2.7-3.4 2.1-3.4 1.9 3-1.5 6.8-1.2 10.2.4 3.9 1.6 7.3 1.6 11.1s3 7.8 2.4 11.7c-.3 1.9-1.7 3.8-1 5.8.2.7 1.1 1 1.3 1.6.2.5-.2 1.8 0 2.2 1.4 1.7 2.9-1.1 3.4-2.4 1.2-3 .3-4.6-.2-7.3-.5-2.4 1-4 1.7-6.2.9-2.9.6-6.3.5-9.3-.1-2.7-.8-5.3.6-7.7 1.9-3.2 4.3-5.1 5-9 .6-2.8.8-6.1-1-8.6-1.2-2-2.4-2.4-2.6-5 0-1.6-.2-5 1.6-5.8s1.8.5 1.8 1.8-.9 3-.3 4.4 2.3 2.6 3.2 4a15.5 15.5 0 011.3 13.4c-1.6 4-4 6.6-4.2 11a17 17 0 001 5.6c.6 2.5 0 3.7-.8 6-.3 1-1 2.7-.9 3.8.2 1.3.9 1.2 1.3 2.3.9 2.3 0 3.6-.6 6-.7 2.6.9 5.5-.9 7.6-.9 1.1-2 1.3-2.8 2.7s-.2 1.8-.5 3c-.4 1.6-3.2 4.7-.9 5.4s3.3-2.8 5.4-1.8c1.5.7 1.1 3.5 2.8 4 1 .3 1.8-.5 2.7 0s1.9 2.3 2.9 3c.8-.3.8-1.6 1.5-2s1.5 0 2-.3c1.5-.9 1.7-2 2.4-3.4 1-2.2.7-1.8 2.6-1.5 1.7.2 1.5.8 3.2 0 .1.6.5 1 .5 1.5 1.2-1 3.6-3.6 4.9-.7-.7-2.5 3.1-4.2 4.6-2.4-1-3.2 3.1-1.2 4 .3-.2-1.3.1-3.3 1.5-3.6-.6-2.1-1.3-4.7 1.8-4.5-3-3.8 3.8-8.3 3-3.3.5-.9.9-1 1.6-.4.5-.5 1-.4 1.5-.6a20.4 20.4 0 01.5 2.8c1.8-2.3 3.4-2.7 5.5-.6l.5-.5a2.2 2.2 0 011 1.9c0-2.6 3-1.8 4-.3 1.6-1.8 4.2-4.6 5-.5a1.7 1.7 0 011.7 2c1.6 0 4.7-1.8 5.7-2.9 3.2-3 5.7-10 11.4-9 .2 2-.9 4-1.7 5.8 2-1.6 4.7-5.2 7.5-5.2a10.7 10.7 0 01-1.3 4c1.5-.8 3.7-3 5.5-2.9 2.2.2 1.5 1.7 1.6 3.6 4.8-1.5 9.6-9 15.3-8 7 1.2-7.1 17.1-8.7 19.1 1.6-.7 4.4-1.5 4.5 1.1 1.6-1.9 4.7-3.1 6.5-.7.5-.4 1.7-1.4 2.4-1.3 2.2.3 1 3.4 2 4.7s.9.2 2.6.4c1 .2 1.4 0 1.6 1.1 2.3-1.8 2.5 2.2 3.8 3.1.6.4 1.7 0 2.5.5a3.6 3.6 0 011.5 2.7c5.4-3-.6-8-1.3-11.2-.7-3 1.6-5.9 1.3-9s-2.5-5.4-3.4-8.2c-.7-2.3-1.4-7.7 1-9.6 1.5-1.4 2.2-.6 3 1 1.2 3-.2 6 2 9 2.7 3.7 3.4 5.7 1.8 10a12.2 12.2 0 00-.8 5.4c.2 2.5 1.4 2.8 2.7 4.6s.6 12.3 5.4 8.2c1.7-1.4 1.6-5.6.8-7.3s-2.9-2.6-3.8-4.3c-2.3-4 .8-7 1.2-11a8.5 8.5 0 00-.7-5.2c-.7-1.5-1.9-2.3-2.1-4s.3-4 2.2-4.5c2.5-.6 2.5 1.1 2.7 3 .4 3.9-.4 8 .1 11.7.6 4 2.6 6.6 5 9.8 1.9 2.6 1.5 5.4 1.5 8.6 0 1.8-.2 3.2.9 4.7 1.8 2.4 4 .8 4.6-1.8.7-3-2.5-6.3-3-9.3-.3-2 1-3.8.7-5.5s-2.7-2.8-3.1-4.7a4.2 4.2 0 012.4-4.5c2.3-.8 2.5 1 3 3 .5 2.3-.2 4.4 0 6.7s2 2.9 2.5 5c.5 1.9 0 3.7.5 5.5.7 2.3.9 3 0 5.4-.6 1.9-1.5 3.7 0 5.5 1.3 1.6 3 1.6 4.2 0 2-2.8-.9-6.5-.5-9.5.3-1.8 1-3.8 1.2-5.7.1-1.4-.2-4.6.4-5.8 1.6-3.6 3.3 1 3.1 3-.3 4-2.7 5-.4 8.8 2 3.2 0 6.6 2.4 9.9s3.4 4.2 2.4 8c-.4 1.7-.6 2.8.2 4s3 2 1 4.2a25.6 25.6 0 013.3-1.7c1-.3 1.6.5 2.6-.2 1.2-1 .4-3.7 1-5.1 1.4.6 1.8-.5 3-1 1.5-.5 2.7.2 3.8-.2 5.8-1.7 3.2-2 5-5.7.4-.7-2.2-3.6-1.5-5.4 1.1-2.6 3.7-2.4 5-4.2 3.8-5.3 7.2-8.8.3-15.1 2.4-.8 6.4-3.8 8.8-3.9 2.3 0 5.1 4.6 7.1 3.8 7-2.8.4-11.3-1-14.3-9-18.8-3.8-40.6-7.8-60.5-.7-3.4-3.6-5.2-2.6-9.6 10.1 1.2 9.4 27.2 10.5 34.7 1 6.5 4.2 12.9 5.4 19.5 1.5 9.4 4.1 9.4 9.5 16.7 3.1-17.3-2.8-26.4-7.4-40-2.6-7.7-.8-13.2-2.3-20.9-1-5-8.1-10.5-3.4-14.7 7 4.3 3.4 11.5 5.3 17.9 1.8 5.8 6.5 11.3 8.7 16.8 2 4.8 2.1 11.3 3.8 17 1.9 6.6 6.7 11 6.3 19.3 13.4-1.6 2.6-20.6 1.7-26.6-.8-5-.5-9-1.8-13.9-1-3.4-4.3-14 3.4-8 2.2 1.7 4 10.7 4.4 13.1 1.2 7 1.1 10.2 3.8 16 7.2 15.8 8 1.7 9-7.8 3.8-1.4 8-1.3 10.5 1.6 7.1-4-2.1-13.8 6.1-13.5a13.5 13.5 0 01.3-3.3c1.3 1.2 4.5 2.5 6 4.5 8.4-6.5-.3-9-3.6-13.5 3.4-7.7 12-3.7 17.2-11 5-6.9 3-9.4 11.5-12.3 12.8-4.4 21 2.2 31 9.3 4.8 3.4 19.4 16.2 26.2 14.8 8.1-1.5 4.8-12.8 13.8 1 11 17 6.5 34.6 1 52.5-8.3 27.3-11.4 56-20.8 83-5.4 15.3-12.6 38.5-31 41.5-11 1.8-22.6.9-33.9 2.8-19 3.3-33.7-.8-52.6-2.6-17.6-1.7-34 3.6-51.4 5.2-19.7 1.7-39.8.2-59.4 3.8-36.6 6.6-70.3 5-107.3 5-19 0-36.7-3.9-55.5-5.3-21.8-1.7-43 2.1-64.8 1.9-18.3-.2-35.9-6.8-54.3-5.5-17 1-32.6 8.2-49 11.7-25.7 5.3-41.4-4.2-53.6-27.6a81 81 0 01.2-75.7c9-18 17.2-32.7 12.7-53.4-3.6-17-11.7-33.3-17-49.7-4.6-14-5.1-31.3-11.5-44.1-6.6-13-25-15.8-28.3-28.9-2.1-8.2 2.4-22-2.7-29.3z"/><path fill="#185a40" d="M236.4 613.2a22 22 0 012.7-.9c-.7-1.4-2.4-1.6-3-2.8-.5-.9 0-2-.2-3-.3-2-.5-3.4-2.8-1.5-.3-1.6-2-.9-3.3-.5 1.4-.7 1.7-4-.2-4-1.2 0-1.5 1.6-2.2 2a17.3 17.3 0 01-2.4.4c-.3-2.1-1.3-.3-2.4-.5s-1.8-1.4-3.5-1a2.6 2.6 0 00-4.6 1.4c-.7-3-2.8-1-4.2.1-.8-2.6-3-.6-4.3-1.9-1.1-1.1.6-3.6-2.5-2.4V596c-1.8-.2-5.5.4-6.7-.3a3.9 3.9 0 003.6-.3c0-2-2-2.5-3-3.7 3.4-.5-1-3.1-2.6-4l.1-.1c1.2-2.5-3.4-4.9-5-6 3.5-.6 2.3-3.3-.3-4.4.6-1.4-2.2-4.2-3.6-4.4 2 .2 1.8-5.7-.5-5.7-.3-1.3 0-1-1.3-1.3.8-3.8-4-3-6-3.2.4-2.3-1.4-3.2-3.4-3 .6-3.4-4-1.7-3.6-6.2 1.4.7 8.2 3.6 7.8-.2-2.4-1-5.4-1.4-7.6-2.7 1.4-.5 9.5-.5 6.3-2.8-1.2-.9-4.7.8-5.7-.2-2-2.3 5.3-1.6 5-3.8a2.6 2.6 0 002.4-1.6c1 .5 4.5 2.3 5.3 2a5.2 5.2 0 01-.3-.8c1.5.7 5.6 2 4.3-.9.3-.6 1.3-.3.7-1.3 1 1 6.3-5.1.8-5.7 0-.4-.2-1-.1-1.3-.5 0-1.1-.2-1.6 0-.2-1.4-1.6-1.9-3-1.7v-.7c-1.8 1.5-4-1.3-5.7.7a2.2 2.2 0 00-3.1.3c-1-1-1.8-1.1-2 .2-1.2-.2-2.3-.1-2.4 1.1-1-.2-1.3 0-1.9.6a1.8 1.8 0 00-3.2.2c-1.4-1-3.8-1.8-4.8.3-1.3-1.3-2.8-2.5-4.6-2.7 5.8 0 12.3.2 17-3.5-.6-1.5-3-1.2-4.4-1.5 2-.4 4-.3 5.9-.9-2.6-1.7-6.2-1.6-9-2.6 3.9-.3 8.4.4 12-.6-4.5-3.6-10.4-3.8-16.1-3.8 1.4-.5 4-1 5.3-1.8 3.7-2.5-1-2-2.7-2.2 1.5-.3 4.6-1.4 4.2-3.5-1.7-.4-2.5 1.2-4.1 1.1.8-.6 3.2-2 2.5-3.2-.8-1.6-3.2.2-4.4 1 1.4-1 3.6-4.3 1-4.6-1.4-.1-3.6 4.4-4.6 5.4-1.2-3.5-4.4 0-5.9 1-.5-1.7-2.1-1.4-3.5-1 2.3-1.4.4-3.4-1.8-2.8.6-1.5-.2-2.7-2-2.3.3-2.1-.3-3.6-2.7-3.1.5-2.1-.5-3.5-2.6-3 0-.7-.4-1.2-.4-1.8-1.1-.2-1.6-.1-1.8 1-1-2.7-4.2-1-3 1.5a3.5 3.5 0 00-2.5-.3 2.4 2.4 0 00-2.6-1.5c1.4-1.8.3-3.6-2-3.2.5-1.7 1.5-3.3 1.2-5l-.8.3c-1.2-1.7-.8-3.4-3.4-3.9 3-.8 4.5-1.3 1.5-3.8-4.4-3.8-11.6-4.6-17-6.8 3 1.1 12 3.2 13.3.5 1.1-2.4-5.4-5.6-6.8-6.4a14 14 0 004 .2c-.7-1.7-3-2.5-4.7-3.2 2.8-.4 5.3 2 8 .8-1.4-3.3-6.2-3.1-8-5.6-1.1-1.4-1.2-5-4-2.5a3.8 3.8 0 00-2.1-2.8c1.2-.2 2.1-1.8 2.4-3 1.5 0 4 0 3.7-2 1 1.1 5.2 2.7 6.7 2.5V454c1.2.2 2.2 1 3.5 1 .1-2.1-1.6-3.4-3.2-4-.5-.3-1.4.2-2 0s-.4-1.2-.8-1.4a13.3 13.3 0 00-2.4-1.6c-1.4-.7-3.5-1-4.6-2-2-2-1.6-2.8-5-2.9-.1-2.5-1.6-2.2-3-3.2-1.2-.8-2.4-2.8-4.3-1.8-.6-1.6-1.6-1.8-3.2-2.2h-.8c.2-2-1.6-2.8-3-1.7-.4-3.6-30.2-11-33-11.2l-6.2 420.5c0 16-.2 32 1.3 48 1.4 13.5 3.3 27.2 5.1 40.7 1.8 14.2 8.3 26 23 29.2 14 3 29.3 1 43-2.6 6-1.6 11.7-5.2 18-5.4 5.5-.1 10.7.5 16.2-.2 6.6-.7 18.8-.5 22.5-6.7.9-1.5.1-1.6 1.9-2.7 1.2-.7 3-.7 3.8-2.4 1.5-3.7-2.7-6.7-5-2.6-1 1.6-.3 2.5-2.1 3.6-1 .5-3 1.2-3.8 0-2-2.8 5-5 5.8-6.9.6-1.6-.6-6.8-2.3-7.7-.7-.4-4.1.1-4.3 1-.2 1 2.7 2.5 3 3.5 1 2.6-2.1 6.3-4.9 5.6 1-4-4.2-2.6-6-1.1-2.2 2-1.4 4.9-3.8 6.8-4.1 3.4-2.9-3.2-6.1-3.5-.3 0-2.5 1.5-2.9 1.7a9.7 9.7 0 01-3.7 1.2c-.6-3.2-3.9-2.5-5.4-4.3-.6-.8-.3-2-.9-2.7-.8-1.1-.6-.6-1.8-1.3-1.5-1-2.2.8-3-1.6a1.6 1.6 0 011.4-2.2c0-2.7 3.5-.6 5.2-1.5 1.3-.7 3.4-3 3.2-4.6 2.7-.2 7.8 1.4 10-.7 1.3-1.2 1.5-6 4.4-5.2.4 2.8 3.2 1.7 4.5 3.6a3.7 3.7 0 012.9-2c2 0 2 1.7 4 2.1 3.8 1 4.4-4.5 7.5-4.6-.6 3.3-.2 5.7 3.3 6.2 3.8.5 7.5-2 7.2-6-.1-1.2-.6-4.3-2.4-4-1.2.3-1.6 3.6-2.8 4.2-3.7 1.6-1.1-5.1-4.8-4.7-2 .2-4.1 5.5-6.1 1.7-.5-1-.6-3.5.2-4.4 1-1.1 2-.5 3.2-1 3.3-1.7 5.3-14.2-.4-12.7-.1 2.2 1.7 6.1 0 8-1.4 1.5-3.6.3-5.2 1.6-2.2 1.7-.1 3.9-1.2 6.2-1.1 2.7-6.5 3.8-6.9 0 1.2 0 3.1-.7 3.5-2s-1.2-2.1-1.1-3 1.5-1.6 1.7-2.8-1-1.8-1.1-3c-.1-2.8 4.5-3.6 3.7-6.4l-1.5-.2a3.3 3.3 0 00.5-3.4c-.2-.5-1.2.1-1.5-.4s-.2-2-.6-2.3c-2.7-2.2-3 2.7-2.6 4.9-1-1-3.7-1.3-4 .3 0-.3-2.5-2.1-3.2-3.3a15.1 15.1 0 01-1.6-4.7c-.3-1.2-1.2-7.8-3-5-3-1.3-2.2 1.8-2.8 3.6-1.2-1.6-2.4-.5-3.9 0-.4-2.8-2.3-1.8-3.8-3.2 1.7-.2 6-3 2.5-3 1.5-.6 2.3-3.2-.2-2.6 1.3-1.1 1.3-3.6-1-3.3.7-1 1-2.6-.5-2.7.6-1.2.6-2.7-1-2.7.3-1.8-1.7-3.6-2.5-1.6l-.6-1.8c-.7.5-1.3.2-2 .5.2-1.6-.4-2.2-1.3-3.2-.6-.6-2.3-1.1-2.6-1.4-1.3-1.8.5-4-.2-6.4-1.2.2-2.7-2-2.7-3.3s2-1.6 1-3c5-.3 10-.2 15-.8 1.7-.3 6.6-.3 8-1.7 1.7-1.7.3-2.3-1.9-2.8.5-2.1 3.9-1.6 5.6-1.7a5.5 5.5 0 00-3-2.3 96.8 96.8 0 0012-1c4.7-.5 19.7-5.4 7.5-7.6 3-.3 5.1-.5 5.7-3.2.4-1.6-.5-3.1.6-4.6 1.6-2.3 2.8-1.7 3.1-4.8.2-1.4-.3-3.8 1.6-3.8a7.5 7.5 0 002.7 4.5c.9-1.8-.9-4.3 1-5.6 1.2 2.6.2 6.4 1.7 8.6 2.3-1 .2-10.4 2.7-9.1.7-1 .6-2 .8-3.2 1-.4 2.6.6 3.2.2 1.5-.9 0-3.7 1.4-5.1 1.7-1.8 4.7-1.1 4.3-4.8 4-.3 4.4-2.1 6.2-5.4 1.9.3 2.2 2.3 4.3 1.8s2.1-2.8 2.7-4.4c3.8 3.1 8.8-2.6 8.5-6.3 0-1-1.5-.9-1.5-1.9s1.3-1.3 1.5-2a5 5 0 00-1.3-5c.9 0 4 .1 4.5-.8.9-1.4-1-2.2-1-3.2s1.5-.8 1.4-1.9-2-1-1.9-1.6c3.3-1.8 2.6-3.6 0-5.1 3.7-3.7-8.6-1.3-9.6-1.4-.2-1.4-1.6-1.8-3-1.6-.7-2.2-1.1-3.9-4-4 3.3.2 7.2-1.4 10.2-2.7-1.4-2-6-2.2-8.3-3a12.5 12.5 0 012.9-1.3c-1-1.5-4.9-1.8-6.7-1.7 2.5-3-10.7-3.2-11.8-3.4.8 0 5.6-1.5 6-2.3.5-1.4-1.8-2-3-2.6-2-2.7-2.9-3.6-6.5-3.8 0-1.5.5-4.4-1-5.4-1-.7-3.3.2-3.9 1-.9-.7-2.7-.5-4-.4.1-4.3-2.6-7.8-7.5-6.2-.5-.9-.4-2.6-1-3.2 3.5 1.6 13.1 1.9 10-4 1.5 0 3.4.3 4.7-.2 2.1-.9.7-.2.7-1.5s-.9-3.5-2.7-3.2l.5-1c-.3-.2-1.8-.4-1.9-.5a10.6 10.6 0 01-.8-1.4 5.9 5.9 0 00-4-1.1 2.4 2.4 0 00-2.7-2.1c1.1-.4 4.4-2.2 4.3-3.5-.1-3.2-4.5-.5-6-.3 6.5-3.4 2-8.4-1.5-3.7 1-1.6 2.7-3.2 1.3-5.1-2 .4-3.1 2.7-4 4.3-.9-.9-.1-2.1-1-3l-.8.2c0-1.7 0-4-2.4-3.5a4 4 0 00-2.5-3.4 2.4 2.4 0 002.3-2.8c.1-1 1.6-2.6 2.8-2s.7 1.4.8 2.4c.1 1.5-.7 7.8 3 4.9 2 1.4 4.2-1.1 3.7-3.2 1.8 4.3 7.3-2.4 3.8-3.7a2.8 2.8 0 00-1-4.5c1.3-1 2-3 .7-4.3 2.3 1.8 6 2.6 7.6-.3.4-.8-.5-1.7 0-2.5.2-.5 1.6-.6 1.9-1.2.7-1.6-.8-2.8-.9-4.4 0-1.2 1.6-2.5-.4-2.9.9-2.1-1.5-2.4-2.5-.9-1.4-1-2.7-.5-4.6-.5 1.9-.5 3.3-2 5.2-2.5 1.6-.6 3.4-.1 5-.7 2-.8 6.2-5.2 1.7-5.7.8-1.5 2.9-2.2 3.4-3.4h-1.5c0-1.6-.6-4 1-4.6-.7-1.3-2.5-1.8-3.5-3 2.9-3.7 3.5-3 2.7-7.6-.3-1.6.9-6-.5-6.7a3 3 0 00-1-3.6c2.5-1.2 1.2-3.2-.5-4.3a18.7 18.7 0 007.1.7 5.3 5.3 0 00-.5-2.4c2 .6 3.5 2.2 5.9 1.9a3.2 3.2 0 00-1.8-2.7c2.1.5 9 4.8 8.8.3 1.7 1.4 6.4 3 7.6.6 3 0 6.4.5 5.3-3.3a16.3 16.3 0 003-.6c-.8-.3-1-1-1.6-1.4zm-42-25.9zM801.7 855.5c-3-23.5-6.3-47.2-10.2-70.6-1.4-9.1-8-25.8-3.7-34.9l-2.4-287.3c-5.3-11.4-9.6-23.4-16-34.3a77 77 0 00-11-15.2c-2-2-5.3-3.9-6.9-6.2-1.3-2.1-1.3-5.2-2.4-7.5-1.5-2.9-5-4.9-6-8.5-1-3.7 3-13.9-4.7-14.3-2.6 0-2.8 1.8-2.4 3.8.2 1 2 1 2.4 2 .4 1.7-.2 2.3-.3 4-.2 3.2-1.2 5.4-.2 8.9s3.7 5.7 3 9.7c-5 1-4-5.9-5.5-8.4-1.8-3.1-4.3-3-5.2 1.4-1.4 6.4 4.3 10 7 14.6 2.6 4.3.8 3.2-2 4.6-1 .6-2 .3-3.5 1.2-1.2.7-1.6 2.6-3 3.6-4.7 3-12.7-.7-11.2 8 5.7 1.2 9.5 4.7 7.5 10.4-1.3 3.9-5.5 11-8.8 7.1-1.5-1.7.1-6-4-4.6-2.2.7-1.4 3.8-4.7 4.6-5.3 1.4-6.5-1.7-6.6 6-3-.4-5.8.8-5.2 4.3-3.4-.7-5.9 2-3.2 4.8-3.2.7-6-1.1-5.7-4.3.2-2.8 2.9-2.7 4-4.6 1.6-3 .4-12.4-1.7-14.7-5-5.5-5.5 2.4-5 5.7.3 2.3 1.8 4.5-.6 6.2-3.5 2.6-3.4-1-4.7-2.6s0-4.3-3.8-3.2c-2.3.7-2.7 3-2.4 5.3.5 3.4 3.2 5.6 4.3 9s2.6 7.4 6.1 9c3.8 1.6 8 1.3 10.9 5.6 1.6 2.5.1 8.2-.1 12.2-7.8.5 9.4 10 9.9 12 1.1 4.3-5.8 2.6-9 3.2-4 .7-19.5 5.4-18.6 10.3 5 1.3 10.4.3 15.3 2.3-4.3 1-7.9 2-11.2 4.8 1.7 2.4 5.5 1.7 6.6 4.8a393 393 0 00-28.3 7.5c-1.4.5-7.2 1.1-7.6 2.8-.6 3.2 5.6 3.7 7.6 4-2.5.4-6 0-7.4 2.9-1.6 3 .2 5.3 2.8 6.4a.8.8 0 01-1 .4c-3.2-.8-8 0-10.4-1.4-2-1.2-1.7-5.1-3.1-6.6-3.3-3.4-9-2.1-11-7-2.2-5.3 3-8.3 2.8-12.8-.4-7-6.3-2-7.4 2.2-.7 2.4-.5 5-1.2 7.2-.8 2.3-3 3-2 6.7.8 2.5 9.5 10.2 1.2 9.4-6-.5-5.3-9.5-9-12.3-1.7-1.1-4-1-5.2-2.3-1.8-2.2.5-5-.4-6.7-2.3-4.4-7.5 0-7.7 4-.2 3 2.5 7.3 5.4 9.2 1.3.8 3.8.4 4.6 1 1.9 1.6 1.1 2.9 1.9 4.7 1.7 4 3.7 4.5 6.5 7.6 1.4 1.5 1.2 3.5 3 4.6 1.6.9 3.1 0 4.6.6 2.7 1 5.1 3.6 1 5.2-1.6.6-3-1-4.3-1s-3.7 1.4-4.7 1.3a5.7 5.7 0 01-4.3-8.4c-3.1-2.8-7-3.8-7.2.6 0 2 5.2 7.8 1.1 8.9s-3.5-6.3-5.6-7.5c-5.2-3-8.5 4.6-6.7 8.3 1.2 2.5 7.7 7.3 10.4 7.7 3 .5 7.5-2.1 10.5-3.3 1.9-.7 6.8-2.7 8.9-1.5 1.8 1.1 2 6 2.2 8.4-3.6.5-5.2 2.7-6.4 5.9-.4 1.1.2 2.5-.2 3.7s-2.9 2-2.3 3.7c2.7 8.3 11-5.3 12.4-7.5 4.7.6 3.7.2 6.2-3.2 1-1.3 3.5-6.4 6.4-4.3 1.9 1.4-.3 5.7-.5 7.5-.7 4.3-.5 8-3.3 11.8-1 1.5-3 3-3.8 4.7-2.5 4.8-.2 6.7-5.5 5.2s-16.8-5.7-15.5 4.6c2.5.7 5.8 0 7.9.5 2.8.8 4 3.8 7 4 1.4 2.7-.6 4.6-1 7.3-3.3-.7-5.5 3.3-6.1 5.7-1.3 4.7.3 6.7 5.2 7.2 3.5 6.6 1 4.9-4.2 6-2.7.6-12.7 5.2-14.1 7.6-3.8 6 7.6 3.1 10.3 3.3 4.9.3 8 2.7 13.2 2-1 4.4-9.9 1.8-12.2 5.5 8.6 7.1 16.5 1.6 26 3.8 5.3 1.3 2.8 3.6-2 4.3-1.8.2-4.3-.6-6 0-2 1-2.6 2.8-4.7 3.3.4 4.3 9.2 4.6 12.6 4.8a12.8 12.8 0 010 3.7c-.6 2.5-3.6 1.4-6 1-.4 3-4.4 2.8-5.7 5.6-.6 1.2 1.1 1.7.9 2.8-.4 1.4-1.6 2.7-2 4.2-4.5-1-3.5 4.3-2.3 7-3.6-.3-3.4 3.7-1.3 5.8-3.5-.4-2.3 2.7-4 4.2-2.5 2.4-1.2 1.8-4.3 1.3-1.6-.2-2.2-2.8-4.5-1.6-1.7 1-.6 3.2-1.4 4.1l-1.8 2.3s-2.1-.2-2.8.5-.2 2.9-.7 3.8a9 9 0 01-5.4 4.6c-3.8 1.5-13.1 1-13.3 6.7 3.9-.3 5.9 2.6 9.3 2.5-.1.2-20.5 8.2-12.2 10.8-5.5 4.2 9 6 11.8 6a65.3 65.3 0 0113.1 1c2.2.4 10.1.3 11.5 1.9 3.7 4.1-5 4.4-7 6.2a5.8 5.8 0 002.6 6.6c-11 4.1 6 10 9 12.1-.2 1.3-1.7 3.3-1.5 4.6.4 2.3 3.3 3.3 4 5.2 1.7 4.3-2.1 8.6 1.2 13.1 6.8 9.3 18.9 4.5 27 9.2-3.4.5-10.5.4-11.9 4.2-1.2 3.5 3.3 4.9 5.7 5.2 6.7 1 13.5.8 20 3.2-2.5 2.2-4.6 2.3-2.1 5.7 2.2 3 9.7 3.8 13.1 4.9 0 2.8 3.3 3.4 5.7 3.3.8 4-2.6 2.4-4.6 3.6-3 1.9-3.7 3.6-3.4 7.5-4.8-.3-9.9-5.8-9.4 2.9-.6-.4-2.5-.5-3.2-.8-1.2 2.8-.4 5.3 1.4 7.4-2.2-.6-5.7 1.8-6.7 2.9-2 2-3.1 4-2.8 7.5-.3-1.3-2.3-2-3.8-2.3l-1 4.6c-4-2-5.3 4.8-5.6 7.5-3-3.6-5.7 3-6.2 5.7-3.8.2-5.5-5.5-2.9-8a4.4 4.4 0 00-4.6 2.5c.9-2.7-3.3-4.4-5.3-2.5 2.3-3.4 1.9-8.9-3-8.5-.5-.8.3-.6.3-.9a4.7 4.7 0 00-4.2-2.8c.5-2.5 1-16.2-4.6-8.6-1.2-6.3-4.4.2-4.4 3.4-10.4-.3-8 14.8-4.7 21.7-3 1.6-2.9 8-2.4 11.4.8 5 7.3 7 7.6 10.8.4 3.1-5.2 6-4.9 9.8.2 1.6 1.8 3.2 2 4.8.5 2.3-1 4 .5 6.6-1.9 1-3.2 5-3.4 7-4.9-.3-2.2-6.2-8-3.2-2.3 1.2-.3 4.2-4 1.4-2.4-1.7-1.8-5.8-4-7.6-5.5-4.7-5 2.7-4.2 6.2 1 3.8 1 11-4.6 5.8-4-3.8-1-12-.6-16.7.2-3 1.6-5.2-2.4-6.2-3.5-.8-4 1.3-4.7 4-.8 3 1.1 5.6-1.4 8-2 1.9-4.3 0-6 2.7-2.6 4.3 4.7 11-2 14.3-7.4 3.7-6.5-9.3-4.7-13.3-13.1-2-8 14.8-3 20.1 4.7 5 8.3 3 13.9 1 3-1.1 9.5-1.6 11.6 2 2 3.2-2 8.3-5.4 8.9-5.2 1-8.7-6.8-11.5.1-2.3 5.6 3.4 7.6 8.2 7 3.8-.5 7-3.3 10.7-3.8 4.8 4.7-3.7 9-5.1 12.8-6.8 16.8 68 20.5 77.5 17.6 11.6-3.5 20.8-10 33.6-8.6 6.4.7 12.6 2.5 19 3 6 .3 12.2-.6 18 .1 9 1.2 16.6 6 26 6.7 10.5.6 19.8-1 27.6-8.3 12.6-11.7 17-32.7 18.6-49 2.8-25.5.2-51-3-76.3z"/><path fill="#29956b" d="M361.6 472.8c2.4-3.4 5.6-6.2 8.2-9.4l5-6c3.3-3.4 7-5.4 11-7.8 6.6-4.1 14.3-8.9 22-10.4 5.8-1.1 11.8-1.6 17.7-2.2a10 10 0 015.4.5c1 .6 1.7 2.3 3 2s1 .7 2.2.8c.8.1 1.5-.6 2.3-.8a12 12 0 004-1.9 10.4 10.4 0 015.5-1.7 17 17 0 003.6-.8c2.2-.5 5.3.6 7.3 1.5a2.8 2.8 0 012.1 2.3c.2.7.4 2.5 1 2.2a15.4 15.4 0 00-1.2 1.6h1.3a39.2 39.2 0 01-7.6 5c-3.1 1.5-7.2 1.8-9.8 3.8-1.3 1.1-6.5 4-3.2 5.9 1.6.9 4.3.2 6 .6a8.7 8.7 0 015.5 3.3c1.7 2 1.7 4 2.6 6.3a8.7 8.7 0 011.1 3.4l.2 4.8a39.5 39.5 0 01-1 10.3c-.6 2.5-1.3 5-2.2 7.5a47.6 47.6 0 01-4.4 9.3 11.6 11.6 0 01-2.2 2.5 24.7 24.7 0 01-2.4 2.4c-2 .6-1.8-2.5-2-3.5s-1-1.5-1-2.5c-.2-1.4.4-3.2.4-4.7a63.2 63.2 0 000-6.5c0-1.9.7-4 .2-5.8-.2-.7-.8-.7-.8-1.8s.6-1.2.1-2.2c-.3-.7-1-1.1-1-1.9-.1-1 1-2 .9-3h-1.5c-.1-1 .5-1.5.4-2.4 0-.5-.7-.6-.8-1s.3-1 .2-1.5c-.2-.8-1-4.5-2-4.3-.7 0-1.3 1.7-1.6 2.2a15.7 15.7 0 01-6.6 5c-2 1-3.5 2.2-5.3 3.3s-4.3 1.9-5.9 3.2a52.4 52.4 0 01-13 7.6 35.6 35.6 0 01-10 2.4c-3.5.3-6.9 1.1-10.3 1.3-2.7 0-5.5-.8-8-.5-3.3-.6-2.3 0-3.8 2.4-1.2 2-2.5 4-3.9 5.9-1.8 2.3-3.4 4.5-5.3 6.7-1.6 1.7-3.1 4-5.7 4.1-1.5 0-4 0-5-1-1-1.4-1-4.5-1-6a30 30 0 016.6-14c.5-.8 3.2-4.6 3.6-4.2-1.5-.3-1.2-2.8-2.3-3.7-1.2-1-2-.6-2.6-2.3-.7-1.8 0-1.7 1.2-3a26.6 26.6 0 002.8-3.3zM334.8 576a7.2 7.2 0 00-2.4-6.2l-.2-.2a3.4 3.4 0 00-.1-1 1.6 1.6 0 00-.9-1l-1.1-.4-.8-.5a3.2 3.2 0 00-2-.3h-1.6a10.8 10.8 0 00-3 .3 4.9 4.9 0 00-1 .3l-.2.2a1.9 1.9 0 01-.6-.4 3 3 0 00-.4-.5l-.5-.7a11.7 11.7 0 00-2.5-2.1c-.1-.1-.3-.2-.4-.1a.3.3 0 00-.2.2.8.8 0 000 .4l.4 1a1.5 1.5 0 010 1 1.4 1.4 0 01-.8.5 6.3 6.3 0 01-1 .3 1.3 1.3 0 00-.4.2.5.5 0 00-.2.5c0 .3.3.4.6.4a14 14 0 003.4.4 4.5 4.5 0 00.7-.1 1.3 1.3 0 01.7.4 5.6 5.6 0 01.8 1.3l.2.4h-.3l-.4.2a5.7 5.7 0 001.5 3 1.7 1.7 0 00.6.3c.2.1.6-.3.9-.6a12.4 12.4 0 0010.8 3.1v-.2zM381.5 588.3a7.3 7.3 0 00-4.6-4.7l-.3-.2a3.3 3.3 0 00-.4-.8 1.6 1.6 0 00-1.3-.7l-1.1.2a7.4 7.4 0 01-1-.2 3.2 3.2 0 00-2 .5l-1.4.7a11 11 0 00-2.6 1.3 4.8 4.8 0 00-.7.7 1.6 1.6 0 00-.3.3 1.8 1.8 0 01-.6-.2 3.6 3.6 0 00-.6-.3l-.7-.4a12 12 0 00-3.2-1 .5.5 0 00-.3 0 .3.3 0 00-.1.3.7.7 0 00.2.3 9.2 9.2 0 01.6.7 1.4 1.4 0 01.3 1 1.5 1.5 0 01-.4.8 7.2 7.2 0 01-.8.6 1.3 1.3 0 00-.3.4.5.5 0 000 .5c.1.3.5.2.7.2a14 14 0 003.2-1 5 5 0 00.7-.3 1.3 1.3 0 01.8 0 5.8 5.8 0 011.2 1l.3.2-.1.2-.4.3a5.7 5.7 0 002.5 2 1.6 1.6 0 00.7.2c.3 0 .5-.5.6-1a12.8 12.8 0 003.7.9 12.5 12.5 0 007.5-2l-.2-.3zM392.3 567a7.3 7.3 0 00-6-2.8h-.4a3 3 0 00-.7-.6 1.5 1.5 0 00-1.4-.2l-1 .6a7.7 7.7 0 01-1 .2 3.2 3.2 0 00-1.6 1.2l-1.1 1.2a10.6 10.6 0 00-2 2.2 5.4 5.4 0 00-.4.9 2.8 2.8 0 000 .3 1.7 1.7 0 01-.8.1 4.5 4.5 0 00-.6 0l-.8-.1a11.9 11.9 0 00-3.3.2.5.5 0 00-.3.2.3.3 0 000 .3.8.8 0 00.3.2 9.3 9.3 0 01.9.4 1.4 1.4 0 01.6.8 1.4 1.4 0 010 1 7.1 7.1 0 01-.6.8 1.3 1.3 0 00-.2.5.5.5 0 00.2.5c.2.1.6 0 .8-.2a13.2 13.2 0 002.6-2 4.3 4.3 0 00.5-.6 1.3 1.3 0 01.8-.2 5 5 0 011.4.4h.4v.3l-.3.4a5.6 5.6 0 003.1 1 1.6 1.6 0 00.8-.1c.2-.1.1-.7.1-1a12.4 12.4 0 0010-5.4l-.3-.1c0-.2.2-.3.3-.4zM417.3 563.7a7.3 7.3 0 00-6.6-.7l-.4.1a3.5 3.5 0 00-.8-.3 1.6 1.6 0 00-1.4.2l-.8 1a6.1 6.1 0 01-.9.3 3.3 3.3 0 00-1.1 1.7l-.7 1.5a10.7 10.7 0 00-1.2 2.7 5.2 5.2 0 000 1v.4a2 2 0 01-.7.3 2.9 2.9 0 00-.6.1l-.8.2a11.8 11.8 0 00-3 1.2.4.4 0 00-.3.3.3.3 0 00.1.3.7.7 0 00.3.1c.4 0 .7 0 1 .2a1.4 1.4 0 01.9.5 1.4 1.4 0 01.2 1 7.8 7.8 0 01-.2 1 1.2 1.2 0 000 .4.5.5 0 00.3.4c.3.1.5-.1.7-.3a14 14 0 001.8-2.8 4.4 4.4 0 00.3-.7 1.3 1.3 0 01.7-.5 5.7 5.7 0 011.5 0h.4a2.3 2.3 0 010 .2v.5a5.7 5.7 0 003.2 0 1.8 1.8 0 00.7-.4c.1-.2 0-.7-.2-1a12.4 12.4 0 007.7-8.2l-.3-.1.2-.6zM348.9 590.4a6.4 6.4 0 00-3-5.1 2.6 2.6 0 00-.2-.2 3 3 0 00-.2-.8 1.4 1.4 0 00-1-.9h-1a7.5 7.5 0 01-.7-.5 3 3 0 00-1.9.1l-1.3.2a8.9 8.9 0 00-2.6.7 3.6 3.6 0 00-.7.4l-.3.2a1.8 1.8 0 01-.5-.3 2.8 2.8 0 00-.4-.4l-.6-.5a10.5 10.5 0 00-2.4-1.6.4.4 0 00-.4 0 .3.3 0 00-.1.3.8.8 0 00.1.3l.4.8a1.1 1.1 0 01-.5 1.4 5.5 5.5 0 01-.8.4 1.1 1.1 0 00-.4.3.5.5 0 00-.1.4c0 .2.4.3.6.3a12.3 12.3 0 003-.1 4.5 4.5 0 00.7-.2 1.2 1.2 0 01.6.3 5.2 5.2 0 01.9 1l.2.3-.2.1-.4.2a5 5 0 001.8 2.3 1.5 1.5 0 00.6.3c.2 0 .4-.4.6-.7a11 11 0 003 1.5 11.2 11.2 0 007-.1 2.4 2.4 0 01-.1-.3zM380.4 561a6.4 6.4 0 00-4.4-4h-.3a2.9 2.9 0 00-.4-.7 1.4 1.4 0 00-1.2-.5l-1 .2a8 8 0 01-.8-.2 2.8 2.8 0 00-1.7.7l-1.3.6a9.4 9.4 0 00-2.2 1.4 4.3 4.3 0 00-.6.7l-.1.2a2 2 0 01-.7 0 2.9 2.9 0 00-.5-.3l-.6-.3a10.3 10.3 0 00-2.9-.7.4.4 0 00-.3 0 .3.3 0 000 .3.6.6 0 00.2.3 5.3 5.3 0 01.6.6 1.2 1.2 0 01.3.8 1.2 1.2 0 01-.3.8 7 7 0 01-.6.6 1.2 1.2 0 00-.3.3.5.5 0 000 .5c.1.2.4.2.7.1a12.6 12.6 0 002.7-1 4 4 0 00.6-.4 1.2 1.2 0 01.7 0 4.7 4.7 0 011.1.7l.3.2-.1.1-.3.3a5 5 0 002.4 1.7 1.6 1.6 0 00.6.1c.2 0 .3-.5.5-.9a11.3 11.3 0 003.2.5 11.1 11.1 0 006.5-2.3l-.1-.2zM359.8 572.6a4.1 4.1 0 00-2.7-2.7h-.2a1.6 1.6 0 00-.2-.5.9.9 0 00-.7-.4h-.7a3.5 3.5 0 01-.5 0 1.9 1.9 0 00-1.2.3 8.7 8.7 0 01-.8.3 6.5 6.5 0 00-1.5.8 2.8 2.8 0 00-.4.4l-.1.1a1 1 0 01-.4 0 2.3 2.3 0 00-.3-.2l-.4-.3a7 7 0 00-1.8-.5.2.2 0 00-.2 0 .2.2 0 000 .1.4.4 0 000 .2l.4.4a.9.9 0 01.2.6.8.8 0 01-.2.4 2.9 2.9 0 01-.5.4.7.7 0 00-.2.2.3.3 0 000 .3l.5.1a8.4 8.4 0 001.8-.5 2.6 2.6 0 00.4-.2.7.7 0 01.4 0 3 3 0 01.7.5l.2.2h-.1l-.2.3a3.3 3.3 0 001.4 1.2 1 1 0 00.4 0c.2 0 .3-.3.4-.5a7.2 7.2 0 002 .4 7.2 7.2 0 004.4-1.1l-.1-.1zM393 577.1a4.2 4.2 0 00-3.3-2h-.2a2 2 0 00-.4-.4 1 1 0 00-.8-.2l-.6.3a5 5 0 01-.5 0 1.9 1.9 0 00-1 .6l-.7.5a5.8 5.8 0 00-1.3 1.2 3.3 3.3 0 00-.3.4v.2a1.1 1.1 0 01-.5 0 2 2 0 00-.3-.1l-.5-.1a6.7 6.7 0 00-1.9-.1h-.2a.2.2 0 000 .2.5.5 0 00.2.2 3.5 3.5 0 01.5.3.8.8 0 01.3.5.8.8 0 01-.2.5 3.6 3.6 0 01-.3.4.6.6 0 00-.1.3.3.3 0 000 .3h.5a8.8 8.8 0 001.6-1 4.1 4.1 0 00.3-.3.7.7 0 01.5 0 3 3 0 01.8.3h.2v.2l-.2.3a3.2 3.2 0 001.7.8 1 1 0 00.4 0l.2-.6a7.6 7.6 0 002-.1 7.2 7.2 0 004-2.2l-.2-.1zM423.8 544.2a4.2 4.2 0 00-3.8-.2h-.2a2 2 0 00-.5-.1 1 1 0 00-.8.1l-.4.6c-.2.2-.3.1-.5.2a1.8 1.8 0 00-.6 1l-.4.8a6 6 0 00-.6 1.6 3.3 3.3 0 000 .6 1 1 0 000 .2 1 1 0 01-.3.2 2 2 0 00-.4 0 3.9 3.9 0 00-.4.2 6.5 6.5 0 00-1.8.7v.2a.2.2 0 000 .2.7.7 0 00.2 0 5.3 5.3 0 01.6 0 .8.8 0 01.4.3.8.8 0 01.2.5 3.4 3.4 0 01-.1.6.7.7 0 000 .3.3.3 0 00.2.2l.4-.2a7.8 7.8 0 001-1.7 3 3 0 00.1-.4.7.7 0 01.4-.2 3 3 0 01.8-.1h.3v.1a2.7 2.7 0 010 .3 3.3 3.3 0 001.9 0 .9.9 0 00.3-.3v-.6a7 7 0 001.8-1 7.2 7.2 0 002.4-3.8h-.2zM404 549.2a4.2 4.2 0 00-3.4-1.4h-.3a1.8 1.8 0 00-.3-.3.9.9 0 00-.9 0c-.2 0-.3.2-.5.3l-.6.1c-.4 0-.6.5-.9.8a7.7 7.7 0 01-.6.6 5.8 5.8 0 00-1 1.4 2.9 2.9 0 00-.2.5 1.2 1.2 0 000 .2 1 1 0 01-.4 0 2.3 2.3 0 00-.3 0h-.5a7 7 0 00-1.9.3.3.3 0 00-.2 0 .2.2 0 000 .3.6.6 0 00.2 0 4 4 0 01.5.3.7.7 0 01.4 1 3.3 3.3 0 01-.3.5.8.8 0 000 .3.3.3 0 000 .2h.5a7.9 7.9 0 001.3-1.3 2 2 0 00.3-.3.8.8 0 01.4-.2 3.6 3.6 0 01.9.2h.2a.6.6 0 010 .2l-.2.2a3.2 3.2 0 001.9.5 1 1 0 00.4 0v-.7a7.5 7.5 0 002.1-.5 7.2 7.2 0 003.4-2.8l-.1-.1zM337.7 559.2a4.1 4.1 0 00-2-3.1l-.2-.1a2 2 0 00-.2-.5.9.9 0 00-.6-.6h-.7a3.7 3.7 0 01-.5-.2 1.9 1.9 0 00-1.2.1l-.8.2a6 6 0 00-1.7.5 2.3 2.3 0 00-.4.3l-.2.1a1 1 0 01-.3-.1 1.2 1.2 0 00-.3-.3 3.5 3.5 0 00-.4-.3 6.7 6.7 0 00-1.6-.9.2.2 0 00-.2 0 .2.2 0 00-.1.2.6.6 0 000 .2 4.7 4.7 0 01.3.5.7.7 0 01-.2 1l-.5.2a.7.7 0 00-.3.2.3.3 0 000 .3l.4.2a8 8 0 001.9-.2 1.7 1.7 0 00.4-.2.8.8 0 01.4.2 2.9 2.9 0 01.6.6l.2.2h-.1a2 2 0 01-.3.2 3.3 3.3 0 001.2 1.5 1 1 0 00.4.1c.2 0 .3-.3.4-.5a7 7 0 006.4.5v-.1zM324 584a4.1 4.1 0 00-2-3.2l-.1-.1a2.1 2.1 0 00-.1-.5.9.9 0 00-.6-.6l-.7-.1a2.7 2.7 0 01-.4-.3 1.9 1.9 0 00-1.2 0l-1 .2a6 6 0 00-1.6.4 2.3 2.3 0 00-.5.2 1 1 0 00-.1.1 1.3 1.3 0 01-.4-.2 2 2 0 00-.2-.2l-.4-.3a6.8 6.8 0 00-1.6-1 .3.3 0 00-.2 0 .2.2 0 000 .1.4.4 0 000 .2c0 .2.2.3.3.5a.8.8 0 010 .6.8.8 0 01-.4.4 4.6 4.6 0 01-.5.2.9.9 0 00-.3.2.3.3 0 000 .3l.3.2a8.2 8.2 0 002-.1 3 3 0 00.4-.1.8.8 0 01.4.2 3.2 3.2 0 01.5.6l.2.2a.6.6 0 01-.2 0l-.2.2a3.3 3.3 0 001.1 1.5 1 1 0 00.4.2l.4-.4a7 7 0 006.4 1 .9.9 0 000-.2zM347.7 566.3a4.2 4.2 0 00-2-3.2l-.2-.1a1.8 1.8 0 00-.2-.5.9.9 0 00-.6-.5h-.7c-.3 0-.3-.2-.5-.3a1.9 1.9 0 00-1.1.1 8.7 8.7 0 01-1 .2 6 6 0 00-1.5.5 4.5 4.5 0 00-.5.3l-.1.2a1.2 1.2 0 01-.4-.2 2.9 2.9 0 00-.3-.2l-.4-.3a7 7 0 00-1.6-1 .3.3 0 00-.2 0 .2.2 0 00-.1.2.5.5 0 000 .2l.4.5a.8.8 0 010 .6.8.8 0 01-.3.4 2.9 2.9 0 01-.5.2.9.9 0 00-.2.2.3.3 0 000 .3c0 .2.2.2.4.2a7.7 7.7 0 001.9-.2 3 3 0 00.4-.2.7.7 0 01.4.2 3.1 3.1 0 01.6.6l.2.2h-.2l-.2.2a3.2 3.2 0 001.2 1.5 1.1 1.1 0 00.4.1l.4-.5a7.4 7.4 0 002 .9 7.1 7.1 0 004.4-.4 1 1 0 000-.1zM355.8 580.6a4.1 4.1 0 00-2.3-3 1.6 1.6 0 00-.2 0 2.2 2.2 0 00-.2-.6 1 1 0 00-.6-.5h-.7a4.5 4.5 0 01-.5-.2 1.8 1.8 0 00-1.2.2l-.9.3a6 6 0 00-1.6.6 2.3 2.3 0 00-.4.3l-.1.1a1 1 0 01-.4-.1 1.9 1.9 0 00-.3-.2 4.6 4.6 0 00-.4-.3 6.4 6.4 0 00-1.7-.8.2.2 0 00-.2 0 .2.2 0 000 .2.4.4 0 000 .2l.3.4a.7.7 0 01-.2 1 2.8 2.8 0 01-.4.3.7.7 0 00-.3.2.3.3 0 000 .3l.4.2a8.2 8.2 0 002-.4 2 2 0 00.3-.1.8.8 0 01.5 0 2.9 2.9 0 01.6.7l.2.1-.2.1-.2.2a3.2 3.2 0 001.3 1.4 1.1 1.1 0 00.4 0c.2 0 .3-.2.4-.4a7 7 0 006.4 0v-.1zM340.1 599.5a3.5 3.5 0 00-2-2.6 1.3 1.3 0 00-.2-.5.8.8 0 00-.6-.4h-.6a4 4 0 01-.4-.2 1.6 1.6 0 00-1 .2 9 9 0 01-.7.2 5 5 0 00-1.4.5 3.4 3.4 0 00-.4.3.9.9 0 01-.4 0l-.2-.2a4.2 4.2 0 00-.4-.2 6 6 0 00-1.4-.7.3.3 0 00-.2 0 .2.2 0 000 .1.5.5 0 000 .2 4 4 0 01.3.4.7.7 0 01.1.4.7.7 0 01-.2.4 4.4 4.4 0 01-.4.3.5.5 0 00-.2.1.2.2 0 000 .3l.3.1a6.7 6.7 0 001.5-.2l.4-.1a.6.6 0 01.3 0 2.5 2.5 0 01.6.6l.1.1-.3.2a2.7 2.7 0 001.1 1.2.8.8 0 00.4 0l.3-.3a5.8 5.8 0 001.7.6 6 6 0 003.8-.6l-.1-.1zM428.5 570a3.5 3.5 0 00-3.2-.4l-.1.1a1.4 1.4 0 00-.4-.2.8.8 0 00-.7.2c-.2 0-.2.3-.4.4a2.7 2.7 0 01-.4.2 1.6 1.6 0 00-.6.8l-.3.7a5.2 5.2 0 00-.6 1.3 2.4 2.4 0 000 .5v.2a.8.8 0 01-.4.1 2.5 2.5 0 00-.2 0l-.4.2a6 6 0 00-1.5.5l-.2.2a.1.1 0 00.1.1.5.5 0 00.2 0c.1 0 .3 0 .5.2a.7.7 0 01.4.2.7.7 0 010 .5 4 4 0 010 .4.7.7 0 000 .3.3.3 0 00.1.2l.4-.2a7 7 0 00.8-1.4 1.8 1.8 0 00.2-.3.7.7 0 01.3-.2 2.6 2.6 0 01.7 0h.2a1.6 1.6 0 010 .3 2.7 2.7 0 001.6 0 .8.8 0 00.3-.2v-.5a6 6 0 003.8-4h-.2zM330.1 544.5a3.5 3.5 0 00-1.1-3l-.1-.2a1.6 1.6 0 000-.4.8.8 0 00-.5-.6l-.5-.1a4.6 4.6 0 01-.4-.3 1.6 1.6 0 00-1-.1h-.8a5.3 5.3 0 00-1.4.1 2.2 2.2 0 00-.4.2h-.2a.9.9 0 01-.3-.2 1.4 1.4 0 00-.1-.2 4 4 0 00-.3-.3 5.5 5.5 0 00-1.2-1 .2.2 0 00-.2-.1.1.1 0 000 .1.3.3 0 000 .2v.4a.6.6 0 01-.3.8 3.5 3.5 0 01-.5.1.6.6 0 00-.2.1.3.3 0 00-.1.3l.3.2a6.7 6.7 0 001.6.1 1.5 1.5 0 00.4 0 .6.6 0 01.3.3 2.4 2.4 0 01.4.6v.1l-.3.1a2.7 2.7 0 00.8 1.4.7.7 0 00.3.2l.4-.3a6 6 0 005.2 1.6.5.5 0 000-.1zM296.5 555.5a3.5 3.5 0 00-1.1-3 .8.8 0 00-.1-.1 1.6 1.6 0 000-.5.8.8 0 00-.5-.6 5 5 0 01-.5 0 2.5 2.5 0 01-.4-.4 1.6 1.6 0 00-1-.1h-.8a5 5 0 00-1.4.1 3.2 3.2 0 00-.4.2h-.2a1 1 0 01-.2-.1.9.9 0 00-.2-.3 4 4 0 00-.3-.3 5.8 5.8 0 00-1.2-1 .2.2 0 00-.2-.1.2.2 0 000 .1.3.3 0 000 .2 3.5 3.5 0 01.1.4.8.8 0 010 .5.7.7 0 01-.4.3 3.8 3.8 0 01-.4.1.6.6 0 00-.2.1.2.2 0 00-.2.3l.4.2a7.3 7.3 0 001.6.2h.3a.6.6 0 01.4.2 2.3 2.3 0 01.3.6l.1.2h-.3a2.8 2.8 0 00.7 1.5.9.9 0 00.3.2l.5-.4a6 6 0 001.5 1 6.1 6.1 0 003.7.6v-.1zM311.7 550.6a4.2 4.2 0 00-.7-3.7l-.1-.1a2.2 2.2 0 000-.5.9.9 0 00-.3-.8l-.6-.3a4.7 4.7 0 01-.4-.4 1.9 1.9 0 00-1.1-.3l-1-.2a6.4 6.4 0 00-1.6-.2 3.4 3.4 0 00-.5.1h-.2a1 1 0 01-.3-.2 1.8 1.8 0 00-.1-.3l-.3-.4a6.5 6.5 0 00-1.2-1.5.3.3 0 00-.2-.1.2.2 0 000 .1.4.4 0 000 .2 3.6 3.6 0 010 .6.8.8 0 01-.2.5.8.8 0 01-.4.3 3.4 3.4 0 01-.6 0 .7.7 0 00-.3 0 .3.3 0 00-.1.3l.3.3a7.7 7.7 0 001.8.6 1.5 1.5 0 00.4 0 .8.8 0 01.4.3 2.8 2.8 0 01.3.8v.2h-.4a3.2 3.2 0 00.6 1.8 1 1 0 00.3.3l.5-.3a7.5 7.5 0 001.5 1.5 7.2 7.2 0 004.3 1.4v-.1zM315.4 575a4.2 4.2 0 00-1.4-3.5l-.1-.1a2.1 2.1 0 000-.5.9.9 0 00-.5-.7l-.7-.1a4.5 4.5 0 01-.4-.4 1.9 1.9 0 00-1.2-.1h-.9a6 6 0 00-1.7.1 3.1 3.1 0 00-.5.2h-.2a1.1 1.1 0 01-.3-.1 1.6 1.6 0 00-.2-.3 3.6 3.6 0 00-.3-.4 6.5 6.5 0 00-1.4-1.2.3.3 0 00-.2-.1.2.2 0 00-.1.1.4.4 0 000 .2 4.9 4.9 0 01.1.6.8.8 0 010 .5.8.8 0 01-.4.4 3.2 3.2 0 01-.6.1 1 1 0 00-.3.2.3.3 0 000 .2c0 .2.1.3.3.3a7.6 7.6 0 002 .2 2 2 0 00.3 0 .7.7 0 01.4.2 2.8 2.8 0 01.5.7v.3h-.3a3.2 3.2 0 00.8 1.8 1 1 0 00.4.2l.5-.4a7 7 0 001.8 1.3 7.2 7.2 0 004.4.6v-.2z"/><path fill="#b2dcce" d="M670 237c.5-.3.8-1 1.3-1.4a4.9 4.9 0 001-1c.7-1.3-.9-1.3-1.6-2a25.4 25.4 0 014.6.7 10.7 10.7 0 004.1.5 16 16 0 002.7-.3l1.2-.3a1.5 1.5 0 00.7-.2c-.4-.3-1.2-.2-1.7-.3a5 5 0 01-1.8-.7 4.5 4.5 0 01-1.7-3.8 15.3 15.3 0 01.2-4 6.9 6.9 0 011.1-1.8 6.6 6.6 0 011.9-1.7 7 7 0 00-3.1.9 9.9 9.9 0 00-2.2 1.2l-2 1.5c-1.6 1-2.6 2.5-4.1 3.4a7 7 0 00-1 .8 2.2 2.2 0 01-1.5.4 6.2 6.2 0 00.7-.4 2.9 2.9 0 00.2-.5 4.5 4.5 0 00.3-.4c.2-.5-.2-.8-.5-1.1a1.7 1.7 0 00-1.2-.7 4.9 4.9 0 00-2 0c-1 .1-1.8-.3-2.8-.2a11 11 0 01-2.4.2 11.8 11.8 0 00-2.5.2h-2.6a20.4 20.4 0 00-4 1 28.3 28.3 0 00-5.3 2 10.4 10.4 0 00-3 2.4 36 36 0 00-2 3 6.2 6.2 0 00-1 1.7 9.8 9.8 0 000 3v1.8l.1 1.5a2.1 2.1 0 00.2.8c-.7.3-.3 1.9.5 1.6.2 1.3 1 .8 2 .8a2.8 2.8 0 00.5 0l.8.1h1.1a9 9 0 011.7 0h1.7a23 23 0 003.5-.4 62.8 62.8 0 008.1-2.4 35.7 35.7 0 004.2-1.7 14.4 14.4 0 003.7-2.2l2-2zM696 198.6l.7-1.4a4.4 4.4 0 00.5-1c.4-1.2-.9-1-1.5-1.4a21.3 21.3 0 013.8-.3 8.6 8.6 0 003.4-.2 12.9 12.9 0 002.2-.8l.8-.4a1.3 1.3 0 00.6-.3c-.4-.2-1 0-1.5 0a4.4 4.4 0 01-1.5-.2 3.8 3.8 0 01-2.1-2.8 12.4 12.4 0 01-.5-3.2 5.8 5.8 0 01.5-1.7 5.6 5.6 0 011.2-1.7 6 6 0 00-2.3 1.2 8 8 0 00-1.6 1.4l-1.3 1.6c-1 1-1.7 2.5-2.7 3.5a4.5 4.5 0 00-.6.8 1.9 1.9 0 01-1.2.7l.5-.5c.1-.1 0-.3 0-.4l.1-.4c.1-.5-.2-.6-.5-.9a1.4 1.4 0 00-1-.3 4 4 0 00-1.8.4c-.7.2-1.5 0-2.2.3a8.7 8.7 0 01-2 .6 9.2 9.2 0 00-2 .6l-2 .5a17.7 17.7 0 00-3.2 1.4 23 23 0 00-3.8 2.7 9 9 0 00-2 2.5l-1.1 2.8a5.2 5.2 0 00-.4 1.5 8.3 8.3 0 00.4 2.4l.3 1.5.4 1.1a2 2 0 00.3.6c-.5.4.1 1.6.7 1.3.4 1 1 .4 1.8.2a3 3 0 00.4 0c.3-.2.3-.1.6 0s.6-.2 1-.4a8.9 8.9 0 011.3-.2l1.4-.3a20.5 20.5 0 002.7-1 51.8 51.8 0 006.2-3.3 30.5 30.5 0 003-2.2 11.9 11.9 0 002.6-2.4l1.3-1.9zM713.4 253.1l.8-1.4a4 4 0 00.5-1c.4-1.2-.9-1-1.6-1.4a21.4 21.4 0 013.9-.2 8.7 8.7 0 003.4-.3 13 13 0 002.2-.7 9.3 9.3 0 01.8-.5 1.3 1.3 0 00.6-.3c-.4-.2-1 0-1.5 0a4.1 4.1 0 01-1.5-.2 3.7 3.7 0 01-2.1-2.8 12.5 12.5 0 01-.5-3.2 6.3 6.3 0 011.7-3.4 5.7 5.7 0 00-2.3 1.3 8 8 0 00-1.6 1.3L715 242c-1 1-1.7 2.5-2.7 3.5a5.6 5.6 0 00-.6.8 1.9 1.9 0 01-1.3.7l.6-.5c.1-.1 0-.3 0-.4l.1-.4c.1-.5-.2-.6-.5-.9a1.3 1.3 0 00-1-.3 4 4 0 00-1.8.4c-.7.2-1.5 0-2.2.3a8.4 8.4 0 01-2 .6 9.5 9.5 0 00-2 .6l-2 .5a17 17 0 00-3.1 1.5 23.3 23.3 0 00-4 2.6 8.8 8.8 0 00-2 2.5l-1 2.8a5.2 5.2 0 00-.4 1.5 8.3 8.3 0 00.4 2.4l.3 1.5.4 1.1a1.9 1.9 0 00.3.7c-.5.3.1 1.5.7 1.2.4 1 1 .4 1.8.2a3.3 3.3 0 00.4 0c.3-.2.3-.1.6 0s.6-.2 1-.3a8.7 8.7 0 011.3-.3l1.4-.3a19.3 19.3 0 002.8-1 51.1 51.1 0 006-3.3 28.5 28.5 0 003.2-2.2 11.9 11.9 0 002.6-2.4l1.2-1.9zM730.4 190.3l.3-.7a1.9 1.9 0 00.3-.4c.2-.6-.4-.5-.7-.7a10.2 10.2 0 011.7-.1 4 4 0 001.6-.1 6.5 6.5 0 001-.3l.4-.3.3-.1h-.7a2 2 0 01-.7-.1 1.7 1.7 0 01-1-1.3 6 6 0 01-.2-1.5 2.4 2.4 0 01.2-.7 2.5 2.5 0 01.6-.8 2.8 2.8 0 00-1.1.6 4 4 0 00-.7.6l-.6.7-1.3 1.6a2.4 2.4 0 00-.2.4 1 1 0 01-.6.3l.3-.2a1.1 1.1 0 000-.2v-.2c0-.1 0-.3-.2-.4a.6.6 0 00-.5-.2 1.8 1.8 0 00-.8.2c-.3.1-.7 0-1 .2a3.9 3.9 0 01-.9.2 4.2 4.2 0 00-.9.3l-1 .3a7.4 7.4 0 00-1.4.6 10.7 10.7 0 00-1.7 1.2 4.2 4.2 0 00-1 1.1l-.5 1.3a2.5 2.5 0 00-.1.7 3.7 3.7 0 00.1 1.1l.2.7.2.5a1 1 0 00.1.3c-.2.2 0 .7.3.6.2.4.5.2.8 0h.2a.4.4 0 01.3 0l.4-.1a3.2 3.2 0 01.6-.1l.7-.2a8.2 8.2 0 001.2-.4 23.6 23.6 0 002.8-1.5 15.4 15.4 0 001.4-1 5.4 5.4 0 001.2-1.1zM71 183.4a17.9 17.9 0 002.6-16.2l-.3-.8a8 8 0 001-2 3.9 3.9 0 00-.4-3.6c-.6-.8-1.6-1.2-2.1-2a19.9 19.9 0 01-.9-2.2c-.7-1.6-2.5-2.3-4-3.1l-3.5-2a25.7 25.7 0 00-6.5-3 13.3 13.3 0 00-2.4-.5h-.9a4.6 4.6 0 01-.7-1.6 9 9 0 00-.2-1.5l-.3-2a29.4 29.4 0 00-2.6-7.7c-.2-.3-.4-.6-.7-.7a.8.8 0 00-.7.3 2 2 0 00-.3.9 24.4 24.4 0 01-.5 2.4 3.5 3.5 0 01-1.4 2 3.5 3.5 0 01-2.3.3 17 17 0 01-2.4-.6 3.3 3.3 0 00-1.3-.1 1.2 1.2 0 00-1 .7c-.2.7.3 1.3.8 1.8a34 34 0 006.7 4.8 9 9 0 001.6.8 3.3 3.3 0 011 1.7 13.5 13.5 0 010 3.7v1h-.6l-1.1-.3a13.8 13.8 0 00-.5 8.1 4.2 4.2 0 00.8 1.6c.5.5 1.7 0 2.7-.2a31 31 0 004 8.3 31 31 0 0015 11.9l.2-.7zM154.6 268.2a17.9 17.9 0 00-3.7-16 20 20 0 00-.6-.6 7.8 7.8 0 00.1-2.2 3.9 3.9 0 00-1.7-3.2c-.9-.4-2-.5-2.8-1a18.6 18.6 0 01-1.6-1.7c-1.3-1.2-3.2-1.2-5-1.3-1.3 0-2.6-.3-3.9-.5a25.9 25.9 0 00-7.3-.3 13.3 13.3 0 00-2.3.5l-.7.3h-.2a4.7 4.7 0 01-1.2-1.2 8.8 8.8 0 00-.8-1.3 29 29 0 00-1-1.8 28.9 28.9 0 00-5.4-6.1 1.1 1.1 0 00-.9-.4.8.8 0 00-.6.6 2 2 0 000 .9 21.8 21.8 0 01.5 2.4 3.6 3.6 0 01-.5 2.3 3.5 3.5 0 01-2 1.3 17.1 17.1 0 01-2.4.3 3.3 3.3 0 00-1.3.4 1.2 1.2 0 00-.6 1c0 .7.8 1.1 1.4 1.4a34.6 34.6 0 008 2 10 10 0 001.8 0 3.3 3.3 0 011.6 1.2 12.8 12.8 0 011.5 3.4l.4 1-.7.2-1.2.2a14 14 0 002.8 7.6 4.5 4.5 0 001.4 1.2c.5.3 1.5-.6 2.4-1.2a30.6 30.6 0 0025.2 11.3v-.7zM204.2 236.2a17.9 17.9 0 00-9.4-13.4l-.8-.4a8.2 8.2 0 00-.7-2.1 4 4 0 00-2.7-2.3c-1-.1-2 .2-3 0a18.5 18.5 0 01-2.2-1c-1.6-.6-3.4.1-5 .7l-3.8 1a26.4 26.4 0 00-7 2.3 12.5 12.5 0 00-1.9 1.4l-.6.5-.1.1a4.5 4.5 0 01-1.6-.7 8.7 8.7 0 00-1.2-1l-1.7-1.2a29.1 29.1 0 00-7.2-3.7 1.2 1.2 0 00-1 0 .8.8 0 00-.3.8 2 2 0 00.4.8 22 22 0 011.3 2 3.5 3.5 0 01.4 2.4 3.5 3.5 0 01-1.4 1.9 15.8 15.8 0 01-2 1.3 3.2 3.2 0 00-1 .8 1.3 1.3 0 00-.3 1.3c.3.6 1.2.7 1.8.7a34.4 34.4 0 008.2-1.2 9.2 9.2 0 001.7-.6 3.2 3.2 0 012 .6 13.3 13.3 0 012.5 2.5l.7.8-.5.4-1 .6a13.9 13.9 0 005.4 6 4.3 4.3 0 001.7.7c.7 0 1.2-1.2 1.8-2a30.7 30.7 0 0027.7 1.1l-.3-.6zM261.4 260.5a17.8 17.8 0 00-13.1-9.7l-1-.2a8 8 0 00-1.2-1.8 3.9 3.9 0 00-3.4-1.2c-1 .2-1.8.9-2.8 1a18.8 18.8 0 01-2.3-.2c-1.7 0-3.2 1.2-4.6 2.2-1 .8-2.2 1.4-3.3 2.1a26 26 0 00-5.8 4.5 12.6 12.6 0 00-1.4 1.9l-.4.7a1 1 0 000 .1 4.6 4.6 0 01-1.8-.1 7.7 7.7 0 00-1.5-.5l-2-.7a29 29 0 00-8-1.2 1.1 1.1 0 00-1 .3.8.8 0 000 .8 2.2 2.2 0 00.6.6 21.8 21.8 0 012 1.6 3.6 3.6 0 011 2 3.5 3.5 0 01-.6 2.3 17 17 0 01-1.6 1.8 3.3 3.3 0 00-.8 1.1 1.2 1.2 0 00.2 1.3c.5.5 1.3.3 2 0a34.8 34.8 0 007.4-3.6 11.6 11.6 0 001.5-1.1 3.2 3.2 0 012 0 13 13 0 013.3 1.5l.9.5-.4.6-.8.9a13.8 13.8 0 007 4 4.3 4.3 0 002 0c.5-.1.7-1.5 1-2.5a31.3 31.3 0 009.1.4 31 31 0 0017.4-8l-.4-.6zM82.8 231.6a15.8 15.8 0 00.1-14.5l-.3-.7a7.1 7.1 0 00.6-1.9 3.4 3.4 0 00-.9-3c-.6-.6-1.5-.8-2.1-1.5a14.7 14.7 0 01-1-1.8c-1-1.2-2.6-1.7-4-2.1l-3.3-1.3a22.7 22.7 0 00-6.2-1.9 12.3 12.3 0 00-2 0l-.8.1h-.1a4 4 0 01-.8-1.3 7.3 7.3 0 00-.4-1.3l-.5-1.7a26 26 0 00-3.4-6.5c-.1-.2-.3-.4-.6-.5a.7.7 0 00-.6.4 1.7 1.7 0 00-.2.8l-.1 2.1a3.1 3.1 0 01-1 2 3 3 0 01-2 .6 15.1 15.1 0 01-2-.2 2.8 2.8 0 00-1.3 0 1 1 0 00-.7.8c-.2.6.4 1 .9 1.4a30.6 30.6 0 006.5 3.4 9.4 9.4 0 001.6.5 2.9 2.9 0 011 1.4 11.4 11.4 0 01.6 3.2v.9h-1.5a12.3 12.3 0 00.7 7 3.9 3.9 0 00.9 1.4c.4.4 1.5-.2 2.3-.6a27.6 27.6 0 004.6 6.8 27.5 27.5 0 0014.8 8.4v-.6zM186.4 208.7a15.8 15.8 0 00-4.3-13.8l-.6-.6a7.2 7.2 0 000-2 3.5 3.5 0 00-1.8-2.6c-.8-.4-1.7-.4-2.5-.8a17 17 0 01-1.6-1.3c-1.2-1-2.9-.8-4.4-.8l-3.5-.2a23 23 0 00-6.5.1 11.3 11.3 0 00-2 .7l-.6.3h-.1a4.1 4.1 0 01-1.2-1 7.8 7.8 0 00-.8-1l-1-1.6a25.8 25.8 0 00-5.2-5 1 1 0 00-.8-.3.7.7 0 00-.5.6 1.7 1.7 0 00.1.7l.6 2.1a3.2 3.2 0 01-.3 2.1 3 3 0 01-1.7 1.3 16.3 16.3 0 01-2 .4 2.7 2.7 0 00-1.2.4 1.1 1.1 0 00-.5 1c.1.6.8.9 1.4 1a30 30 0 007.2 1.3 8.6 8.6 0 001.6 0 2.8 2.8 0 011.5 1 11.3 11.3 0 011.5 2.9l.4.8-.5.2a9.3 9.3 0 01-1 .2 12.3 12.3 0 003 6.6 3.7 3.7 0 001.3 1c.5.2 1.3-.7 2-1.3a27.2 27.2 0 0023 8.4v-.6zM128 207.6a10.2 10.2 0 00-2.1-9.1l-.4-.4a4.5 4.5 0 00.1-1.3 2.2 2.2 0 00-1-1.7l-1.5-.6a10.7 10.7 0 01-1-1 4.6 4.6 0 00-2.8-.8l-2.2-.2a15 15 0 00-4.2-.3 6.6 6.6 0 00-1.3.4 3.3 3.3 0 00-.4.1h-.1a2.8 2.8 0 01-.7-.7 4.3 4.3 0 00-.5-.7l-.6-1a17.1 17.1 0 00-3-3.5.6.6 0 00-.6-.2.4.4 0 00-.3.3 1.2 1.2 0 000 .5 13.2 13.2 0 01.3 1.4 2 2 0 01-.3 1.3 2 2 0 01-1.2.7 8.8 8.8 0 01-1.3.2 1.8 1.8 0 00-.7.2.7.7 0 00-.4.6c0 .4.4.6.8.8a19.6 19.6 0 004.6 1 6 6 0 001 0 1.9 1.9 0 01.9.8 7.4 7.4 0 01.8 2l.3.5h-.4l-.7.2a8 8 0 001.6 4.4 2.4 2.4 0 00.8.6c.3.2.9-.3 1.3-.7a17.6 17.6 0 004 3.6 17.7 17.7 0 0010.5 3v-.4zM192.9 258.6a10.2 10.2 0 00-4.4-8.3l-.4-.3a5.2 5.2 0 00-.2-1.2 2.2 2.2 0 00-1.4-1.5c-.6-.2-1.2 0-1.7-.2a10.2 10.2 0 01-1.1-.7 4.5 4.5 0 00-3 0l-2.2.3a15.2 15.2 0 00-4 .8 6.9 6.9 0 00-1.3.6l-.3.3h-.1a2.8 2.8 0 01-.9-.5 4.5 4.5 0 00-.6-.7l-.8-.8a16.6 16.6 0 00-3.9-2.6.6.6 0 00-.5 0 .4.4 0 00-.2.4 1 1 0 00.1.4 13.2 13.2 0 01.6 1.3 2 2 0 010 1.4 2 2 0 01-.9 1 9.4 9.4 0 01-1.3.5 1.8 1.8 0 00-.6.4.7.7 0 00-.2.7c0 .3.6.5 1 .5a19.6 19.6 0 004.7 0 6.7 6.7 0 001-.3 1.8 1.8 0 011 .5 7.3 7.3 0 011.3 1.6l.4.5-.3.2-.7.3a8 8 0 002.6 3.8 2.5 2.5 0 001 .5c.3 0 .7-.6 1.1-1a18 18 0 004.7 2.4 17.7 17.7 0 0010.9.3l-.1-.4zM299.6 227.4a10.2 10.2 0 00-7.7-5.3h-.5a4.5 4.5 0 00-.8-1 2.2 2.2 0 00-1.9-.7c-.5.1-1 .5-1.6.6a10 10 0 01-1.3 0 4.6 4.6 0 00-2.6 1.3l-1.8 1.3a14.7 14.7 0 00-3.2 2.6 7.2 7.2 0 00-.8 1.1 3.2 3.2 0 00-.2.4.3.3 0 000 .1 2.8 2.8 0 01-1 0 4 4 0 00-.8-.2l-1.2-.4a16.8 16.8 0 00-4.6-.5.7.7 0 00-.5.2.4.4 0 000 .4 1.2 1.2 0 00.3.4l1.2.8a2 2 0 01.6 1.2 2 2 0 01-.3 1.3 9.7 9.7 0 01-1 1 1.7 1.7 0 00-.3.7.7.7 0 00.1.7c.3.2.8.1 1.1 0a19.4 19.4 0 004.2-2.3 7 7 0 00.8-.6 1.9 1.9 0 011.1-.1 7.3 7.3 0 012 .8l.5.3a3.3 3.3 0 01-.2.3l-.5.5a8 8 0 004.2 2.2 2.6 2.6 0 001 0c.3 0 .4-.9.5-1.5a17.5 17.5 0 0015-4.8l-.3-.3zM251.5 213.3a10.2 10.2 0 00-5.7-7.4l-.5-.2a4.5 4.5 0 00-.4-1.1 2.2 2.2 0 00-1.7-1.2c-.5 0-1.1.2-1.7 0a10 10 0 01-1.2-.4 4.5 4.5 0 00-2.9.5l-2.1.7a15 15 0 00-3.9 1.5 7.1 7.1 0 00-1 .9l-.4.3a2.5 2.5 0 01-1-.3 5.1 5.1 0 00-.7-.5l-1-.6a16.7 16.7 0 00-4.3-2 .6.6 0 00-.5 0 .4.4 0 00-.1.5 1.3 1.3 0 00.2.5 10.3 10.3 0 01.8 1.1 2 2 0 01.3 1.3 2 2 0 01-.8 1.2 9.9 9.9 0 01-1.1.7 2 2 0 00-.6.5.7.7 0 000 .7c.1.4.6.4 1 .4a19.8 19.8 0 004.6-1 6.5 6.5 0 001-.3 1.9 1.9 0 011 .2 7.2 7.2 0 011.6 1.4l.4.4-.2.3-.6.4a8 8 0 003.2 3.3 2.4 2.4 0 001 .3c.4 0 .7-.7 1-1.3a17.5 17.5 0 0015.8-.1l-.2-.4zM98 151.5a10.2 10.2 0 00-.4-9.3l-.2-.5a4.7 4.7 0 00.2-1.2 2.2 2.2 0 00-.6-2c-.4-.3-1-.4-1.4-.8a10.3 10.3 0 01-.8-1.1 4.6 4.6 0 00-2.6-1.3l-2.2-.6a15 15 0 00-4-1 7.6 7.6 0 00-1.3 0h-.5a2.7 2.7 0 01-.6-.7 4.6 4.6 0 00-.3-.8l-.4-1.1a16.7 16.7 0 00-2.4-4 .7.7 0 00-.5-.4.4.4 0 00-.4.3 1 1 0 000 .5 13 13 0 010 1.4 2 2 0 01-.6 1.3 2 2 0 01-1.2.5 8.8 8.8 0 01-1.4 0 1.8 1.8 0 00-.7 0 .7.7 0 00-.5.6c0 .4.3.7.7.9a19.6 19.6 0 004.3 1.9 5.9 5.9 0 001 .2 2 2 0 01.7.9 7.2 7.2 0 01.5 2v.6h-1a7.8 7.8 0 00.8 4.6 2.4 2.4 0 00.6.8c.3.2 1-.2 1.5-.4a17.5 17.5 0 0013 9v-.4zM37.6 187a10.2 10.2 0 00.3-9.3l-.3-.5a5 5 0 00.4-1.2 2.2 2.2 0 00-.5-2c-.4-.4-1-.6-1.3-1a9 9 0 01-.7-1.2 4.6 4.6 0 00-2.6-1.4 23 23 0 01-2-.8 15.2 15.2 0 00-4-1.3 7.6 7.6 0 00-1.4 0H25a2.4 2.4 0 01-.6-.8 4.3 4.3 0 00-.2-.9 21 21 0 00-.3-1.1 16.7 16.7 0 00-2.1-4.2l-.4-.3a.5.5 0 00-.4.3 1.3 1.3 0 00-.1.4 13.2 13.2 0 01-.1 1.4 2 2 0 01-.7 1.3 2 2 0 01-1.2.4 8.9 8.9 0 01-1.4-.2 1.8 1.8 0 00-.8 0 .7.7 0 00-.5.5c0 .4.3.7.6 1a19.9 19.9 0 004.2 2.2 5.8 5.8 0 001 .3 1.8 1.8 0 01.6.9 7.3 7.3 0 01.4 2v.7h-.3l-.7-.1a8 8 0 00.4 4.6 2.5 2.5 0 00.6.9c.3.2 1-.2 1.5-.4a17.7 17.7 0 002.9 4.4 17.8 17.8 0 009.4 5.5l.1-.4zM110.5 179a10.2 10.2 0 00-.4-9.3l-.3-.5a4.7 4.7 0 00.3-1.2 2.2 2.2 0 00-.6-2c-.5-.3-1-.4-1.5-.8a10.3 10.3 0 01-.7-1.1 4.5 4.5 0 00-2.7-1.3l-2-.7a15 15 0 00-4.1-1 7.6 7.6 0 00-1.4 0l-.4.2h-.1a2.6 2.6 0 01-.6-.9 4.8 4.8 0 00-.3-.8 10.6 10.6 0 00-.4-1 16.6 16.6 0 00-2.4-4c-.1-.2-.3-.4-.5-.4a.5.5 0 00-.3.3 1.1 1.1 0 000 .5 13.3 13.3 0 010 1.4 2 2 0 01-.6 1.2 2 2 0 01-1.3.5 8.8 8.8 0 01-1.3 0 2 2 0 00-.8 0 .7.7 0 00-.5.6c0 .4.3.7.7.9a19.8 19.8 0 004.3 2 5.9 5.9 0 001 .2 1.9 1.9 0 01.8.8 7.2 7.2 0 01.5 2v.7h-1a8 8 0 00.7 4.6 2.5 2.5 0 00.7.8c.3.2 1-.2 1.5-.5a17.5 17.5 0 0013 9v-.4zM109.6 219.4a10.2 10.2 0 00-1-9.2c0-.2-.2-.3-.3-.5a4.9 4.9 0 00.3-1.2 2.2 2.2 0 00-.8-1.9c-.5-.3-1-.4-1.5-.8a11.1 11.1 0 01-.8-1 4.5 4.5 0 00-2.7-1.1l-2.2-.5a15 15 0 00-4.1-.8 7.8 7.8 0 00-1.4.2l-.5.1a2.7 2.7 0 01-.7-.8 4.8 4.8 0 00-.3-.8l-.5-1a16.6 16.6 0 00-2.6-3.9.6.6 0 00-.5-.3.4.4 0 00-.4.3 1.4 1.4 0 000 .5 11.1 11.1 0 01.1 1.4 2 2 0 01-.4 1.3 2 2 0 01-1.2.6 10.4 10.4 0 01-1.5 0 1.9 1.9 0 00-.7.1.7.7 0 00-.4.6c0 .4.3.7.7.8a19.5 19.5 0 004.4 1.7 5.9 5.9 0 001 .2 2 2 0 01.8.8 7.8 7.8 0 01.7 2l.1.6h-1a7.9 7.9 0 001 4.5 2.3 2.3 0 00.7.8c.3.2 1-.2 1.4-.5a17.5 17.5 0 0013.6 8.1v-.4zM52.7 240a8.7 8.7 0 00-.8-7.9l-.3-.3a4 4 0 00.2-1.1 2 2 0 00-.6-1.6c-.4-.3-1-.4-1.3-.7a7.8 7.8 0 01-.7-.9 4 4 0 00-2.3-.9l-1.9-.4a12.2 12.2 0 00-3.4-.6 5.5 5.5 0 00-1.2 0l-.4.2a2.2 2.2 0 01-.6-.7 4.6 4.6 0 00-.3-.7 15 15 0 00-.4-.9 14 14 0 00-2.2-3.2.5.5 0 00-.4-.3.3.3 0 00-.3.3 1 1 0 000 .4v1.2a1.7 1.7 0 01-.3 1 1.7 1.7 0 01-1 .6 9 9 0 01-1.2 0 1.5 1.5 0 00-.6 0 .6.6 0 00-.4.6c0 .3.3.5.6.7a16.8 16.8 0 003.8 1.4 4.3 4.3 0 00.8.1 1.6 1.6 0 01.7.7 6 6 0 01.5 1.7l.2.5H38a6.7 6.7 0 00.8 3.9 2.2 2.2 0 00.6.6c.3.2.8-.2 1.3-.5a14.8 14.8 0 002.9 3.4 15 15 0 008.6 3.6v-.4zM277.5 288a8.7 8.7 0 00-6.4-4.7 3.1 3.1 0 00-.4 0 3.9 3.9 0 00-.6-1 1.9 1.9 0 00-1.7-.6l-1.3.5a8.7 8.7 0 01-1.1-.1 3.9 3.9 0 00-2.3 1l-1.6 1a12.5 12.5 0 00-2.8 2.1 5.7 5.7 0 00-.7 1l-.2.3a2.4 2.4 0 01-.9 0 3.8 3.8 0 00-.6-.3l-1-.3a14.3 14.3 0 00-4-.6.6.6 0 00-.4.1.4.4 0 000 .4 1 1 0 00.3.3 11.1 11.1 0 01.9.8 1.7 1.7 0 01.5 1 1.7 1.7 0 01-.3 1 7.9 7.9 0 01-.8 1 1.4 1.4 0 00-.4.4.6.6 0 00.1.6c.2.3.6.2 1 0a16.5 16.5 0 003.6-1.7 4.6 4.6 0 00.7-.5 1.6 1.6 0 011 0 6.2 6.2 0 011.6.8l.4.2-.2.3-.3.4a6.7 6.7 0 003.3 2 2 2 0 001 0c.2 0 .3-.7.4-1.2a15.2 15.2 0 004.5.2 15 15 0 008.5-3.8l-.3-.2zM100.4 110.6a8.6 8.6 0 001.4-7.8l-.2-.4a3.8 3.8 0 00.5-1 1.9 1.9 0 00-.2-1.7l-1-1a8 8 0 01-.4-1 4 4 0 00-2-1.6 18.8 18.8 0 01-1.6-1 12.5 12.5 0 00-3.2-1.5 6.2 6.2 0 00-1.1-.2h-.4a2.2 2.2 0 01-.4-.8 3.4 3.4 0 00-.1-.7l-.1-1a14.3 14.3 0 00-1.3-3.8.6.6 0 00-.3-.3.4.4 0 00-.4.2.9.9 0 00-.1.3 10.9 10.9 0 01-.3 1.2 1.7 1.7 0 01-.6 1 1.6 1.6 0 01-1.2.2 9 9 0 01-1-.3 1.7 1.7 0 00-.8-.2.6.6 0 00-.5.4c0 .3.2.6.4.9a16.7 16.7 0 003.2 2.4 3.8 3.8 0 00.8.3 1.7 1.7 0 01.5.9 6.7 6.7 0 010 1.8v.5h-.3l-.6-.2a6.8 6.8 0 00-.2 4 2 2 0 00.3.8c.3.2.9 0 1.4-.1a14.8 14.8 0 009 9.8l.2-.3zM15.3 92a8.7 8.7 0 001.3-7.9l-.1-.4a3.9 3.9 0 00.5-1 1.9 1.9 0 00-.2-1.7c-.3-.4-.8-.6-1-1a7.6 7.6 0 01-.4-1 4 4 0 00-2-1.6l-1.7-1A12.9 12.9 0 008.6 75a7.2 7.2 0 00-1.2-.2H7a2.1 2.1 0 01-.4-.8 4.3 4.3 0 000-.8l-.2-1a13.7 13.7 0 00-1.2-3.7l-.3-.4a.4.4 0 00-.4.2 1 1 0 00-.2.4 11.6 11.6 0 01-.2 1.2 1.8 1.8 0 01-.7 1 1.7 1.7 0 01-1.1.1 7.4 7.4 0 01-1.1-.3 1.6 1.6 0 00-.7 0 .6.6 0 00-.5.3c0 .3.2.6.4.9a16.7 16.7 0 003.2 2.4 5.7 5.7 0 00.8.4 1.6 1.6 0 01.5.8 6.4 6.4 0 010 1.8v.5h-.3l-.6-.1a6.6 6.6 0 00-.2 3.9 2 2 0 00.4.8c.2.2.8 0 1.3-.1a15.1 15.1 0 001.8 4 15 15 0 007.3 5.8l.2-.3zM53.6 100.7a10.2 10.2 0 003.2-8.8v-.5a4.3 4.3 0 00.7-1 2.2 2.2 0 00.1-2c-.2-.5-.7-.8-1-1.4a9.6 9.6 0 01-.2-1.3 4.6 4.6 0 00-2-2.2l-1.7-1.4a14.7 14.7 0 00-3.4-2.5 7.5 7.5 0 00-1.2-.4l-.5-.2a2.5 2.5 0 01-.3-1 4.3 4.3 0 000-.9V76a16.7 16.7 0 00-.6-4.7.7.7 0 00-.3-.4.5.5 0 00-.4 0 1.1 1.1 0 00-.3.5l-.5 1.3a2 2 0 01-1 1 2 2 0 01-1.3 0 9.4 9.4 0 01-1.3-.6 1.9 1.9 0 00-.7-.2.7.7 0 00-.7.3c-.1.3 0 .8.3 1a19.9 19.9 0 003.2 3.5 6.2 6.2 0 00.9.6 1.8 1.8 0 01.3 1.1 7.5 7.5 0 01-.3 2v.6h-.4a7 7 0 01-.7-.4 7.8 7.8 0 00-1 4.6 2.3 2.3 0 00.2 1c.2.3 1 .1 1.5.1a18.1 18.1 0 001.3 5.1 17.7 17.7 0 007.2 8.3l.2-.4zM30.8 157.2a10.2 10.2 0 001.6-9.2l-.2-.5a5 5 0 00.6-1.1 2.2 2.2 0 00-.3-2c-.3-.5-.9-.7-1.2-1.2a9.8 9.8 0 01-.5-1.3 4.6 4.6 0 00-2.3-1.7l-2-1.1a14.8 14.8 0 00-3.7-1.9 6.7 6.7 0 00-1.3-.2H21a2.6 2.6 0 01-.4-.9 6 6 0 00-.1-.9l-.2-1.1a16.4 16.4 0 00-1.5-4.5c0-.1-.2-.3-.4-.3a.4.4 0 00-.4.1 1.2 1.2 0 00-.2.5 13.4 13.4 0 01-.2 1.4 2 2 0 01-.8 1 2 2 0 01-1.4.3 12.2 12.2 0 01-1.3-.3 1.8 1.8 0 00-.7-.1.7.7 0 00-.6.4c-.2.4.1.7.4 1a19.6 19.6 0 003.8 2.8 5.7 5.7 0 001 .4 1.9 1.9 0 01.5 1 8 8 0 010 2.2v.6l-.3-.1-.7-.2a7.9 7.9 0 00-.3 4.7 2.5 2.5 0 00.5 1c.2.2 1 0 1.5-.2a17.8 17.8 0 002.2 4.8 17.7 17.7 0 008.6 6.8l.1-.4z"/><path fill="#185a40" d="M267.6 414a17.9 17.9 0 00-13.1-9.7l-1-.2a8.2 8.2 0 00-1.2-1.8 3.9 3.9 0 00-3.4-1.2c-1 .2-1.8.8-2.8 1a16.7 16.7 0 01-2.3-.3c-1.7 0-3.2 1.2-4.6 2.3l-3.3 2.1a25.7 25.7 0 00-5.8 4.4 13 13 0 00-1.4 2l-.4.6a.6.6 0 000 .2 4.6 4.6 0 01-1.8-.1 9.5 9.5 0 00-1.4-.6l-2-.6a29.4 29.4 0 00-8.1-1.2 1.1 1.1 0 00-1 .2.8.8 0 000 .9 2 2 0 00.7.6 21.8 21.8 0 011.9 1.5 3.5 3.5 0 011.1 2.2 3.5 3.5 0 01-.7 2.2 17.9 17.9 0 01-1.6 1.8 3.3 3.3 0 00-.8 1.1 1.3 1.3 0 00.2 1.3c.5.4 1.3.3 2 0a34.8 34.8 0 007.4-3.7 10.3 10.3 0 001.5-1 3.2 3.2 0 012-.1 13.1 13.1 0 013.3 1.6l1 .5a22.8 22.8 0 01-1.2 1.5 14 14 0 007 4 4.1 4.1 0 001.8 0c.7-.2.8-1.5 1-2.5a30.6 30.6 0 0026.7-7.7l-.5-.5z"/><path fill="#29956b" d="M621.5 531l-3-2c-1-.6-2.1-1.4-2.3-2.6a4.3 4.3 0 011-2.8c1-1.2 1.7-2.5 2.6-3.8.7-1 .5-1.4-.7-.9a17 17 0 00-4.3 3l-3.5 3.2c-1-.2-2.3 0-3.2-.2a86 86 0 00-11-1l.4-.3.6-.4a46.2 46.2 0 01-8.6-2.8 29.4 29.4 0 00-1.8 3.8 65.5 65.5 0 00-9.9 1.7c-3.3.9-6.9 2.1-8.7 5l1.2 1.3-1.6.2a32 32 0 0022.1 4.4h.2a32 32 0 005.2 2.5 2 2 0 00-.6-2 3.3 3.3 0 00-1.6-1h-.2a44.5 44.5 0 007.8-2.3l.6-.3 2 .7a8.4 8.4 0 015-3.3l-.5-.8a9.7 9.7 0 012.1-1.1l.4-.1a8.7 8.7 0 001.3.7 44 44 0 008.2 3 2.3 2.3 0 00.9 0 .8.8 0 00.7-.5c.1-.5-.4-1-.8-1.3zM412.7 660.8l3.4-1.2c1.1-.4 2.4-1 2.8-2a4.3 4.3 0 00-.4-3c-.6-1.4-1-2.9-1.7-4.3-.5-1 0-1.5 1-.7a17.3 17.3 0 013.5 3.9l2.7 3.9c1 0 2.2.4 3.1.5a86.7 86.7 0 0111 1.4l-.4-.3-.4-.5a46.7 46.7 0 009-.8 29.6 29.6 0 011 4 64.3 64.3 0 019.1 4c3 1.6 6.3 3.6 7.4 6.8l-1.5 1 1.6.5c-7.2 2.8-15.3 2-22.6-.6h-.2a32.3 32.3 0 01-5.6 1.2 2 2 0 011-1.9 3.3 3.3 0 011.8-.5h.2a43.4 43.4 0 01-7-4l-.5-.5-2.2.3a8.5 8.5 0 00-4-4.4l.6-.7a10.2 10.2 0 00-1.8-1.5l-.4-.2a7.6 7.6 0 01-1.4.4 43.4 43.4 0 01-8.6 1 2.5 2.5 0 01-1-.1.9.9 0 01-.5-.7c0-.5.5-.8 1-1zM273.9 488.9a3.1 3.1 0 11-3.1-3.1 3.1 3.1 0 013 3zM287.8 460a1.8 1.8 0 11-1.7-1.8 1.8 1.8 0 011.7 1.8z"/><circle cx="260.8" cy="466.9" r="2" fill="#29956b"/><path fill="#29956b" d="M247.6 362.5a3.4 3.4 0 11-3.4-3.4 3.4 3.4 0 013.4 3.4z"/><circle cx="256.1" cy="357.3" r="1.8" fill="#29956b"/><path fill="#29956b" d="M247.6 341.3a1.7 1.7 0 11-1.7-1.7 1.7 1.7 0 011.7 1.7zM331.6 262.9a3 3 0 11-3-3 3 3 0 013 3z"/><circle cx="308.2" cy="257.1" r="1.5" fill="#29956b"/><path fill="#29956b" d="M183.6 326.4a4.2 4.2 0 11-4.2-4.2 4.2 4.2 0 014.2 4.2z"/><circle cx="169" cy="314.2" r="1.3" fill="#29956b"/><path fill="#29956b" d="M190.3 285.8a1.8 1.8 0 11-1.8-1.8 1.8 1.8 0 011.8 1.8zM95.2 259.3a2.2 2.2 0 11-2.2-2.2 2.2 2.2 0 012.2 2.2z"/><circle cx="103.3" cy="267.4" r="1.5" fill="#29956b"/><circle cx="137.6" cy="217.9" r="1.9" fill="#29956b"/><path fill="#29956b" d="M135.6 157.9a3.6 3.6 0 11-3.6-3.7 3.6 3.6 0 013.6 3.7zM146.9 161.7a2.7 2.7 0 11-2.8-2.7 2.7 2.7 0 012.8 2.7z"/><circle cx="138.8" cy="172.8" r="1.3" fill="#29956b"/><path fill="#29956b" d="M215.4 438.8a3.8 3.8 0 11-3.8-3.8 3.8 3.8 0 013.8 3.8zM221.9 449.3a.9.9 0 11-1-.9.9.9 0 011 1zM223.2 519.8a2.9 2.9 0 11-2.9-3 2.9 2.9 0 012.9 3zM220 536a2.3 2.3 0 11-2.3-2.3 2.3 2.3 0 012.4 2.3z"/><circle cx="196.3" cy="724.7" r="4.7" fill="#29956b"/><circle cx="211.2" cy="742.3" r="1.8" fill="#29956b"/><path fill="#29956b" d="M229.7 746.3a2.2 2.2 0 11-2.1-2.2 2.1 2.1 0 012.1 2.2z"/><circle cx="217.8" cy="770.4" r="3.3" fill="#29956b"/><circle cx="249.6" cy="781.6" r="4.7" fill="#29956b"/><path fill="#29956b" d="M329.6 634a2.9 2.9 0 11-2.8-2.9 2.9 2.9 0 012.8 2.9zM312.8 620.7a1.6 1.6 0 11-1.5-1.6 1.6 1.6 0 011.5 1.6zM320.5 620.2a2.5 2.5 0 11-2.6-2.5 2.5 2.5 0 012.6 2.5zM419.8 513.9a3.4 3.4 0 11-3.4-3.5 3.4 3.4 0 013.4 3.5z"/><circle cx="428.2" cy="508.1" r="2.3" fill="#29956b"/><path fill="#29956b" d="M419.5 501.6a1.6 1.6 0 11-1.5-1.6 1.6 1.6 0 011.5 1.6z"/><circle cx="585.4" cy="454.2" r="4" fill="#29956b"/><path fill="#29956b" d="M574.3 450.4a1.1 1.1 0 11-1.1-1 1.1 1.1 0 011.1 1z"/><circle cx="583.4" cy="440.8" r="2" fill="#29956b"/><circle cx="588.2" cy="432.2" r="2.8" fill="#29956b"/><circle cx="605.9" cy="481.8" r="4" fill="#29956b"/><circle cx="597.7" cy="553.6" r="2.2" fill="#29956b"/><circle cx="545.4" cy="620.3" r="2.7" fill="#29956b"/><path fill="#29956b" d="M548 606.6a2.7 2.7 0 11-2.2-3 2.7 2.7 0 012.3 3z"/><circle cx="555.7" cy="615.2" r="2.8" fill="#29956b"/><circle cx="508.2" cy="646.8" r="2.4" fill="#29956b"/><circle cx="512.6" cy="625.1" r="2.1" fill="#29956b"/><path fill="#29956b" d="M521.4 634zM498.8 690.4a2.2 2.2 0 11-2.3-2.2 2.2 2.2 0 012.3 2.2z"/><circle cx="668.3" cy="353.6" r="2" fill="#29956b"/><path fill="#29956b" d="M650.8 350.4a1.6 1.6 0 11-1.6-1.5 1.6 1.6 0 011.5 1.5zM663.4 362.5a3.4 3.4 0 11-3.5-3.4 3.4 3.4 0 013.5 3.4zM687.1 278a3.7 3.7 0 11-3.7-3.7 3.7 3.7 0 013.7 3.7z"/><circle cx="671.6" cy="285.3" r="1.3" fill="#29956b"/><path fill="#29956b" d="M729.7 213.5a2.9 2.9 0 11-2.9-2.9 2.9 2.9 0 013 3z"/><circle cx="728" cy="161.3" r="4" fill="#29956b"/><path fill="#29956b" d="M711.2 161a2.4 2.4 0 11-2.4-2.4 2.4 2.4 0 012.4 2.4zM724.3 176.3a2.5 2.5 0 11-2.5-2.5 2.5 2.5 0 012.5 2.5z"/><circle cx="625.9" cy="286.2" r="4.5" fill="#29956b"/><circle cx="635" cy="298" r="2" fill="#29956b"/><circle cx="623.8" cy="310" r="2.4" fill="#29956b"/><path fill="#29956b" d="M539 225.7a2.6 2.6 0 11-2.6-2.6 2.5 2.5 0 012.6 2.6zM566.9 228a2.3 2.3 0 11-2.3-2.3 2.3 2.3 0 012.3 2.3zM552.5 232.4a2.2 2.2 0 11-2.2-2.2 2.2 2.2 0 012.2 2.2z"/><circle cx="454.5" cy="188.6" r="2" fill="#29956b"/><path fill="#29956b" d="M462 202.5a1.6 1.6 0 11-1.7-1.6 1.6 1.6 0 011.6 1.6zM449.9 206.7a2.7 2.7 0 11-2.7-2.6 2.7 2.7 0 012.7 2.6zM440 289.4a1.8 1.8 0 11-1.7-1.8 1.8 1.8 0 011.8 1.8z"/><circle cx="451.9" cy="298" r="2" fill="#29956b"/><path fill="#29956b" d="M436.5 303a3 3 0 11-3-3 3 3 0 013 3z"/><circle cx="444.7" cy="311.9" r="1.9" fill="#29956b"/><circle cx="206.5" cy="564.2" r="2.9" fill="#b2dcce"/><circle cx="217.7" cy="571.3" r="2.3" fill="#b2dcce"/><path fill="#b2dcce" d="M214.5 578.9a1.5 1.5 0 01-3 0 1.5 1.5 0 113 0zM268.5 656.7a2.9 2.9 0 11-2.9-3 2.9 2.9 0 013 3z"/><circle cx="249.6" cy="671.8" r="2" fill="#b2dcce"/><path fill="#b2dcce" d="M265.6 679.2a1.4 1.4 0 11-1.4-1.4 1.4 1.4 0 011.4 1.4zM270.8 688.2a1.6 1.6 0 11-3.2 0 1.6 1.6 0 013.2 0zM602.1 642.2a2.2 2.2 0 11-2.2-2.2 2.2 2.2 0 012.2 2.2z"/><circle cx="603.9" cy="658.7" r="2" fill="#b2dcce"/><path fill="#b2dcce" d="M614.5 651.5a2.3 2.3 0 11-2.3-2.3 2.3 2.3 0 012.3 2.3z"/><circle cx="528.8" cy="711.6" r="3.3" fill="#b2dcce"/><circle cx="541.1" cy="722.3" r="2.3" fill="#b2dcce"/><circle cx="527.8" cy="722.3" r="2.3" fill="#b2dcce"/><circle cx="545.8" cy="663" r="2.3" fill="#b2dcce"/><path fill="#5cb496" d="M479.6 593l.7-.8a2.4 2.4 0 00.4-.5c.4-.7-.4-.7-.7-1a12.8 12.8 0 012.3.3 5 5 0 002 .3 6.6 6.6 0 001.3-.1 5.4 5.4 0 01.6-.2l.3-.1c-.2-.2-.6-.1-.8-.1a2.7 2.7 0 01-1-.4 2.3 2.3 0 01-.8-1.9 7 7 0 01.2-2 3.4 3.4 0 01.5-.8 3.3 3.3 0 01.9-.9 3.5 3.5 0 00-1.5.4 5.3 5.3 0 00-1.1.6 12 12 0 01-1 .8c-.8.5-1.3 1.2-2 1.7a3.2 3.2 0 00-.5.4 1.1 1.1 0 01-.8.2 2.6 2.6 0 00.4-.2l.1-.2.1-.3c.1-.2 0-.3-.2-.5a.8.8 0 00-.6-.4 2.3 2.3 0 00-1 0h-1.3a5.4 5.4 0 01-1.2 0 5.2 5.2 0 00-1.2.1h-1.3a10.8 10.8 0 00-2 .4 14.6 14.6 0 00-2.6 1.1 5.4 5.4 0 00-1.5 1.2l-1 1.5a3 3 0 00-.5.8 4.8 4.8 0 000 1.5v1.6a1.1 1.1 0 00.1.4c-.3.1 0 1 .3.8.1.6.5.4 1 .4H467.4a5.6 5.6 0 01.8 0h.9a12.5 12.5 0 001.7-.2 31 31 0 004-1.1 19.8 19.8 0 002.1-.9 7.4 7.4 0 001.8-1zM492.5 573.9l.3-.7a2.7 2.7 0 00.3-.5c.2-.6-.4-.5-.8-.7a10.9 10.9 0 012-.2 4.5 4.5 0 001.7 0 7.5 7.5 0 001-.4 4.8 4.8 0 01.4-.3.7.7 0 00.3-.1h-.7a2.3 2.3 0 01-.8-.1 1.9 1.9 0 01-1-1.4 5.7 5.7 0 01-.2-1.6 3 3 0 01.2-.9 2.9 2.9 0 01.6-.8 3 3 0 00-1.2.6 4.2 4.2 0 00-.7.7 10 10 0 01-.7.8L492 570a3 3 0 00-.3.4.9.9 0 01-.6.3l.2-.2v-.2a1.5 1.5 0 00.1-.2c0-.2-.1-.3-.3-.4a.8.8 0 00-.5-.2 2 2 0 00-.8.2c-.4.1-.8 0-1.1.2a4 4 0 01-1 .2 5 5 0 00-1 .3l-1 .3a8.7 8.7 0 00-1.6.7 11.8 11.8 0 00-1.9 1.3 4.2 4.2 0 00-1 1.2 13.8 13.8 0 00-.5 1.4 2.6 2.6 0 00-.3.8 4 4 0 00.3 1.2l.1.7.2.6a1.1 1.1 0 00.2.3c-.3.2 0 .8.3.6.2.5.5.2.9.1h.5l.4-.1a3.9 3.9 0 01.7-.1l.7-.2a11.7 11.7 0 001.4-.5 26.9 26.9 0 003-1.6 15 15 0 001.5-1 6.1 6.1 0 001.3-1.3l.7-1zM501.1 600.9l.4-.7a1.8 1.8 0 00.3-.5c.2-.6-.5-.5-.8-.7a11 11 0 012-.2 4.3 4.3 0 001.6-.1 5.6 5.6 0 001-.4 4.4 4.4 0 01.4-.2l.3-.1h-.7a2 2 0 01-.8-.2 1.9 1.9 0 01-1-1.3 6.5 6.5 0 01-.2-1.6 2.7 2.7 0 01.2-.9 2.6 2.6 0 01.6-.8 3 3 0 00-1.1.6 3.6 3.6 0 00-.8.7l-.7.8-1.3 1.7a2.1 2.1 0 00-.3.4 1 1 0 01-.6.3l.2-.2a1.2 1.2 0 000-.2l.1-.2-.3-.4a.7.7 0 00-.5-.2 2 2 0 00-.8.2c-.4.1-.8 0-1.1.2a4 4 0 01-1 .2 4.8 4.8 0 00-1 .3l-1 .3a7.8 7.8 0 00-1.6.7 11.3 11.3 0 00-1.9 1.3 4.3 4.3 0 00-1 1.2l-.5 1.4a2.6 2.6 0 00-.3.8 4.1 4.1 0 00.3 1.2l.1.7.2.6a1 1 0 00.2.3c-.3.2 0 .8.3.6.2.5.5.2.9.1a.7.7 0 00.2 0 .5.5 0 01.3 0l.4-.1a3.6 3.6 0 01.7-.1l.7-.2a8.2 8.2 0 001.4-.5 24.8 24.8 0 003-1.6 14.5 14.5 0 001.6-1.1 5.6 5.6 0 001.3-1.2l.6-1zM509.6 569.7l.1-.3a1.6 1.6 0 00.2-.2c0-.3-.2-.2-.4-.3a5 5 0 01.9-.1 2 2 0 00.7 0 3.9 3.9 0 00.5-.2l.2-.1a.3.3 0 00.1-.1h-.3a1.3 1.3 0 01-.3 0 .8.8 0 01-.5-.6 2.9 2.9 0 01-.2-.8 1.5 1.5 0 01.2-.4 1.5 1.5 0 01.2-.4 1.3 1.3 0 00-.5.3 1.7 1.7 0 00-.3.3l-.4.4c-.2.1-.3.5-.6.8a1.2 1.2 0 00-.1.2.5.5 0 01-.3.1l.1-.1c0-.1 0 0 0 0v-.2-.2a.4.4 0 00-.3 0 1 1 0 00-.4 0l-.5.1a3.6 3.6 0 01-.4.1 1.8 1.8 0 00-.5.2l-.5.1a3.8 3.8 0 00-.7.3 5.4 5.4 0 00-.8.6 2 2 0 00-.5.6l-.3.6a.9.9 0 000 .4 1.7 1.7 0 000 .5l.1.3.1.3a.7.7 0 000 .1c0 .1 0 .4.2.3.1.2.3.1.4 0h.1a.2.2 0 01.2 0h.2a1.6 1.6 0 01.3 0l.3-.1a4.6 4.6 0 00.6-.2 11.6 11.6 0 001.4-.8 8 8 0 00.7-.5 2.7 2.7 0 00.6-.5l.4-.5z"/><path fill="none" d="M91.6 0h640v960h-640z"/></g></svg>