<svg xmlns="http://www.w3.org/2000/svg" viewBox="0 0 36 36"><path fill="#004a9d" d="M14.9 9.6c2.5-.9 5.4-.7 7.7.7 2.1 1.3 3.8 3.5 4.2 5.6h-2.1c-.6-1.9-2.8-4.1-4.6-4.6-2.3-.5-4.2-.1-5.9 1-1.2.8-2.3 2.3-2.7 3.7-.6 1.8-.1 4.4.9 5.9.8 1.2 2.3 2.3 3.6 2.7 1.3.4 3.5 0 4.9-.4 1.9-.7 3.2-2.4 3.8-4.3h-2.6c-.1.9-.3 1.2-.8 2.2h-7.1v-8.3h7.1c.9 1.1 1 2.8 1 4.2h4.6c0 2.7-1.2 5.4-3.3 7-1.6 1.2-3.5 2-5.5 2-2.8 0-5.6-1.3-7.2-3.5-1.1-1.4-1.6-3.1-1.9-4.8-.1-1 0-1.6 0-1.6.2-1.2.5-2.4 1.1-3.4 1.1-1.9 2.8-3.4 4.8-4.1m1.4 6.1v4.7h3.4c.8-.9.7-1.5 0-2.3.8-.8.8-1.7 0-2.4h-3.4"/></svg>