<svg xmlns="http://www.w3.org/2000/svg"
    viewBox="0 0 36 36">
    <path
        d="M27 18.5c-2-.3-4.1-.7-6.1-1-1.1-.2-2.2-.4-3.3-.4-1 0-1.9.2-2.6.9-.2.2-.6.4-.5.8s.5.3.8.4c.8.1 1.7.2 2.5.2 3 .2 6 .4 9.1.6.6 0 .4.5.3.7-.3.8-.6 1.6-1.1 2.4-3.4 4.9-10.6 4.6-13.6-.6-.2-.3-.4-.7-.5-1.1h2.8c.3 0 .4.2.5.4 1.2 1.5 2.6 2.6 4.5 2.9 2.7.5 5.5-1 6.4-3.5.2-.4.2-.5-.4-.5-4.3 0-8.7-.1-13-.1-.8 0-1.6-.1-2.4-.1-.6 0-1.1-.2-1.5-.7v-.3c1.2-1.7 3-2.6 4.8-3.4.8-.4 1.6-.6 2.5-.6 1.4-.1 2.4.2 3.2.4 4.1 1.2 7.7 2.7 7.7 2.7s0-.1-.1-.1z"
        fill="#1b2a87" />
    <path
        d="M26.7 15.5c-.7-1.5-1.8-2.8-3.4-3.5-2.8-1.1-6.1-.2-7.9 2.2-.1.1-.1.3-.3.3-1.1.3-2.3.5-3.4.8.2-.7.9-2.4 2.5-3.7 2.3-1.9 4.9-1.9 5.5-1.9l1.5.3c.7.2 2.3.7 3.7 2.1 1.3 1.2 1.8 2.5 2.1 3.2 0 0 0 .1-.3.2z"
        fill="#a70000" />
</svg>