<svg xmlns="http://www.w3.org/2000/svg"
    viewBox="0 0 36 36">
    <path
        fill="#cb0000"
        d="M27.1 12.2v4.7c-.7.4-1.5.3-2.2.1-.4-.1-.4-.5-.4-.8v-2.6c0-1.4-.7-2.1-2-2.1h-8.9c-1.4 0-2 .7-2 2.1v10.1c0 .8 0 .9.9.9h11.2c.8 0 .9 0 .9-.9v-2.9c0-.7.2-1 1-.9.5 0 1.1-.2 1.6.2 0 2.3.1 4.7 0 7-.1.1-.2 0-.3 0H9.2c-.2-.1-.1-.3-.1-.5V12.8c0-1.5.5-2.7 1.8-3.5.7-.4 1.4-.5 2.1-.5h10.5c1.4 0 2.6.5 3.4 1.7.1.6.1 1.2.2 1.7z" />
    <path
        fill="#cb0000"
        d="M8.9 27.2v-.1H27c.1 0 .1.1 0 .1H8.9zm4-8.5V15c0-1.4.8-2.1 2.1-2.1h6c1.4 0 2.2.7 2.2 2.1v7.7c0 .4-.1.5-.5.5-.6-.1-1.4.3-1.8-.1-.4-.4-.1-1.2-.1-1.8V16c0-.5-.2-.7-.7-.7h-4.2c-.6 0-.7.2-.7.7v6.3c0 .9 0 .9-.9.9h-1c-.4 0-.5-.1-.5-.5.1-1.3.1-2.7.1-4z" />
    <path
        fill="#cb0000"
        d="M16.9 20v-2.7c0-.3.1-.4.4-.4h1.5c.3 0 .5.1.5.5v5.4c0 .3-.1.4-.4.4h-1.5c-.3 0-.4-.1-.4-.4-.1-1-.1-1.9-.1-2.8z" />
</svg>