<svg xmlns="http://www.w3.org/2000/svg" viewBox="0 0 36 36"><path fill="#ef1616" d="M27.2 13c-.2.1-.3.1-.5.1-2.2.3-4.3.8-6.3 1.8-1.3.6-2.5 1.4-3.3 2.7-.5.8-.8 1.7-.8 2.7 0 .6.3.9.8 1.2.7.5 1.6.7 2.4 1 1.6.4 3.3.5 4.9.7.3 0 .6.1.9.1-1.5.1-3 0-4.5 0-1.9 0-3.7.1-5.6-.1-1-.1-2-.2-3-.6-.2-.1-.4-.2-.5-.3-.5-.3-.6-.7-.4-1.2.4-1.3 1.3-2.3 2.3-3.2 1.8-1.6 3.9-2.7 6.2-3.6 1.6-.6 3.3-1.1 5-1.3.7-.1 1.4-.1 2.1 0 .2-.1.3-.1.3 0z"/><path fill="#ef1616" d="M20.3 13.7c-1.3.4-2.5.9-3.7 1.5-2.1 1.1-4.1 2.4-5.7 4.2-.4.4-.7.8-.9 1.3-.3.7-.5 1.3 0 2 0 0 .1.1 0 .1h-.1c-.6-.1-1-.6-1.1-1.2 0-.6.2-1.2.6-1.8.7-1 1.6-1.8 2.6-2.5 2.3-1.7 4.8-2.9 7.5-3.5.2-.1.5-.2.8-.1z"/></svg>