<svg xmlns="http://www.w3.org/2000/svg"
    viewBox="0 0 36 36">
    <path
        d="M13.4 17.6c-.5.4-.7.9-.7.9-.1.2-.2.5-.2.8 0 .4.1.8.5 1 .2.1.4.2.6.2-1.1 0-2.3 0-3.4-.2-.4-.1-.7-.2-1-.4-.2-.2-.3-.4-.4-.5-.3-.9 1.6-3.3 4.1-3.7 1.5-.2 3 .3 3.4.4.3.1.5.2.7.3-1.7.1-3 .6-3.6 1.2z"
        fill="#0066b4" />
    <path
        d="M27.2 20h-.7c-.2 0-.4-.1-.7-.1-2.5-.3-5-1-7.5-1.6-1-.2-2-.4-3-.4-.2 0-.4 0-.7.1.5-.2 1-.3 1.5-.3.7-.1 1.5-.1 2.4 0 1 .1 1.8.2 2.5.3 5 1.5 6.2 1.9 6.2 2z"
        fill="#79bce8" />
    <path
        d="M17.4 16.5c.6.1 1 .3 1.3.5.6.3 1.2.5 1.8.8 0 0 .1 0 .1.1-.3 0-.6-.1-.9-.1-1.5-.2-3-.3-4.5-.1-.9.1-1.6.4-2.3 1.1-.2.2-.4.4-.5.7 0-.1 0-.3.1-.5 0 0 .1-.4.3-.7.2-.3 1-1.1 2.2-1.5.5-.2 1.3-.5 2.4-.3z"
        fill="#0483cb" />
</svg>