<svg xmlns="http://www.w3.org/2000/svg"
    viewBox="0 0 36 36">
    <path
        d="M15.5 15zm.4 0h-.1.1zm-.2 0h-.1.1zm3.5.5c.7.1 1.3.2 2 .3.1 0 .3.1.4.1h-.1c-.3 0-.7-.1-1-.1-1-.1-1.8-.1-2-.1-1.6 0-5.1.7-5.9 2.8 0 .1 0 .1-.1.1 1.5-.6 2.9-1 3.9-1.3.3-.1 1.2-.3 2.4-.5s2.6-.4 4.4-.4c1.7 0 2.9.3 3.4.4.3.1.5.1.6.1h-1.1c-.7 0-1.3 0-2 .1l-2.1.3c-1.8.3-3.2.7-4.2 1-2.7.9-4.1 1.3-5.2 1.9 0 0-.6.3-1.9.7-.3.1-.6.1-1 .1-.1 0-.2 0-.3-.1-.4-.1-.5-.4-.5-.8 0-.2.1-.4.2-.6.6-1 1.4-1.8 2.3-2.6l1.5-1.2c.5-.3 1.1-.6 1.8-.8.3-.1.6-.1.8-.1 1.2.2 2.5.5 3.7.7zm2.4.4z"
        fill="#e40000" />
</svg>