<svg xmlns="http://www.w3.org/2000/svg" viewBox="0 0 36 36"><path fill="#2b70b8" d="M17.2 17.7l-.6.9c0 .1-.1.1-.1.1h-5.3c-.2 0-.4 0-.6.2-.1.1-.2.2-.2.3 0 .1.2.1.3.1h3v.1c-.1.2-.3.5-.4.7 0 .1-.1.1-.1.1h-3.1c-.3 0-.6-.1-.9-.2-.2-.1-.3-.3-.3-.5-.1-.3 0-.6.2-.9.3-.4.6-.7.9-1.1.3-.4.7-.8 1-1.2.3-.4.7-.6 1.1-.7.4-.1.7-.1 1.1-.1h14v.1c-.2.3-.3.5-.5.8 0 .1-.1.1-.1.1H13.7c-.5 0-.9.1-1.4.3-.2.1-.4.3-.6.5l-.3.3h5.7s.1 0 0 .1c.1-.1.1 0 .1 0z"/><path fill="#2b70b8" d="M10.1 16.9c.1-.3.2-.6.4-.9.1-.2.3-.4.4-.6.2-.2.3-.4.6-.6.6-.6 1.4-1 2.2-1.4 1.1-.4 2.2-.6 3.3-.7h1.6c.9.1 1.8.3 2.7.6.8.3 1.6.8 2.3 1.3.2.2.5.4.7.6v.1h-2.8c-.9-.6-1.8-1.1-2.8-1.3-.3-.1-.6-.2-1-.2s-.7 0-1.1.1c-1 .2-1.9.5-2.7 1.1l-.1.1c-.1.2-.3.2-.5.2-.4 0-.9 0-1.3.1-.5.2-1 .4-1.4.9-.1.1-.2.3-.5.6.1-.1.1 0 0 0zm16 .8c-.2.3-.3.7-.5 1 0 .1-.1.1-.1.1h-7.7c.1-.2.2-.3.3-.4.2-.3.3-.5.5-.8 0-.1.1-.1.1-.1h7.5c0 .1-.1.1-.1.2zm-15.4 2.7c.1 0 .1 0 0 0h2.5c.7.8 1.6 1.2 2.5 1.5.6.2 1.1.3 1.7.3.3 0 .6 0 .9-.1 1-.2 1.9-.5 2.7-1 .3-.2.6-.5.9-.8l.1-.1h-7.5c-.1 0-.1 0-.1-.1.1-.2.3-.5.4-.7.1-.1.2-.2.3-.2h9.7c.1 0 .1 0 .1.1-.3.7-.7 1.4-1.3 1.9-.9.8-1.9 1.3-3 1.6-.9.2-1.7.4-2.6.4h-1.7c-1.7-.1-3.3-.6-4.7-1.7-.2-.2-.4-.3-.6-.5.1-.2-.1-.4-.3-.6z"/></svg>