<svg xmlns="http://www.w3.org/2000/svg"
    viewBox="0 0 36 36">
    <path
        d="M20.8 23.5v-1.9c0-.5-.2-.7-.7-.7H18c-1.2 0-2.2-.8-2.6-1.8-.1-.1 0-.2.1-.2h6.2c.4 0 .6-.2.6-.6v-.1c.1-2.7-2.2-4.7-4.8-4.5-.3 0-.4-.1-.4-.4v-3c0-.3 0-.3-.2-.2-2.4.4-4.3 1.6-5.7 3.6-1.9 2.9-1.7 6.6.5 9.3 1.3 1.7 3.1 2.6 5.2 2.9.2 0 .2 0 .2-.2v-1.5c0-.1 0-.2-.2-.2-.5-.1-1.1-.2-1.6-.5-2-1-3.2-2.6-3.5-4.9-.3-2.2.5-4 2.2-5.5.4-.3.7-.6 1.2-.8v2c0 .5.2.7.7.7h2c1.1 0 2 .6 2.5 1.5.1.2.1.2-.1.2h-6.2c-.4 0-.6.2-.6.5-.1.8 0 1.5.3 2.2.8 1.9 2.6 2.9 4.7 2.7.3 0 .4.1.4.4v3.1c0 .1 0 .2.2.2.7-.1 1.4-.3 2.1-.6 2.5-1.2 4.1-3.1 4.6-5.8.5-2.2 0-4.3-1.3-6.1-1.3-1.9-3.2-3-5.4-3.4-.1 0-.2 0-.1.1v1.6c0 .1 0 .1.1.1.5.1.9.2 1.4.4 2.1 1 3.3 2.6 3.6 4.9.3 2.3-.6 4.2-2.4 5.6-.2.5-.5.7-.9.9z"
        fill="#e90202" />
    <path
        d="M8.8 8.8zm0 18.4zm18.4 0z"
        fill="#e90202" />
</svg>