<svg xmlns="http://www.w3.org/2000/svg" viewBox="0 0 36 36"><path fill="#0058bb" d="M13.8 9.6c3.9-2.1 8-.1 8.4.1.1 0 .2.1.4.2 2.7 1.6 4.2 4 4.6 7.1.1.5 0 .5-.5.5h-6c-1.1 0-1.9.3-2.5 1.3-.2.4-.5.7-.8 1.1-.4.5-.9.9-1.6.9h-2.5c.6-.6 1-1.2 1.5-1.9h-2.3c-.2.3-.4.5-.7.8-.3.3-.6.7-.8 1 0 .2.2.5.3.7 2.6 5 9.5 5.6 12.8 1 .3-.4.5-.7.7-1.1.2-.4.2-.4-.3-.4h-5.7c-.1-.1-.1-.2-.2-.3l.9-1.2c.3-.4.7-.7 1.3-.7 2.1 0 4.1-.1 6.2-.1.3 0 .3.1.3.4-.4 4.2-3.7 7.6-7.8 8.2-4.6.7-8.9-2.1-10.2-6.3-.1-.3-.1-.5.1-.8.6-.8 1.3-1.6 1.9-2.4 1-1.3 2.3-2 3.9-2.2.4-.1.9-.1 1.3 0-1.4.5-2.4 1.5-3.2 2.7.1.1.2.1.3.1h1.7c.3 0 .4-.1.6-.3.3-.4.7-.9 1-1.3.7-.7 1.5-1 2.5-1h5.5c.4 0 .4 0 .3-.4C23 10 16 8.9 12.3 13.4c-.9 1.2-1.5 2.5-1.6 4 0 .3-.1.5-.3.7-.4.4-.7.8-1.1 1.3-.1.1-.1.2-.2.2s-.1-.2-.1-.3c-.1-1-.1-1.9 0-2.8 0-.2.2-1.2.7-2.3.3-.7 1.5-3.2 4.1-4.6z"/></svg>