<svg xmlns="http://www.w3.org/2000/svg"
    viewBox="0 0 36 36">
    <path
        d="M17.9 25.8c-1.7 0-3.5-.3-5.1-1.2-2.3-1.3-3.7-3.2-4-5.9-.2-2.2.5-4 1.9-5.6 1.4-1.5 3.2-2.3 5.2-2.6 2.1-.3 4.1-.2 6.1.5 3.1 1.1 5.2 4 5.2 7.2 0 2.6-1.3 4.6-3.4 6.1-1.3.9-2.7 1.3-4.2 1.4-.6 0-1.1 0-1.7.1z"
        fill="#9d1f30" />
    <path
        fill="@color/surface_secondary"
        d="M18.8 20.2v2.7c0 .2-.1.3-.3.3h-1.2c-.2 0-.2-.1-.2-.2v-2.4c0-.3 0-.3-.3-.2-1 .4-1.6 1.2-1.8 2.3 0 .2-.1.2-.3.2h-1.2c-.3 0-.3-.1-.2-.3.2-1.8 1.6-3.4 3.4-3.8.2-.1.3-.1.3-.4v-.8c0-.2-.1-.3-.3-.3-1.5-.4-2.6-1.2-3.2-2.7-.2-.4-.3-.8-.3-1.2 0-.2 0-.3.2-.3h1.2c.2 0 .2.1.2.2.2 1.1.8 1.9 1.9 2.3.2.1.3.1.3-.2v-2.5c0-.2 0-.2.2-.2h1.2c.2 0 .2 0 .2.2v2.5c0 .2.1.2.3.2 1-.4 1.7-1.2 1.9-2.3 0-.2.1-.2.3-.2h1.2c.2 0 .2.1.2.2-.2 1.9-1.6 3.4-3.5 3.8-.2.1-.3.1-.3.4v.8c0 .2.1.3.2.3 1.9.4 3.2 1.9 3.5 3.8 0 .2 0 .3-.2.3h-1.1c-.2 0-.3-.1-.3-.3-.1-1-.7-1.8-2-2.2.1 0 .1 0 0 0z" />
</svg>