<svg xmlns="http://www.w3.org/2000/svg" viewBox="0 0 36 36"><path fill="#0077c4" d="M18 9h6.7c1.6 0 2.4.8 2.4 2.4v13.3c0 1-.4 1.7-1.4 2.1-.9.4-1.9.1-2.6-.6-1.4-1.5-1.6-3.7-.3-5.6.7-1.1 1.1-2.2 1.1-3.5 0-2.8-1.8-5.2-4.5-5.9-.4-.1-.8-.2-.7-.7 0-.3-.1-.4-.4-.4h-1.1c-.2 0-.4.1-.3.2.1.9-.5.8-1 1-3.9 1.3-5.4 5.9-3.1 9.3.8 1.1 1.1 2.3.9 3.6-.2 1-.7 1.9-1.6 2.5-1.5.9-3.4-.1-3.4-1.8V11.2c0-1.2 1-2.1 2.3-2.1 2.4-.1 4.7-.1 7-.1z"/><path fill="#0077c4" d="M14.6 27c1.6-2.7 1.5-5.2-.2-7.6-1.2-1.7-.8-4.1.8-5.5 1.6-1.4 4-1.5 5.7-.1 1.6 1.4 2.1 3.7 1 5.5-.3.5-.7 1-1 1.6-.8 1.9-.6 3.7.4 5.4.3.5.3.6-.3.6-1.9 0-1.9 0-1.9-1.9v-6.4c0-.5.1-.7.6-.6.6.1 1.1-.2 1.1-.9s-.5-.9-1.1-.9h-3.1c-.6 0-1 .3-1 .9 0 .6.4.9 1 .9.6-.1.7.1.7.7v7.6c0 .6-.2.7-.7.7-.7-.1-1.3 0-2 0z"/></svg>