<svg xmlns="http://www.w3.org/2000/svg"
    viewBox="0 0 36 36">
    <path
        fill="#91d523"
        d="M15.5 19.7c.4-2.6.8-5.1 1.1-7.7l.3-2.1c0-.4.3-.4.6-.4.4 0 .3.3.3.5-.4 2.7-.8 5.3-1.2 8-.1.4-.1.9-.2 1.4 1.1-.4 2.1-1.1 3-1.8 2.4-2 3.7-4.5 3.7-7.7 0-.3.1-.4.4-.4h2.9c.3 0 .4.1.3.4-.6 2.8-2.1 5-4.2 6.8-1.5 1.4-3.2 2.3-5.2 2.8-.1 0-.3 0-.4.2-.4.3-.9.3-1.4 0z" />
    <path
        d="M15.5 19.7H17c1.4.2 2.8.4 4.1 1 2.4.9 4.3 2.5 5.7 4.7 0 .1.1.1.1.2.4.8.4.8-.5.8h-3.6c-.4 0-.7 0-.8-.6-.3-2.5-2.1-3.8-4.2-4.7-.6-.2-1.2-.5-1.8-.5-.3.2-.5.2-.8 0h-1c-.6.2-1.2.3-1.8 0H9.2c-.2 0-.5.1-.5-.3.1-.3 0-.6.5-.6h3.4c.6-.3 1.2-.3 1.8 0h1.1z"
        fill="#276efe" />
    <path
        fill="#91d523"
        d="M14.4 19.7h-1.8c.5-3.2 1-6.4 1.5-9.7.1-.4.2-.6.7-.5 1.2 0 1.2 0 1 1.2-.4 3-.9 6-1.4 9z" />
    <path
        d="M12.5 20.7h1.8c-.3 1.8-.5 3.5-.8 5.3 0 .3-.1.4-.5.5-1.4 0-1.4.1-1.2-1.3.2-1.5.5-3 .7-4.5z"
        fill="#92d523" />
    <path
        d="M15.3 20.7h.8c-.3 1.8-.5 3.5-.8 5.3 0 .3-.2.4-.5.4-.5 0-.3-.3-.2-.5.2-1.7.4-3.4.7-5.2z"
        fill="#92d522" />
</svg>