<svg xmlns="http://www.w3.org/2000/svg" viewBox="0 0 36 36"><path fill="#0094d5" d="M26.8 15.7c-1.5-.5-2.9-1-4.3-1.5-1.3-.4-2.7-.6-4-.1-1.4.5-2.4 1.5-3 2.7-.2.5-.5.6-1 .5-.3-.1-.6-.1-1-.1 1-2 2.7-3.1 4.9-3.7-.7-.2-2 0-2.9.3-1.7.5-2.9 1.6-3.8 3-.1.2-.3.3-.5.3-.6 0-1.2-.1-1.7-.1-.4 0-.4-.2-.4-.5.4-3.6 3.1-6.6 6.9-7.5 4.7-1.1 9.7 1.8 10.9 6.5 0 0-.1.1-.1.2zm.1 4.6c-.4 1.6-1.1 2.9-2.2 4-2.8 2.8-6.2 3.6-10 2.3-1-.4-2-1-2.8-1.7-.2-.2-.2-.3.1-.4l10.8-3c1.3-.4 2.7-.8 4.1-1.2zm-.1-1c.1 0 .3-.1.3.2 0 .1 0 .3-.2.3-.3.1-.7.1-1 .2-5 1-10.1 2-15.1 3-.3.1-.5 0-.7-.3-.2-.4-.4-.7-.5-1.1-.1-.2-.1-.3.2-.4l7.8-.9c3-.3 6-.7 8.9-1h.3zm-8.8-.8c2.9.1 5.7.1 8.6.2h.4c.1 0 .2 0 .2.2s-.1.2-.3.2c-.5 0-1.1.1-1.6.1-4.5.2-9 .4-13.6.5-.8 0-1.6.1-2.3.1-.3 0-.4 0-.5-.4-.2-1.2-.2-1.2 1-1.1 2.7.1 5.4.1 8.1.2z"/><path fill="#0094d5" d="M27.2 17.6c0 .7 0 .7-.6.7-2.2-.2-4.4-.3-6.5-.5-.8-.1-.8 0-.4-.7s1-1.3 1.7-1.6c.6-.2 1.2-.2 1.8-.1 1.1.3 2.1.6 3.2.9.5.1.8.3.8.9v.4z"/></svg>