<svg xmlns="http://www.w3.org/2000/svg" viewBox="0 0 36 36"><path fill="#e00000" d="M21.8 26.9h-1.1c-1 0-1.8-.5-2.5-1.2-.1-.1-.2-.1-.3 0-.1.2-.3.3-.5.4-.6.5-1.3.8-2.1.8h-1.1c-.8-.1-1.5-.4-2.1-.9-1.3-1.1-1.8-3.2-1.1-4.8.3-.6.3-.6-.3-.9-.9-.5-1.5-1.2-1.8-2.2-.2-.6-.2-1.2-.2-1.8 0-2.2 2.1-3.8 4.1-3.7.2 0 .4 0 .6.1.3.1.4 0 .4-.3.1-.8.4-1.4.9-2 .7-.8 1.6-1.4 2.7-1.4 1.2-.1 2.3.1 3.2.9.7.6 1.1 1.4 1.3 2.3v.2c.1.4.1.4.4.3 1.1-.2 2 0 2.9.6.7.4 1.2 1 1.5 1.8.2.4.1.8.2 1.2v1c-.1.5-.1 1.1-.4 1.5-.4.7-1 1.2-1.7 1.6-.4.2-.4.2-.2.5.8 1.7.6 3.4-.6 4.7-.6.7-1.4 1.1-2.3 1.1.2.2.1.2.1.2z"/><path fill="@color/surface_secondary" d="M18.9 19.1v3.1c0 .2 0 .3-.3.3h-1.2c-.3 0-.3-.1-.3-.3V16c0-.5 0-.5-.4-.3-2.7 1-3.3 4.5-1.2 6.4.2.2.2.3.1.5-.3.3-.5.6-.7.9-.1.2-.2.2-.4 0-2.8-2.3-2.6-6.7.3-8.8.6-.4 1.3-.8 2.1-.9.2 0 .3-.1.3-.4v-1c0-.2 0-.2.2-.2h1.3c.2 0 .2.1.2.2v1c0 .2.1.3.3.4 2.1.5 3.5 1.8 4.1 3.8.7 2.1-.1 4.6-1.8 6-.2.1-.2.2-.4 0-.2-.3-.5-.7-.7-1-.2-.2-.1-.3.1-.4 2.1-1.9 1.5-5.3-1.1-6.4h-.1c-.4-.2-.4-.2-.4.3v3z"/></svg>