<svg xmlns="http://www.w3.org/2000/svg"
    viewBox="0 0 36 36">
    <style>.st1{fill:#2e2e93}.st2{fill:#61cdf6}</style>
    <path
        class="st1"
        d="M21.4 25.2c-.3.1-.7 0-1 0-.2 0-.1-.1-.1-.2 0-.7 0-1.3-.1-2-.1-.9-.3-1.8-.6-2.6-.1-.1-.2-.3-.2-.5-.1-.4-.3-.7-.4-1.1-.3-.6-.6-1.2-.9-1.7-.1-.3-.3-.5-.5-.8-.1-.1-.1-.2-.1-.3-.6-1-1.4-1.8-2.3-2.6-.1.4-.2.9-.3 1.3-.1 0-.1-.1-.2-.1-.5-.5-1-.9-1.5-1.3-.1-.1-.2-.1-.1-.3.2-.7.4-1.3.6-2 .1-.2.2-.1.3 0 1.1.8 2.2 1.7 3.1 2.7.4.4.8.9 1.1 1.4.3.3.5.6.6 1 .3.5.6 1.1.9 1.6.1.1.2.2.2.4.1.3.3.6.4 1 .3.8.5 1.5.7 2.3.1 0 .1.1.1.2.2.8.3 1.6.3 2.4v1.2z" />
    <path
        class="st1"
        d="M18.6 24.4c0 .3.1.6 0 .8-.2.2-.5 0-.7.1-.3 0-.3 0-.3-.3 0-1.5-.3-3-.9-4.5-.2-.1-.2-.3-.3-.5-.1-.4-.4-.7-.5-1.1-.7-1.3-1.6-2.5-2.7-3.5-.1.5-.1.9-.2 1.4l-.4-.4c-.4-.4-.9-.8-1.3-1.1-.3-.1-.3-.2-.3-.4.1-.7.3-1.3.5-1.9.1-.2.1-.2.3-.1 1.8 1.1 3.3 2.6 4.4 4.3.1.1.1.3.3.4.3.3.4.7.7 1.1 0 0 0 .1.1.1.4.7.7 1.5.9 2.3.3.9.4 1.8.5 2.7-.1.2-.2.4-.1.6z" />
    <path
        class="st1"
        d="M15.8 24.2v.8c0 .1 0 .2-.2.2h-.7c-.2 0-.2-.1-.2-.3 0-1.3-.3-2.6-.8-3.8-.9-2.3-2.5-4-4.6-5.2-.2-.1-.3-.2-.3-.4s.1-.5.1-.7c0-.2.1-.2.2-.1.8.4 1.5.8 2.1 1.4 1.7 1.4 2.9 3.1 3.6 5.1l.2.2c.3.9.6 1.8.6 2.8z" />
    <path
        class="st2"
        d="M21.4 25.2c0-.7 0-1.3-.1-2s-.2-1.3-.3-2c.3-.6.5-1.2.8-1.7 1.1-2 2.7-3.5 4.7-4.6.5-.3.5-.2.6.3.1.6.1.6-.4.9-1.1.7-2.1 1.6-2.9 2.6-.9 1.2-1.5 2.5-1.9 3.9-.2.7-.3 1.4-.3 2.2-.2.1-.2.2-.2.4z" />
    <path
        d="M20.2 18.9c-.2-.4-.4-.9-.6-1.3.5-.7 1-1.4 1.5-2 .9-1 1.9-1.9 3.1-2.6.1-.1.2-.1.3.1.2.7.4 1.3.5 2 0 .1 0 .2-.1.2-.6.4-1.1.9-1.6 1.4 0 0-.1.1-.2.1s0-.1 0-.1c0-.3-.1-.7-.1-1 0-.1 0-.1-.1-.2-.1 0-.1 0-.1.1-1 .9-1.8 2-2.5 3.1-.1 0-.1.1-.1.2z"
        fill="#61cdf7" />
    <path
        d="M18.7 15.9c-.2-.3-.5-.6-.6-1 .6-.9 1.4-1.7 2.2-2.5.6-.6 1.3-1.1 2-1.6.1-.1.2-.1.3.1.2.6.4 1.3.6 1.9 0 .1 0 .2-.1.3-.6.5-1.2.9-1.7 1.5h-.1c0-.4-.1-.7-.1-1 0-.1 0-.2-.1-.2s-.2.1-.2.1c-.7.7-1.3 1.4-1.9 2.1-.2.1-.3.2-.3.3z"
        fill="#62cdf7" />
    <path
        class="st2"
        d="M18.6 24.4c-.1-.4-.1-.9-.2-1.3-.1-.7-.2-1.3-.4-1.9.2-.8.5-1.5.8-2.2 0-.1.1-.1.1-.2.2.5.4 1 .6 1.6-.2.3-.3.7-.4 1-.3.9-.4 2-.5 3zm-2.8-.2c-.1-.4-.1-.8-.2-1.2-.1-.6-.3-1.2-.5-1.8.2-.1.1-.4.2-.5l.6-1.8c.3.5.5 1 .7 1.5-.2.3-.3.7-.4 1.1-.2.8-.3 1.7-.4 2.7 0-.1 0-.1 0 0zm1.3-5.4c-.2-.4-.5-.8-.6-1.2.1-.4.4-.8.6-1.2.1-.2.2-.3.3-.4.3.3.5.7.7 1.1-.3.5-.7 1-1 1.7.1-.1.1 0 0 0z" />
    <path
        d="M17.1 18.8c.2-.6.5-1.2.9-1.7h.1c.3.6.6 1.1.9 1.8-.1.3-.3.7-.4 1-.1.4-.3.8-.4 1.2 0 .1 0 .1-.1.1-.3-.9-.6-1.7-1-2.4z"
        fill="#fdfefd" />
</svg>