<svg xmlns="http://www.w3.org/2000/svg" viewBox="0 0 36 36"><path fill="#347be9" d="M23.4 13.7c.7-.2 1.4-.3 2-.4.3-.1.6.1.7.4 1.9 3.6 1.1 8.2-1.9 10.9-2.8 2.5-5.9 3.1-9.4 1.9-.3-.1-.4-.2-.2-.5 2.6-4.6 6.4-7.9 11.2-10.2.3-.2.3-.3.1-.5-.2-.1-.3-.3-.5-.5-.1-.1-.2-.2-.3-.1-.3.2-.5 0-.7-.2-.3-.2-.6-.4-1-.8zM8.9 16.8c.2-.4.4-.8 1.2-1.2.9-.5 1.7-1 2.6-1.5.3-.2.5-.1.8.1.3.3.7.6 1 1 .2.1.2.2 0 .4-.8.5-1.4 1.2-2.1 1.7-.2.1-.3.4-.2.6.1.2.3.3.6.3.8.1 1.4-.3 2.1-.6.3-.2.7-.4 1-.6.2-.1.3-.1.5.1.4.5.8 1.1 1.3 1.6.2.2.1.3-.1.4-2 1.6-3.7 3.5-5.2 5.6-.1.2-.2.2-.4.1-.7-.7-1.3-1.4-1.8-2.2-.6-1.1-.9-2.2-1.1-3.4-.5-1.6-.3-2.2-.2-2.4zm11.8-5c.2 0 .3-.1.4-.1v-.1c-.8-.7-1.7-.4-2.5-.3-2.8.5-5.6 1.2-8.2 2.3-.1 0-.2.1-.4.1.3-.6.6-1.1 1-1.6 2.4-2.7 5.3-3.8 8.9-3 1.2.3 2.2.8 3.2 1.6.3.3.6.6.8 1 .1.2.1.4-.1.6-.2.3-1.3.6-1.6.4-.1 0-.1-.1-.2-.1-.4-.3-.8-.5-1.3-.8zm-3.3 4.3c0-.1.1-.2.1-.2.7-.3 1.5-.7 2.2-1 .1-.1.2 0 .3.1l1.2 1.2c.2.2.1.2-.1.3-.7.4-1.3.8-2 1.2-.2.1-.3.1-.4 0-.4-.5-.9-.9-1.3-1.4v-.2z"/><path fill="#347be9" d="M14.2 13.4l2.7-.9c.1 0 .2 0 .3.1.4.3.8.6 1.2 1 .2.1.2.2 0 .3-.7.3-1.5.6-2.2.9-.1.1-.3.1-.4 0-.5-.5-1-.9-1.6-1.4zm8.4.5h.1c.4.4.8.7 1.2 1.1.1.1 0 .2-.1.2-.4.2-.9.4-1.3.6-.2.1-.3 0-.4-.1-.4-.4-.8-.7-1.1-1.1-.2-.2-.2-.2.1-.3.5 0 1-.2 1.5-.4zm-1-.9c-.3.1-.4.1-.6.1-1.5.4-1.6.4-2.8-.7-.1-.1-.2-.1-.1-.2 0-.1.1-.1.2-.1l1.5-.3h.3c.4.4.9.8 1.5 1.2z"/></svg>