<svg xmlns="http://www.w3.org/2000/svg"
    viewBox="0 0 36 36">
    <path
        d="M17.5 8.8h1.4c.3 0 .6.1.9.1.8.2 1.5.4 2.2.8.7.4 1.4.8 2 1.4.7.6 1.3 1.4 1.8 2.2.5.9.9 1.8 1.1 2.8v.1c0 .1 0 .1-.1.1h-2.7c-.1 0-.1 0-.2-.1-.1-.3-.2-.6-.3-.8-.3-.6-.6-1.1-1.1-1.6-.3-.4-.7-.7-1.2-1-.5-.4-1.1-.6-1.7-.8-.3-.1-.7-.2-1-.2-.4 0-.9-.1-1.3 0-.4 0-.9.1-1.3.2-.9.3-1.8.7-2.5 1.4-.5.6-1.1 1.4-1.5 2.4-.2.4-.3.9-.3 1.4v.3c0 .1 0 .2.2.2h1c.1 0 .1 0 .1-.1.3-.4.7-.9 1-1.3.5-.6.9-1.2 1.4-1.8.1-.1.1-.1.2 0 .3.3.6.6.8.9.1.2.3.3.4.4.3.4.7.7 1 1.1.1.1.1.1.2 0 .6-.8 1.2-1.5 1.8-2.3.1-.2.1-.2.3 0 .4.5.9 1 1.3 1.5.4.4.8.9 1.2 1.3l.3.3c0 .1.1.1.2.1h4c.1 0 .1 0 .1.2 0 1-.1 2-.5 3-.4 1.1-.9 2.1-1.7 3-.8.9-1.7 1.7-2.8 2.3-.9.4-1.7.7-2.7.9-.3.1-.7.1-1 .1h-.6c-.9 0-1.7-.1-2.6-.4-.7-.2-1.4-.5-2.1-.9-.5-.3-1-.7-1.5-1.1-.7-.7-1.3-1.5-1.8-2.3l-.3-.6c-.1-.1 0-.2.1-.2h2.9c.1 0 .2.1.3.2.4.6.9 1 1.5 1.4.7.5 1.4.8 2.2.9.2.1.5.1.8.1h.7c.4 0 .7 0 1.1-.1 1-.2 1.9-.6 2.7-1.3.6-.5 1.2-1.1 1.6-1.9.1-.2.2-.3.3-.5 0-.1 0-.1-.1-.1h-1.8c-.1 0-.2 0-.3-.1-.3-.4-.7-.8-1-1.2-.2-.2-.3-.4-.5-.5-.1-.1-.1 0-.1 0-.2.2-.3.3-.5.4-.3.3-.7.6-1 .9-.1.1-.3.2-.4.3-.1.1-.1.1-.2 0-.6-.4-1.1-.9-1.7-1.3-.2-.1-.3-.2-.5-.4h-.1c-.4.4-.8.8-1.2 1.3-.1.1-.2.3-.4.4-.1.1-.1.1-.2.1H9.1c-.1 0-.1 0-.1-.1 0-.3-.1-.6-.1-.9 0-.3 0-.6-.1-.9V17c0-.4.1-.8.2-1.2.2-.7.4-1.4.7-2 .3-.7.7-1.3 1.2-1.9.4-.5.9-.9 1.4-1.3.4-.3.8-.5 1.2-.8.8-.5 1.7-.8 2.6-1 .4-.1.7-.1 1.1-.1.1.1.2.1.3.1zm.6 0h-.2.2zm0 0h.2-.2zm-9.3 9.3zm9-9.3h-.1.1zm0 0h.1-.1zm-9 8.9zm9.6-8.9h-.1.1zm0 0zm-9.6 8.7zm0 .7z"
        fill="#fe0000" />
</svg>