<svg xmlns="http://www.w3.org/2000/svg"
    viewBox="0 0 36 36">
    <path
        d="M19.1 8.9v.3c0 .1 0 .1.1.1.3.1.7.1 1 .2.4.1.8.3 1.2.5.5.2.9.5 1.3.7.1.1.3.2.4.3.4.3.6.5.9.8.3.4.7.8 1 1.2s.5.7.7 1.2c.2.4.3.8.5 1.2 0 .1 0 .2-.1.2h-2.5c-.1 0-.1 0-.2-.1-.2-.5-.5-.9-.8-1.3-.4-.5-1-1.1-1.9-1.6-.4-.2-.8-.4-1.2-.5h-.1c-.1 0-.2 0-.2.1v3.2c0 .2 0 .2-.2.2h-2.3c-.1 0-.2 0-.2-.2v-3.1c0-.1 0-.1-.1-.2 0-.1-.1-.1-.2-.1l-.9.3c-.3.1-.5.3-.7.4 0 0-1.4.9-2.3 2.6-.1.2-.2.5-.2.5-.1.2-.1.4-.2.6 0 .1 0 .1.1.1h15.1V19h-.4c-.1 0-.1 0-.1.1-.1.5-.2 1.1-.4 1.6-.1.3-.2.6-.4.9-.2.4-.4.8-.7 1.2-.2.3-.4.6-.7.9l-.6.6-.4.4a9.1 9.1 0 01-3.2 1.7c-.3.1-.6.1-.9.2-.1 0-.1 0-.1.1v.2c0 .1 0 .1-.1.1h-2.5c-.1 0-.1 0-.1-.1v-.2c0-.1 0-.1-.1-.1-.3 0-.6-.1-.9-.2-.5-.1-1-.3-1.4-.5s-.8-.4-1.2-.7c-.3-.2-.7-.5-1-.8l-.6-.6c-.4-.4-.8-.9-1.1-1.4-.4-.6-.6-1.2-.8-1.9v-.2c0-.1 0-.1.1-.1h2.7c.1 0 .1 0 .1.1.1.2.1.3.2.5.2.4.5.8.8 1.2.4.5 1 1 1.6 1.3.5.3.9.5 1.5.6.2.1.3 0 .3-.2v-3.3c0-.2 0-.2.2-.2h2.3c.2 0 .2 0 .2.2v3.4c0 .1.1.2.3.2l.9-.3c.5-.2.9-.5 1.3-.8.3-.2.6-.5.8-.8.4-.4.7-.9 1-1.5.2-.4.3-.9.4-1.3 0-.1 0-.1-.1-.1H8.9c-.1 0-.1 0-.1-.1v-2.4c0-.1 0-.1.1-.1h.3c.1 0 .1 0 .1-.1.1-.7.3-1.4.6-2.1.3-.6.6-1.2 1-1.7.2-.2.4-.5.6-.7.5-.5 1.1-1 1.7-1.4.5-.3 1-.6 1.5-.8.6-.2 1.2-.4 1.8-.5h.2c.1 0 .1 0 .1-.1v-.3h2.3z"
        fill="#b32619" />
</svg>