<svg xmlns="http://www.w3.org/2000/svg"
    viewBox="0 0 36 36">
    <path
        d="M21.4 27.2H19v-5.5c0-.1 0-.1-.1-.1-.6-.1-1.1-.1-1.7 0h-.1v5.5c0 .1 0 .1-.1.1h-2.2c-.1 0-.1 0-.1-.1v-4.5c-.7.5-1.3 1.2-1.7 1.9-.4.8-.6 1.6-.7 2.4v.2c0 .1 0 .1-.1.1h-3c0-1 .1-2 .5-3 .7-1.9 2-3.4 3.7-4.4.4-.3.8-.5 1.3-.6.1 0 .1-.1.1-.1v-2c0-.1 0-.1-.1-.1-1.8-.7-3.3-1.9-4.3-3.6-.6-1-1-2-1.1-3.1-.3-.6-.3-1-.3-1.4 0-.1 0-.1.1-.1h3c.1 0 .1 0 .1.1 0 1.9.8 3.4 2.3 4.5l.1.1V9c0-.1 0-.1.1-.1H17c.1 0 .1 0 .1.1v5.4c0 .1 0 .1.1.1.6.1 1.1.1 1.7 0 .1 0 .1-.1.1-.1V9c0-.1 0-.1.1-.1h2.2c.1 0 .1 0 .1.1v4.6h.1c1.2-.9 2-2.1 2.3-3.6.1-.3.1-.6.1-1 0-.1 0-.1.1-.1h3c.1 0 .1 0 .1.1 0 2.4-.9 4.5-2.7 6.2-.8.8-1.8 1.4-2.9 1.8-.1 0-.1.1-.1.1v2c0 .1 0 .1.1.1 1.6.6 2.8 1.6 3.8 2.9.8 1.1 1.4 2.4 1.6 3.7.1.5.1.9.1 1.4h-3c-.1 0-.1 0-.1-.1V27c-.1-1.9-.9-3.4-2.4-4.5v4.6c-.1 0-.1.1-.1.1z"
        fill="#00a02c" />
    <path
        fill="@color/surface_secondary"
        d="M19 18v.4c0 .1 0 .1-.1.1-.5 0-1-.1-1.5 0h-.3s-.1 0-.1-.1v-.9c0-.1 0-.1.1-.1.5 0 .9.1 1.4 0h.4c.1 0 .1 0 .1.1v.5z" />
</svg>