<svg xmlns="http://www.w3.org/2000/svg"
    viewBox="0 0 36 36">
    <path
        d="M24.1 8.8c.5 0 1.3.3 1.8.7.7.5 1.1 1.2 1.2 2.1v.4s0 .1-.1.1H12.1c-.1 0-.1 0-.1.1V27c0 .1 0 .1-.1.1-1.4-.1-2.4-.8-3-2.1-.2-.4-.3-.8-.3-1.2V12.7c0-.4 0-.8.1-1.2.1-.8.5-1.5 1.1-2 .5-.4 1.1-.7 1.8-.8h3.5c1.5.1 8.6.1 9 .1z"
        fill="#009f35" />
    <path
        fill="#009f35"
        d="M27.1 13.8s.1 0 .1.1v10c0 .8-.3 1.5-.9 2.1-.5.6-1.2.9-1.9 1h-.5c-.1 0-.1 0-.1-.1V17c0-.1 0-.1-.1-.1h-6.4c-.1 0-.1 0-.1.1v9.8c0 .1 0 .1-.1.1H14c-.1 0-.1 0-.1-.1V13.6l13.2.2z" />
    <path
        fill="#009f35"
        d="M18.8 23v-4.1c0-.1 0-.1.1-.1H22c.1 0 .1 0 .1.1V27c0 .1 0 .1-.1.1h-3.2c-.1 0-.1 0-.1-.1.1-1.3.1-2.7.1-4z" />
</svg>