<svg xmlns="http://www.w3.org/2000/svg" viewBox="0 0 36 36"><style>.st1{fill:#2959a4}.st2{fill:#6abc49}</style><g id="v6YeSt.tif"><path class="st1" d="M24 15.5c0-.7-.1-1.3-.4-1.9-.2-.5-.5-1-.9-1.4-.3-.3-.6-.5-.9-.7-.4-.2-.9-.4-1.3-.5-.6-.1-1.1-.1-1.7-.1-.5 0-1.1.1-1.6.3-.4.1-.7.2-1.1.4-.6.3-1.2.6-1.7 1-.6.4-1.1.9-1.6 1.4-.5.6-1 1.2-1.4 1.9-.2.3-.3.6-.4.9 0 0 0 .1-.1.1-.6.6-1.2 1.3-1.9 1.9.1-.2.1-.4.2-.6.2-.7.5-1.3.8-2l.6-1.2c.3-.5.6-.9.9-1.4.4-.5.9-1.1 1.4-1.5.4-.4.9-.7 1.3-1 .5-.4 1-.7 1.5-.9.6-.3 1.1-.5 1.7-.7s1.2-.3 1.7-.4c.4 0 .8 0 1.2-.1h.4c.4 0 .8.1 1.1.1.6.1 1.2.3 1.7.5.6.3 1.1.6 1.5 1 .5.4.8.9 1.1 1.4.3.5.6 1.1.7 1.7.1.3.1.6.2.9v1.3c0 .1 0 .1-.1.1h-3c-.1 0-.1 0-.1-.1.2.1.2-.1.2-.4z"/><path class="st2" d="M27 17.2c-.1.2-.1.4-.2.6-.2.7-.5 1.3-.8 2-.3.5-.5 1-.8 1.5s-.7 1-1.1 1.4c-.4.5-.9 1-1.4 1.4-.6.5-1.2.9-1.9 1.3-.5.3-1 .5-1.6.7s-1.1.4-1.7.5c-.5.1-1 .1-1.6.2-.6 0-1.2-.1-1.8-.1-.5-.1-1-.2-1.5-.4-.6-.3-1.3-.6-1.8-1.1-.6-.5-1-1.1-1.4-1.8-.3-.5-.5-1.1-.6-1.7-.1-.4-.1-.8-.1-1.1v-.8c0-.1 0-.1.1-.1h2.9c.1 0 .1 0 .1.1 0 .5 0 1 .1 1.5.2.8.5 1.5 1 2.2.6.6 1.2 1.1 2 1.4.5.2 1 .2 1.5.3.5 0 1-.1 1.6-.1.5-.1 1-.2 1.4-.4.7-.3 1.4-.7 2.1-1.1.3-.3.7-.5 1-.9l.5-.5c.5-.5.9-1 1.3-1.6.2-.3.4-.6.5-1 .1-.2.3-.4.5-.6.6-.6 1.1-1.2 1.7-1.8 0 .1 0 .1 0 0z"/><path class="st1" d="M26.8 16.8l-.3.3-2.1 2.1-.1.1h-1.2c-.2 0-.3.1-.4.2l-1.9 1.9-.4.4-.3.3c-.2.2-.4.2-.7.2h-4.6c-.1 0-.1 0-.1-.1l-.3-.6c0-.1 0-.1.1-.1H18c.2 0 .3 0 .5-.1.1 0 .2-.1.3-.2l1.8-1.8h-.9c-.1 0-.3.1-.4.2-.3.2-.5.5-.7.7l-.6.6c-.2.1-.4.2-.6.2h-3.9c-.2-.4-.3-.8-.5-1.1h4.4c.2 0 .4 0 .5-.1s.2-.1.3-.2l2.3-2.3c.2-.2.4-.2.6-.2 1.8-.4 3.7-.4 5.7-.4-.1 0-.1 0 0 0z"/><path class="st2" d="M9.2 19.2l.3-.3c.7-.7 1.4-1.4 2.1-2.2l.1-.1h1.1c.2 0 .4-.1.6-.3l2.3-2.3c.2-.2.4-.3.7-.3h4.7c.1 0 .1 0 .1.1l.3.6h-3.8c-.2 0-.3.1-.4.2l-1.9 1.9h.7c.3 0 .5-.1.7-.3l1.1-1.1c.1-.2.3-.2.6-.2h4c.1 0 .1 0 .1.1.2.4.3.7.5 1v.1h-4.5c-.2 0-.4.1-.6.2l-1.2 1.2-1 1c-.1.1-.3.2-.4.3-.1.1-.3.1-.4.1H9.4c-.1.3-.1.3-.2.3z"/></g></svg>