<svg xmlns="http://www.w3.org/2000/svg"
    viewBox="0 0 36 36">
    <path
        d="M23.1 18.2h3.5c.4 0 .5.1.5.5-.2 3.8-2.8 7.1-6.3 8.3-.4.1-.6.2-.6-.4-.4-2.6-.8-5.1-1.2-7.7-.1-.4-.2-.6-.6-.6-1.6 0-1.6 0-1.9 1.6-.3 2.2-.7 4.4-1 6.6 0 .5-.2.5-.5.4-2.9-1.1-4.9-3-5.8-6-.2-.6-.3-1.3-.4-2-.1-.5.1-.7.6-.7H16c.5 0 .7-.1.7-.6 0-1.7 0-1.7-1.7-1.7H9.7c-.5 0-.6-.1-.4-.6 1.7-5.4 8.5-8 13.4-5.1 1.9 1.2 3.3 2.8 4.1 5 .2.5.2.7-.5.7h-6.4c-.5 0-.7.1-.7.6 0 1.7 0 1.7 1.8 1.7h2.1z"
        fill="#cd0000" />
</svg>