<svg xmlns="http://www.w3.org/2000/svg" viewBox="0 0 36 36"><path fill="#a1062d" d="M9.9 22.9c-.3-.6-.6-1.2-.7-1.8-.5-1.9-.5-3.8.2-5.7.2-.4.3-.8.4-1 .8-1.6 1.8-2.5 2.1-2.7.2-.2.4-.3.6-.4.5-.4 1-.7 1.4-.9.5-.3 1.1-.5 1.7-.7.3-.1.5-.1.8-.2.1 0 .2 0 .2.1v2.9h-.1c-.4.2-.9.4-1.4.7-.7.4-1.2.9-1.6 1.3-.6.7-.8 1.3-1 1.7-1 2.4-.3 5.3 1.6 7.1.1.1.2.1.3 0l4.4-4.4c.2-.2.4-.4.5-.6.4-.5.3-1.2-.1-1.7s-1.1-.6-1.7-.3c-.6.3-.8.9-.6 1.6 0 0 .2.5.4.7l.2.2c.1 0 .1.1.2.1.1.1.1.2 0 .3-.5.5-1 1-1.5 1.4l-.1.1c-.1 0-.1 0-.2-.1-.2-.1-.3-.3-.4-.4-1.2-1.1-1.6-3-.9-4.3.2-.4.4-.7.7-1.1.3-.4.8-.7 1.2-.9 1.2-.6 2.4-.5 3.6.2.6.4 1 .9 1.3 1.5s.5 1.2.4 1.9c0 .6-.2 1.1-.4 1.6-.1.2-.2.4-.4.6-.4.5-.8.9-1.2 1.3-.2.1-.4.4-.7.7-.5.5-.8.9-1.1 1.2 0 0-.9 1-3 3.1-.4.4-.7.4-.9.5-1.7.3-3.4-2-3.9-3.1-.1-.1-.2-.3-.3-.5z"/><path fill="#a1062d" d="M22.2 13.9c-.6-.5-1.3-1-2.1-1.2-.5-.2-.5-.2-.5-.8V9.7c0-.2.1-.2.2-.2.8.2 1.6.4 2.3.8 1.8.9 3.1 2.2 4 4 .8 1.5 1.1 3.2 1 4.9-.2 2.4-1.2 4.4-2.9 6.1l-.4.4-.3.3c-.2.2-.8.7-1.5.6-.3 0-.5-.1-.6-.2l-.3-.3L19 24c-.4-.3-.4-.5-.5-.7 0-.6.7-1.2.8-1.2l.5-.5c.7.6 1.3 1.2 2 1.8.2-.2.5-.4.8-.8.3-.3.4-.6.6-.8.1-.2.4-.5.6-1 1-2.1.3-4.6-.6-5.8-.4-.6-1-1.1-1-1.1z"/></svg>