<svg xmlns="http://www.w3.org/2000/svg" viewBox="0 0 36 36"><path fill="#e90000" d="M18.6 27.1h-1.2c-2.9-.3-5.2-1.5-7-3.9-.5-.7-.9-1.4-1.2-2.3.7.2 1.1-.1 1.6-.4.7-.5.9-.5 1.6.1.2.2.4.3.6.5.8.6 1.4.6 2.1-.1 1-1.1 2.1-2.2 3.1-3.3.8-.9 1.7-1 2.8-.6 1.8.7 3.6 1.4 5.5 2.1.4.2.6.4.5.8-.8 3.8-3.9 6.6-7.8 7.1-.2-.1-.4 0-.6 0z"/><path fill="#e90000" d="M16.3 14.5c-3.3.3-5.9 1.7-7.4 4.8-.2-.7-.2-1.8 0-2.9.9-4.7 4.9-7.8 9.6-7.6 4.6.3 8.3 3.9 8.6 8.5 0 .4 0 .5-.5.3-1.5-.7-3-1.3-4.6-2-.5-.2-.9-.4-1.4-.5-1.2-.3-2.3-.2-3.3.7-1.1.9-2.2 1.8-3.2 2.8-.3.4-.6.4-1.1.1-.7-.6-1-.6-1.8-.1-.2.1-.4.3-.5.1-.2-.2 0-.4.1-.5 1.4-2.1 3.5-3.2 5.9-3.7.1-.1.3-.1.4-.1.1 0 0-.1 0 0-.1.2-.4-.1-.8.1z"/><path fill="#e90000" d="M16.3 14.5c.4-.2.8-.1 1.3-.1-.3.1-.5.2-.7.2-.1-.2-.4-.1-.6-.1z"/></svg>