<svg xmlns="http://www.w3.org/2000/svg" viewBox="0 0 36 36"><path fill="#01287a" d="M18 15.6c.2-.3.4-.4.7-.6 1.5-1.3 2.9-2.6 4.4-3.9.3-.2.5-.4.9-.4h1.8c.8 0 1.4.6 1.4 1.4v11.7c0 .9-.7 1.5-1.5 1.5h-2c-.1 0-.2 0-.2-.1v-9.6s0-.1-.1-.1c-.9.8-1.8 1.6-2.7 2.5-.1-.1-.3-.2-.4-.3-.8-.7-1.5-1.4-2.3-2.1zm-5.5 9.7c0 .1-.1 0-.2 0h-2.1c-.8 0-1.4-.6-1.4-1.4V12.2c0-.8.6-1.4 1.4-1.4H12c.3 0 .6.1.8.3 1.6 1.5 3.3 3 4.9 4.4.1 0 .1.1.1.2-.9.8-1.7 1.6-2.6 2.4-.9-.8-1.8-1.7-2.8-2.5v5c-.1.1 0 .2 0 .2v2.9c.1.4.1 1 .1 1.6z"/><path fill="#d6032b" d="M12.5 25.3v-4.8c.2-.2.5-.4.7-.6.7-.6 1.4-1.3 2.1-1.9.9-.8 1.8-1.6 2.6-2.4h.1c.7.7 1.5 1.4 2.2 2 .1.1.3.2.4.3.5.5 1 .9 1.5 1.4.4.4.8.7 1.3 1.1v4.7c-.5-.3-.8-.7-1.2-1-1.4-1.2-2.7-2.4-4.1-3.7-.1-.1-.2-.1-.4 0-1.1 1-2.3 2.1-3.5 3.1-.4.7-1 1.2-1.7 1.8.1-.1.1-.1 0 0z"/><path fill="@color/surface_secondary" d="M23.4 20.5c-.4-.4-.8-.7-1.3-1.1-.5-.5-1-.9-1.5-1.4.9-.8 1.8-1.6 2.7-2.5.1 0 .1.1.1.1.1 1.6.1 3.3 0 4.9zM15.3 18c-.7.6-1.4 1.3-2.1 1.9-.2.2-.4.4-.7.6v-5c1 .8 1.9 1.7 2.8 2.5z"/></svg>