<svg xmlns="http://www.w3.org/2000/svg"
    viewBox="0 0 36 36">
    <path
        fill="#db0000"
        d="M22.3 14.4c-.8 0-1.4 0-2-.4-1.7-.9-3.4-1-5.1 0-.7.4-1.3.4-2 .4.3-.5.7-.8 1.1-1.1.8-.6 1.6-.9 2.6-1.1.1 0 .3 0 .3-.2 0-.3.1-.5-.1-.8h-.2c-2.9.3-5.4 2.5-6 5.5-.1.4-.3.5-.7.5-1.1-.1-1.1 0-.9-1.1.8-3.4 3.9-6.3 7.3-6.7.2 0 .4-.1.4-.4 0-.2.1-.3.3-.3h.7c.3 0 .6-.1.5.4 0 .2.2.2.3.2 1.5.1 2.9.6 4.2 1.3.3.2.3.3.1.6l-.9 1.2c-.1.2-.2.2-.4.1-.9-.6-1.9-1-3-1.2-.3 0-.4 0-.4.3 0 .5.1.6.6.7 1.2.3 2.3.9 3.3 2.1zm.9 11.2c-3.5 2.6-8.7 2-11.7-1.2-1.2-1.3-2-2.9-2.3-4.7 0-.2 0-.3.2-.3.4 0 .8-.2 1.2 0 .4.1.2.7.4 1 .6 1.8 1.7 3.2 3.4 4.1.3.1.4.1.5-.2.3-.7.3-.7 1.2-.7-.1.4-.2.8-.3 1.1 0 .2-.1.2.1.3 1.2.3 2.4.3 3.6 0 .2 0 .2-.1.2-.3l-.3-.9c-.1-.2 0-.3.2-.3.5-.1.7.1.9.6.2.5.2.5.7.3.2-.1.5-.4.7-.4.3.1.4.4.6.6.2.4.4.7.7 1 0-.1 0 0 0 0z" />
    <path
        fill="#db0000"
        d="M17.6 23.3h-2.2c-.4 0-.7-.2-.9-.5-.2-.3-.3-.7-.3-1 0-1.8.1-3.7.2-5.5 0-.3.2-.6.5-.7 1.8-1 3.7-1.1 5.5 0 .5.3.5.8.6 1.3.2 1.8.2 3.7.1 5.5 0 .5-.5.9-1.1.9h-2.4zm8.8-2.3c-.4-.1-.7-.3-1.1-.4-.2-.1-.2-.1-.3.1-.3.8-.3.8.5 1.1.7.3.7.3.3 1-.4.7-.9 1.3-1.5 1.9-.2.2-.3.2-.4 0l-1-1c-.2-.2-.3-.3 0-.6 1-1 1.6-2.2 1.8-3.6.4-2.4-.3-4.5-2-6.2-.2-.2-.3-.3 0-.5.4-.3.7-.6 1.1-.9.2-.2.3-.2.5 0 .7.7 1.3 1.5 1.8 2.4.1.2.1.3-.1.4-.3.1-.6.2-.8.4-.2.1-.4.1-.3.4.1.3.1.6.6.4h.1c1-.2 1-.2 1.2.8.1 1.3.1 2.8-.4 4.3z" />
    <path
        fill="@color/surface_secondary"
        d="M17.6 21.1h-1.7c-.4 0-.6-.1-.7-.5-.2-.6-.2-1.2-.2-1.7 0-.9 0-1.7.1-2.6 0-.2.1-.4.3-.5 1.4-.8 2.9-.8 4.3-.1.3.2.4.4.4.7.1.9 0 1.9-.1 2.8 0 .5-.1.9-.2 1.4-.1.3-.2.5-.6.5h-1.6z" />
</svg>