<svg xmlns="http://www.w3.org/2000/svg"
    viewBox="0 0 36 36">
    <path
        fill="#c78d17"
        d="M16.5 27.2V16.9c0-.3-.1-.4-.4-.4H13c-.2 0-.3.1-.3.3v2.8c0 .3.1.4.5.4.3 0 .4-.1.4-.4v-2.1c0-.2-.1-.3-.3-.5h.7c.4.1.7.3.7.8v2.4c0 .5-.5.9-1 .9h-1.2c-.5 0-.9-.4-.9-.9v-3.9c0-.6.4-.9.9-.9h5.1c.2 0 .2.1.2.2v3.5c-.1 2.4 0 4.7-.1 7.1v.2c-.1.2-.3.3-.6.5-.2 0-.4.1-.6.3.1 0 .1 0 0 0z" />
    <path
        fill="#c78d17"
        d="M10.4 15.3c0-.1.1-.2.1-.3.3-.6.8-.9 1.5-.9h4.1c.5 0 .4.1.4-.4v-2.5c0-.3.1-.6.3-.9.5-.6 1.2-.7 1.2-.7.1.1 0 .2-.1.3s-.1.3-.1.4v4.5c0 .3-.1.4-.4.4h-4.8c-.4 0-.8-.1-1.1.2-.1.2-.2.3-.2.5v4.7c0 .3.2.6.5.6.8.2 1.7.1 2.6 0 .3 0 .5-.3.5-.6v-3.2c0-.2-.2-.3-.3-.5.3-.1.7 0 1 .1.4.2.4.5.4.9v2.7c0 .8-.8 1.6-1.7 1.6h-2.6c-.6 0-1-.3-1.3-.8-.1-.1-.1-.2-.2-.3.2-1.8.2-3.8.2-5.8zm9.5-6.5c-.6.7-.4 1.4-.5 2.2v8.8c0 .3 0 .4.3.4h3c.4 0 .5-.1.5-.5v-2.6c0-.4-.5-.7-.9-.5-.1.1-.1.2-.1.3V19c0 .2.1.3.2.5-.4-.2-.8.1-1.1-.3-.1-.1-.1-.2-.1-.4v-2.5c0-.3.3-.7.6-.7.6-.1 1.1-.1 1.7 0 .5 0 .8.4.8 1v3.5c0 .2 0 .5-.2.7-.2.3-.4.5-.7.5h-4.9c-.3 0-.3-.1-.3-.3V10.6c0-.2.1-.6.3-.9.1-.1.5-.7 1.2-.9h.2z" />
    <path
        fill="#c78d17"
        d="M18.2 26.3v-4.6c0-.3.1-.3.3-.3h5.1c.6 0 .9-.3.9-.9v-4.4c0-.5-.4-.8-.8-.8h-1.8c-.7 0-.9.3-.9.9v2.5c0 .2 0 .5.2.6l.1.1-.1.1c-.2.2-.7.1-1-.3-.2-.3-.2-.9-.2-.9v-2.6c0-.7.7-1.6 1.6-1.6h2.5c1 0 1.7.8 1.7 1.6v5c0 .9-.7 1.7-1.7 1.7H20c-.3 0-.3.1-.3.3v2.8c-.1.3-.5.3-.9.5l-.6.3z" />
</svg>