<svg xmlns="http://www.w3.org/2000/svg" viewBox="0 0 36 36"><path fill="#000081" d="M25.4 19.9c-.5 1.5-1.3 2.7-2.4 3.7-3.7 3.4-9.3 2.3-11.5-2.4-.6-1.3-.9-2.6-.9-4 0-.2 0-.4.3-.4h3.5c.3 0 .3 0 .2.3l-.9 3.9c0 .1-.1.3-.1.4 0 .5.1.6.6.6h4.9c1.1 0 1.9-.6 2.5-1.5.4-.6.8-.8 1.4-.7.8.1 1.6.1 2.4.1zM11 14.8c1-3.3 3.9-5.9 7.4-5.7 3.1.1 5.3 1.8 6.6 4.6.6 1.2.8 2.6.8 3.9 0 .3-.1.3-.3.3h-2.1c-.3 0-.4-.1-.3-.4.2-.9.2-1.8 0-2.7-.4-1.4-1.6-2.4-3.1-2.4h-3.8c-.2 0-.3.1-.4.3-.1.6-.3 1.2-.4 1.8 0 .2-.1.3-.3.3H11z"/><path fill="#000081" d="M10.7 16.3c.1-1 .1-1 1-1h7c1.1 0 1.3.3 1.3 1.4 0 .6-.3 1.1-.4 1.6 2 .1 4.1-.1 6.1.1-.1.9-.1.9-1 .9h-7.3c-.3 0-.4 0-.3-.4.2-.8.3-1.5.5-2.3.1-.3 0-.3-.3-.3h-6.6z"/></svg>