<svg xmlns="http://www.w3.org/2000/svg" viewBox="0 0 36 36"><linearGradient id="a" x1="8.834" x2="27.319" y1="17.89" y2="17.89" gradientTransform="matrix(1 0 0 -1 0 35.89)" gradientUnits="userSpaceOnUse"><stop offset=".176" stop-color="#293625"/><stop offset=".18" stop-color="#2b3826"/><stop offset=".224" stop-color="#415230"/><stop offset=".272" stop-color="#576c36"/><stop offset=".326" stop-color="#6b843a"/><stop offset=".387" stop-color="#7d9a3b"/><stop offset=".458" stop-color="#8bac3b"/><stop offset=".545" stop-color="#96b93b"/><stop offset=".668" stop-color="#9dc23b"/><stop offset="1" stop-color="#9fc53b"/></linearGradient><path fill="url(#a)" d="M10.9 21.9s-2.2.2-2.1-.9c.1-1.1 2.4-1.4 2.9-1.4s3 .1 3.9 0c1.1-.1 1.4-.1 2.7-.7-.6 0-2.1.1-3.5.1-1.1 0-1.8-.1-2-.1-.7 0-1.8-.4-1.1-1.5.6-.9 2.1-1.9 3-2.3.9-.4 2.6-1 4.3-1.1 1.7-.1 3.1.1 3.9.4.8.3 1.6 1 .1 3.2.7.1 3.4.4 4.3.5-2.7-.1-7.6-.3-8-.3 0 0 6.2.5 6.8.5h-8.2c5.1.2 5.9.2 6.8.3-1.3 0-2 .1-2.7.1-1.1 1-1.6 1.3-3.4 2.1-1.8.8-3.3.8-4.3 1-1.1.2-3.4.1-3.4.1zm10.6-6c.6-1.1-.6-1.2-1.9-1.1-.1 0-.7.1-1.3.3-.8.3-1.4.7-1.7.8-.3.2-.7.9.1 1 .8.1 3.7.4 3.7.4s.5-.3 1.1-1.4z"/></svg>