<svg xmlns="http://www.w3.org/2000/svg" viewBox="0 0 36 36"><path fill="#009441" d="M18.3 10.1c.3 0 .5.1.8.1 1.9.5 3.1 1.7 3.6 3.7 0 .2.1.4.1.6 0 .3 0 .3.3.3 1 .1 1.9.5 2.6 1.1 1.3 1.2 1.8 2.7 1.5 4.4-.3 1.7-1.3 2.9-2.9 3.6-.9.4-1.8.4-2.7.2-.1 0-.2-.1-.2-.2 0-.5-.1-.9-.1-1.4.1 0 .2 0 .2.1 1.9.7 4-.6 4.3-2.6.3-1.8-1-3.4-2.7-3.7-.6-.1-1.3 0-1.9.1h-.1v-.2c.1-.4.2-.7.2-1.1.1-.5-.1-1-.3-1.4-.3-.6-.8-1.2-1.4-1.6-.8-.6-1.7-.7-2.7-.3-.7.3-1.2.7-1.6 1.3-.4.6-.6 1.4-.5 2.3 0 .3.1.6.2.9v.2c-.2 0-.3-.1-.5-.1-.8-.1-1.6-.2-2.3.2-1.2.5-2 1.6-2 2.9 0 1.5 1 2.9 2.6 3.3.5.1 1.1.1 1.6-.1.1 0 .2-.1.3-.1v.5c0 .3 0 .6-.1.9 0 .1-.1.1-.2.2-.7.2-1.5.2-2.2-.1-1.8-.5-2.9-1.7-3.4-3.5-.7-2.6 1.1-5.3 3.7-5.7.2 0 .3-.1.5-.1.1 0 .2-.1.2-.2 0-.9.3-1.7.8-2.4.8-1.2 2-1.9 3.4-2.1h.9z"/><path fill="#009441" d="M20.8 25.9c-.4-.2-.8-.3-1.1-.5-.2-.1-.3-.2-.5-.2-.2-.1-.2-.2-.2-.4 0-.8-.1-1.6-.1-2.3-.1-1.4-.2-2.7-.2-4.1 0-.9-.1-1.7-.1-2.6v-.5c-.1.1-.2.1-.2.2-.1.1-.2.1-.3 0-.1-.1-.2-.1-.3-.2 0 .3-.1.6-.1 1-.1 1.3-.2 2.6-.2 4-.1 1-.1 2-.2 3 0 .5-.1 1.1-.1 1.6 0 .1 0 .2-.1.2-.6.3-1.1.5-1.7.8v-.6c.1-.7.1-1.3.2-2 .1-.8.1-1.6.2-2.3.1-.8.2-1.6.3-2.5.2-1.1.3-2.1.7-3.1.1-.2.2-.3.2-.5.1-.2.3-.3.5-.3s.3.1.4.2c.1.1.2.1.3 0 .3-.3.7-.3.9.1.2.4.4.8.5 1.3.3 1.3.5 2.6.7 3.9.1 1.1.3 2.3.4 3.4.1.7.1 1.4.2 2.1-.1.1-.1.2-.1.3z"/></svg>