<svg xmlns="http://www.w3.org/2000/svg" viewBox="0 0 36 36"><path fill="#fe0000" d="M24.7 22.2c1.5-2.6 1.7-5.2.3-7.9-1.5-2.8-4-4.2-7.2-4.2-.6 0-.8-.1-.8-.7 0-.5.3-.5.7-.6 4.5-.2 8.7 3.2 9.4 7.6.6 4.1-1.6 8.2-5.3 9.7-.2-.2-.1-.4-.1-.6 0-2.7-.1-5.3-.1-8 0-.6 0-1.3-.9-1.3-.8 0-.8.6-.8 1.2v4.3c0 .5-.2.7-.7.7-.7-.1-1.6.3-2.1-.1-.4-.4-.1-1.3-.1-2v-3c0-.6-.2-1-.9-1s-.8.5-.8 1.1v4.5c0 .4-.1.6-.6.6-2.3.1-2.3.1-2.3-2.2v-7.9c-.4 0-.5.3-.7.5-2 2.5-2.3 6-.7 8.8 1.6 2.7 4.7 4.3 7.9 3.9.3 0 .8-.5.9.3.1.6-.1.9-.8 1-4.7.5-8.9-2.3-10-6.8-1.2-4.4 1.1-8.9 5.3-10.7.9-.4.9-.4.9.6v2.8c0 .5.1.8.7.7h.2c.9 0 1.6.6 2.3.6.7 0 1.5-.6 2.3-.6 1.9 0 3.5 1.4 3.6 3.4.1 1.7 0 3.4 0 5.2.2.1.3.1.4.1z"/></svg>