<svg xmlns="http://www.w3.org/2000/svg" viewBox="0 0 36 36"><path fill="#255140" d="M19.5 8.6c6.2 1 9.6 7.9 6.6 13.4-.8 1.4-2.1 2-3.6 2.2-.7.1-1.5.1-2.2-.1-.4-.1-.5-.2-.5-.6v-5.8c0-1.4-1.3-2.2-2.5-1.6-.7.3-1 .9-1 1.7v4.9c0 .5-.2.7-.7.7-.3 0-.6.1-.9.3 2.1-.1 4 1 6 1.2 1.9.2 3.8-.1 5.2-1.6.3-.3.5-.6.7-.9 0 .8-.2 1.5-.6 2.2-1.3 2.1-3.7 3.1-6.3 2.7-1.1-.2-2.3-.5-3.3-.8-2.2-.8-4.3-.7-6.4.3-.1 0-.2.1-.4 0 .5-.7 1.2-1.4 1.9-1.9.4-.2.4-.3.1-.7-2.5-2.6-3.4-5.6-2.5-9.1 1-3.5 3.4-5.6 6.8-6.5.6 0 3.2-.1 3.6 0z"/><path fill="@color/surface_secondary" d="M13.9 19.9v2.4c0 .2.1.4-.1.5-.2.1-.3-.2-.5-.3-3.7-3.4-2.3-9.7 2.5-11.3 3-1 6.3.2 7.9 2.9 1.6 2.7 1.2 6.2-1.1 8.3-.1.1-.3.4-.5.3-.2-.1-.1-.4-.1-.6v-4.8c-.1-1.9-1.6-3.6-3.4-3.8-2-.3-3.9.8-4.5 2.7-.3.8-.2 1.6-.2 2.3v1.4z"/></svg>