<svg xmlns="http://www.w3.org/2000/svg" viewBox="0 0 36 36"><linearGradient id="a" x1="918.044" x2="937.822" y1="-1238.006" y2="-1237.883" gradientTransform="matrix(.2496 0 0 -.2496 -208.833 -292.476)" gradientUnits="userSpaceOnUse"><stop offset="0" stop-color="#14027c"/><stop offset="1" stop-color="#14027c" stop-opacity="0"/></linearGradient><path fill="url(#a)" d="M9.5 20.1c-.3-.1-.5-.2-.6-.3-.1-.1-.1-.1-.1-.3 0-.2.1-.6.2-.9.2-.6 1-1.7 1.7-2.3 1.5-1.5 3.9-2.8 5.8-3.2.9-.2.7-.2 4.9-.2h3.8v1.4h-3.3c-3.1 0-3.2 0-3.6.1-.7.1-1.2.3-1.8.5-.4.1-1.1.5-1.4.7-.9.5-1.7 1.3-2 1.9-.1.2-.2.5-.2.8 0 .1.2.3.4.4.1 0 .2.1.4.1.2.1.3.1 3.2.1h3l-.1.1c-.1.1-.5.5-.7.6-.4.3-.9.5-1.4.5H9.5z"/><linearGradient id="b" x1="897.121" x2="879.958" y1="-1250.03" y2="-1250.03" gradientTransform="matrix(.2496 0 0 -.2496 -208.833 -292.476)" gradientUnits="userSpaceOnUse"><stop offset="0" stop-color="red"/><stop offset="1" stop-color="red" stop-opacity="0"/></linearGradient><path fill="url(#b)" d="M26.5 15.9c.3.1.5.2.6.3.1.1.1.1.1.3 0 .2-.1.6-.2.9-.2.6-1 1.7-1.7 2.3-1.5 1.5-3.9 2.8-5.8 3.2-.9.2-.7.2-4.9.2h-3.8v-1.4h3.3c3.1 0 3.2 0 3.6-.1.7-.1 1.2-.3 1.8-.5.4-.1 1.1-.5 1.4-.7.9-.5 1.7-1.3 2-1.9.1-.2.2-.5.2-.8 0-.1-.2-.3-.4-.4-.1 0-.2-.1-.4-.1-.2-.1-.3-.1-3.2-.1h-3l.1-.1c.1-.1.5-.5.7-.6.4-.3.9-.5 1.4-.5h8.2z"/></svg>