<svg xmlns="http://www.w3.org/2000/svg" viewBox="0 0 36 36"><path fill="#003d80" d="M27.2 20.9c-1.2-.2-2.4-.5-3.4-1.3-.8-.6-1.5-1.2-2.3-1.8-.6-.5-1.3-.8-2.1-.8-.2 0-.5.1-.7.2-.3.2-.3.4-.1.6.3.3.6.4 1 .5 0 0 .1 0 .2.1-.5.1-.9.1-1.3 0-1-.4-1.2-.2-1.9.6-.2.3-.4.5-.5.9-.2.4-.1.7.4.9.6.3 1.3.4 1.9.5 0 0 .1 0 .1.1h-1.4c-.7 0-1.4-.1-2-.3-.1 0-.3-.1-.4-.1-.5-.3-.7-.6-.4-1.2.3-.7.8-1.3 1.4-1.9.2-.2.5-.4.7-.7-.5-.3-.9-.6-1.3-.7-.6-.2-1.2-.1-1.7.2-1.1.7-1.9 1.6-2.4 2.8-.3.6-.1 1 .6 1.2.5.1.9.2 1.4.4h-.4c-.8 0-1.6 0-2.4-.2-.1 0-.3-.1-.4-.1-.8-.3-1-.8-.7-1.5s.7-1.2 1.2-1.8c.8-.8 1.5-1.6 2.5-2.2 1.1-.7 2.2-.7 3.3 0 .3.2.6.4.9.7.5.4.5.4 1 .1 1.1-.6 2.1-.6 3.2.1.8.5 1.5 1.1 2.1 1.7 1 .9 2 1.9 3.2 2.6.1.1.4.2.7.4z"/></svg>