<svg xmlns="http://www.w3.org/2000/svg" viewBox="0 0 36 36"><path fill="#ff5a47" d="M26.5,18.6l-1.4,2 1.4,2h1.4v-4h-1.4z"/><path fill="#fe8047" d="M23.7,18.6h2.8v4h-2.8v-4z"/><path fill="#a4d43b" d="M26.5,13.2l-1.4,2 1.4,2h1.4v-4h-1.4z"/><path fill="#cce332" d="M23.7,13.2h2.8v4h-2.8v-4z"/><path fill="#fcc023" d="M26.5,7.8l-1.4,2 1.4,2h1.4v-4h-1.4z"/><path fill="#fcd72b" d="M23.7,7.8h2.8v4h-2.8v-4z"/><path fill="#0f4c81" d="M10.2,6.4l5.6,19.8H8.1V8.5c0,-1.2 1,-2.1 2.1,-2.1z"/><path fill="#2d6aab" d="M25.1,6.4V24l-5.6,0.7 4.2,-18.4h1.4z"/><path fill="#4b88d5" d="M23.7,6.4v18.4H10.2V6.4h9.9l1.1,1.4 1.1,-1.4h1.4z"/><path fill="#0f4c81" d="M25.1,28.2v1.4h-1.4l-1.4,-2.8 2.8,1.4zM25.1,24v1.4l-2.8,1.4 1.4,-2.8h1.4z"/><path fill="#2d6aab" d="M10.2,24c-1.2,0 -2.1,0.9 -2.1,2.1v1.4c0,1.2 0.9,2.1 2.1,2.1h9.9l1.1,-0.7 1.1,0.7h1.4V24H10.2z"/><path fill="#fff7ba" d="M23.7,25.4h1.4c-0.4,0.4 -0.6,0.9 -0.6,1.4l-2.8,0.7 2,-2.1z"/><path fill="#fff04a" d="M25.1,28.2h-1.4l-2,-1.4h2.8c0,0.5 0.2,1.1 0.6,1.4z"/><path fill="#fff7ba" d="M23.7,28.2H10.2c-0.4,0 -0.7,-0.3 -0.7,-0.7v-0.7l0.7,-0.7h12.2l0.7,0.7c0,0.5 0.2,1.1 0.6,1.4z"/><path fill="#fff" d="M10.2,25.4h13.5c-0.4,0.4 -0.6,0.9 -0.6,1.4H9.5v-0.7c0,-0.4 0.3,-0.7 0.7,-0.7z"/><path fill="#404242" d="M20.2,24v5.6h2.1V24l-1.1,-1.4 -1,1.4z"/><path fill="#565959" d="M20.2,6.4h2.1V24h-2.1V6.4z"/><path fill="#FF000000" d="M27.9,12.1c0.2,0 0.4,-0.2 0.4,-0.4v-4c0,-0.2 -0.2,-0.4 -0.4,-0.4h-2.5v-0.9c0,-0.2 -0.2,-0.4 -0.4,-0.4L10.2,6C8.9,6 7.8,7.1 7.8,8.5v19.1c0,1.4 1.1,2.5 2.5,2.5h14.9c0.2,0 0.4,-0.2 0.4,-0.4v-1.4c0,-0.1 0,-0.2 -0.1,-0.2 -0.6,-0.6 -0.6,-1.7 0,-2.3 0.1,-0.1 0.1,-0.2 0.1,-0.2L25.6,23h2.5c0.2,0 0.4,-0.2 0.4,-0.4v-4c0,-0.2 -0.2,-0.4 -0.4,-0.4h-2.5v-0.7h2.5c0.2,0 0.4,-0.2 0.4,-0.4v-4c0,-0.2 -0.2,-0.4 -0.4,-0.4h-2.5L25.6,12l2.3,0.1zM27.5,8.1v3.3h-2.1L25.4,8.1h2.1zM24.7,23.7h-2.1v-17h2.1v17zM19.8,26.5L9.9,26.5v-0.4c0,-0.2 0.2,-0.4 0.4,-0.4h9.6v0.8zM9.9,27.2h9.9v0.7h-9.6c-0.2,0 -0.4,-0.2 -0.4,-0.4v-0.3zM20.5,6.7h1.4v22.6h-1.4L20.5,6.7zM22.6,27.2h1.6c0,0.2 0.1,0.5 0.2,0.7h-1.8v-0.7zM24.2,26.5h-1.6v-0.7h1.8c-0.1,0.2 -0.2,0.4 -0.2,0.7zM22.6,25.1v-0.7h2.1v0.7h-2.1zM8.5,8.5c0,-0.8 0.6,-1.6 1.4,-1.7v17c-0.5,0.1 -1,0.3 -1.4,0.7v-16zM8.5,27.5v-1.4c0,-1 0.8,-1.8 1.8,-1.8 0.2,0 0.4,-0.2 0.4,-0.4L10.7,6.7h9.2v17h-8.2c-0.2,0 -0.4,0.2 -0.4,0.4s0.2,0.4 0.4,0.4h8.2v0.7h-9.6c-0.6,0 -1.1,0.5 -1.1,1.1v1.4c0,0.6 0.5,1.1 1.1,1.1h9.6v0.7h-9.6c-1.1,-0.2 -1.8,-1 -1.8,-2zM22.6,29.3v-0.7h2.1v0.7h-2.1zM27.5,19v3.3h-2.1L25.4,19h2.1zM27.5,13.5v3.3h-2.1v-3.3h2.1z"/></svg>