<svg xmlns="http://www.w3.org/2000/svg" viewBox="0 0 36 36"><path fill="#d8e2f1" d="M19.4,11.1h-1.2l-1.1,4.1h3.5l-1.2,-4.1z"/><path fill="#b9cbea" d="M19.4,11.1h-1.2v0.1l1.1,4h1.3l-1.2,-4.1z"/><path fill="#e7ecf6" d="M11.5,10.9l-1.1,0.8c-0.1,0.1 -0.2,0.2 -0.2,0.4v3.1h1.7v-4.1c-0.1,-0.2 -0.3,-0.3 -0.4,-0.2z"/><path fill="#d8e2f1" d="M27.2,18.7h-1.9v-3.5c0,-0.1 0.1,-0.2 0.2,-0.2H27c0.1,0 0.2,0.1 0.2,0.2v3.5zM11.5,10.9l-0.5,0.3v3.9h0.8V11c0,-0.1 -0.2,-0.2 -0.3,-0.1z"/><path fill="#b9cbea" d="M27,15h-0.8c0.1,0 0.2,0.1 0.2,0.2v3.5h0.8v-3.5c0,-0.1 -0.1,-0.2 -0.2,-0.2z"/><path fill="#d8e2f1" d="M12.5,14.3H9.4c-0.1,0 -0.2,0.1 -0.2,0.2v5.1h3.6v-5.1c0,-0.1 -0.1,-0.2 -0.3,-0.2z"/><path fill="#b9cbea" d="M12.5,14.3h-1.3c0.1,0 0.2,0.1 0.2,0.2v5.1h1.3v-5.1c0.1,-0.1 0,-0.2 -0.2,-0.2z"/><path fill="#e7ecf6" d="M28.8,26.4h-5.1V18c0,-0.1 0.1,-0.2 0.2,-0.2h4.6c0.1,0 0.2,0.1 0.2,0.2v8.4zM21.8,26.9h-6V15c0,-0.1 0.1,-0.2 0.2,-0.2h5.5c0.1,0 0.2,0.1 0.2,0.2v11.9zM14,26.6H8V16.1c0,-0.2 0.2,-0.3 0.4,-0.2l5.4,3.6c0.1,0.1 0.2,0.2 0.2,0.4v6.7zM17.1,11.9v-1.1c0,-0.1 0.1,-0.2 0.2,-0.2h3c0.1,0 0.2,0.1 0.2,0.2v1.1c0,0.1 -0.1,0.2 -0.2,0.2h-3c-0.1,0 -0.2,-0.1 -0.2,-0.2z"/><path fill="#d8e2f1" d="M20.3,10.6h-0.8c0.1,0 0.2,0.1 0.2,0.2v1.1c0,0.1 -0.1,0.2 -0.2,0.2h0.8c0.1,0 0.2,-0.1 0.2,-0.2v-1.1c0.1,-0.1 0,-0.2 -0.2,-0.2zM28.6,17.7h-1.7c0.1,0 0.2,0.1 0.2,0.2v8.5h1.7V18c0,-0.2 -0.1,-0.3 -0.2,-0.3z"/><path fill="#90d8f9" d="M28.8,24.2h-3c-0.1,0 -0.2,-0.1 -0.2,-0.2v-4.2c0,-0.1 0.1,-0.2 0.2,-0.2h3v4.6z"/><path fill="#d8e2f1" d="M21.6,14.7h-1.7c0.1,0 0.2,0.1 0.2,0.2v11.9h1.7V15c0,-0.2 -0.1,-0.3 -0.2,-0.3zM13.8,19.5l-1.4,-1v8H14v-6.6c0,-0.1 -0.1,-0.3 -0.2,-0.4z"/><path fill="#d8e2f1" d="M29.4,27.7H6.6c-0.1,0 -0.2,-0.1 -0.2,-0.2v-1.7c0,-0.1 0.1,-0.2 0.2,-0.2h22.8c0.1,0 0.2,0.1 0.2,0.2v1.7c0,0.1 -0.1,0.2 -0.2,0.2z"/><path fill="#b9cbea" d="M29.4,25.6h-1.1v0.6c0,0.1 -0.1,0.2 -0.2,0.2H6.4v1.1c0,0.1 0.1,0.2 0.2,0.2h22.8c0.1,0 0.2,-0.1 0.2,-0.2v-1.7c0,-0.1 -0.1,-0.2 -0.2,-0.2z"/><path fill="#90d8f9" d="M21.8,24.2H18c-0.1,0 -0.2,-0.1 -0.2,-0.2v-7.5c0,-0.1 0.1,-0.2 0.2,-0.2h3.8v7.9zM8,21.1h6v3.1H8v-3.1z"/><path fill="#75cef9" d="M27.2,19.6h1.7v4.6h-1.7v-4.6zM20.1,16.2h1.7v8h-1.7v-8zM12.3,21.1H14v3.1h-1.7v-3.1z"/><path fill="#FF000000" d="M29.4,25.3h-0.2L29.2,18c0,-0.3 -0.3,-0.6 -0.6,-0.6h-1v-2.1c0,-0.3 -0.3,-0.6 -0.6,-0.6h-0.3v-1.1c0,-0.2 -0.2,-0.4 -0.4,-0.4s-0.4,0.2 -0.4,0.4v1.1h-0.3c-0.3,0 -0.6,0.3 -0.6,0.6v2.1h-1c-0.3,0 -0.6,0.3 -0.6,0.6v1.2c0,0.2 0.2,0.4 0.4,0.4s0.4,-0.2 0.4,-0.4v-1.1h4.4v1.1L26,19.2c-0.3,0 -0.6,0.3 -0.6,0.6L25.4,24c0,0.3 0.3,0.6 0.6,0.6h2.6v0.7h-4.4v-4.4c0,-0.2 -0.2,-0.4 -0.4,-0.4s-0.4,0.2 -0.4,0.4v4.4h-1.2L22.2,15c0,-0.3 -0.3,-0.6 -0.6,-0.6h-0.9l-0.5,-1.9h0.2c0.3,0 0.6,-0.3 0.6,-0.6v-1.1c0,-0.3 -0.3,-0.6 -0.6,-0.6h-1.2L19.2,8.3c0,-0.2 -0.2,-0.4 -0.4,-0.4s-0.4,0.2 -0.4,0.4v1.9h-1.2c-0.3,0 -0.6,0.3 -0.6,0.6v1.1c0,0.3 0.3,0.6 0.6,0.6h0.2l-0.4,1.9h-0.9c-0.3,0 -0.6,0.3 -0.6,0.6v10.3h-1.2L14.3,20c0,-0.3 -0.1,-0.5 -0.4,-0.7l-0.8,-0.6v-4.1c0,-0.3 -0.3,-0.6 -0.6,-0.6h-0.3v-2.9c0,-0.2 -0.1,-0.4 -0.3,-0.5 -0.2,-0.1 -0.4,-0.1 -0.6,0l-1.1,0.8c-0.2,0.2 -0.4,0.4 -0.4,0.7L9.8,14h-0.4c-0.3,0 -0.6,0.3 -0.6,0.6v1.3l-0.3,-0.2c-0.2,-0.1 -0.4,-0.1 -0.6,0 -0.2,0.1 -0.3,0.3 -0.3,0.5v9.1h-1c-0.3,0 -0.6,0.3 -0.6,0.6v1.7c0,0.3 0.3,0.6 0.6,0.6h5.7c0.2,0 0.4,-0.2 0.4,-0.4s-0.2,-0.4 -0.4,-0.4L6.7,27.4L6.7,26h22.6v1.4L14,27.4c-0.2,0 -0.4,0.2 -0.4,0.4s0.2,0.4 0.4,0.4h15.4c0.3,0 0.6,-0.3 0.6,-0.6v-1.7c0,-0.4 -0.3,-0.6 -0.6,-0.6zM25.7,15.4h1.2v2h-1.2v-2zM26,21.4h2.5v1L26,22.4v-1zM28.5,19.9v0.8L26,20.7v-0.8h2.5zM26,23.8v-0.7h2.5v0.7L26,23.8zM19.4,19.7h2v1h-2v-1zM18.7,20.7h-0.6v-1h0.6v1zM21.5,19h-2v-1h2v1zM18.7,19h-0.6v-1h0.6v1zM18.1,21.4h0.6v1h-0.6v-1zM19.4,21.4h2v1h-2v-1zM21.5,17.2h-2v-0.7h2v0.7zM18.7,17.2h-0.6v-0.7h0.6v0.7zM18.1,23.1h0.6v0.7h-0.6v-0.7zM19.4,23.1h2v0.7h-2v-0.7zM17.4,10.9h2.8v0.8h-2.8v-0.8zM18.2,12.4h1.2l0.5,1.9h-2.2l0.5,-1.9zM16.2,15.1h5.3v0.7L18,15.8c-0.3,0 -0.6,0.3 -0.6,0.6L17.4,24c0,0.3 0.3,0.6 0.6,0.6h3.5v0.7h-5.3L16.2,15.1zM8.4,23h5.3v0.9L8.4,23.9L8.4,23zM10.5,12.1c0,-0.1 0,-0.1 0,0l1,-0.8v2.6h-1v-1.8zM9.6,14.7h2.9v3.6l-2.9,-1.9v-1.7zM13.6,19.8s0,0.1 0,0l0.1,0.9h-3c-0.2,0 -0.4,0.2 -0.4,0.4s0.2,0.4 0.4,0.4h3v0.9L8.4,22.4v-0.9h0.5c0.2,0 0.4,-0.2 0.4,-0.4s-0.2,-0.4 -0.4,-0.4h-0.5v-4.4l5.2,3.5zM8.4,24.5h5.3v0.7L8.4,25.2v-0.7z"/></svg>