<svg xmlns="http://www.w3.org/2000/svg" viewBox="0 0 36 36"><path fill="#cb0000" d="M27.1,12.2v4.7c-0.7,0.4 -1.5,0.3 -2.2,0.1 -0.4,-0.1 -0.4,-0.5 -0.4,-0.8v-2.6c0,-1.4 -0.7,-2.1 -2,-2.1h-8.9c-1.4,0 -2,0.7 -2,2.1v10.1c0,0.8 0,0.9 0.9,0.9h11.2c0.8,0 0.9,0 0.9,-0.9v-2.9c0,-0.7 0.2,-1 1,-0.9 0.5,0 1.1,-0.2 1.6,0.2 0,2.3 0.1,4.7 0,7 -0.1,0.1 -0.2,0 -0.3,0H9.2c-0.2,-0.1 -0.1,-0.3 -0.1,-0.5V12.8c0,-1.5 0.5,-2.7 1.8,-3.5 0.7,-0.4 1.4,-0.5 2.1,-0.5h10.5c1.4,0 2.6,0.5 3.4,1.7 0.1,0.6 0.1,1.2 0.2,1.7z"/><path fill="#cb0000" d="M8.9,27.2v-0.1L27,27.1c0.1,0 0.1,0.1 0,0.1L8.9,27.2zM12.9,18.7L12.9,15c0,-1.4 0.8,-2.1 2.1,-2.1h6c1.4,0 2.2,0.7 2.2,2.1v7.7c0,0.4 -0.1,0.5 -0.5,0.5 -0.6,-0.1 -1.4,0.3 -1.8,-0.1 -0.4,-0.4 -0.1,-1.2 -0.1,-1.8L20.8,16c0,-0.5 -0.2,-0.7 -0.7,-0.7h-4.2c-0.6,0 -0.7,0.2 -0.7,0.7v6.3c0,0.9 0,0.9 -0.9,0.9h-1c-0.4,0 -0.5,-0.1 -0.5,-0.5 0.1,-1.3 0.1,-2.7 0.1,-4z"/><path fill="#cb0000" d="M16.9,20v-2.7c0,-0.3 0.1,-0.4 0.4,-0.4h1.5c0.3,0 0.5,0.1 0.5,0.5v5.4c0,0.3 -0.1,0.4 -0.4,0.4h-1.5c-0.3,0 -0.4,-0.1 -0.4,-0.4 -0.1,-1 -0.1,-1.9 -0.1,-2.8z"/></svg>