<svg xmlns="http://www.w3.org/2000/svg" viewBox="0 0 36 36"><path fill="#1b2a87" d="M27,18.5c-2,-0.3 -4.1,-0.7 -6.1,-1 -1.1,-0.2 -2.2,-0.4 -3.3,-0.4 -1,0 -1.9,0.2 -2.6,0.9 -0.2,0.2 -0.6,0.4 -0.5,0.8s0.5,0.3 0.8,0.4c0.8,0.1 1.7,0.2 2.5,0.2 3,0.2 6,0.4 9.1,0.6 0.6,0 0.4,0.5 0.3,0.7 -0.3,0.8 -0.6,1.6 -1.1,2.4 -3.4,4.9 -10.6,4.6 -13.6,-0.6 -0.2,-0.3 -0.4,-0.7 -0.5,-1.1h2.8c0.3,0 0.4,0.2 0.5,0.4 1.2,1.5 2.6,2.6 4.5,2.9 2.7,0.5 5.5,-1 6.4,-3.5 0.2,-0.4 0.2,-0.5 -0.4,-0.5 -4.3,0 -8.7,-0.1 -13,-0.1 -0.8,0 -1.6,-0.1 -2.4,-0.1 -0.6,0 -1.1,-0.2 -1.5,-0.7v-0.3c1.2,-1.7 3,-2.6 4.8,-3.4 0.8,-0.4 1.6,-0.6 2.5,-0.6 1.4,-0.1 2.4,0.2 3.2,0.4 4.1,1.2 7.7,2.7 7.7,2.7s0,-0.1 -0.1,-0.1z"/><path fill="#a70000" d="M26.7,15.5c-0.7,-1.5 -1.8,-2.8 -3.4,-3.5 -2.8,-1.1 -6.1,-0.2 -7.9,2.2 -0.1,0.1 -0.1,0.3 -0.3,0.3 -1.1,0.3 -2.3,0.5 -3.4,0.8 0.2,-0.7 0.9,-2.4 2.5,-3.7 2.3,-1.9 4.9,-1.9 5.5,-1.9l1.5,0.3c0.7,0.2 2.3,0.7 3.7,2.1 1.3,1.2 1.8,2.5 2.1,3.2 0,0 0,0.1 -0.3,0.2z"/></svg>