<svg xmlns="http://www.w3.org/2000/svg" viewBox="0 0 36 36"><path fill="#ef1616" d="M27.2,13c-0.2,0.1 -0.3,0.1 -0.5,0.1 -2.2,0.3 -4.3,0.8 -6.3,1.8 -1.3,0.6 -2.5,1.4 -3.3,2.7 -0.5,0.8 -0.8,1.7 -0.8,2.7 0,0.6 0.3,0.9 0.8,1.2 0.7,0.5 1.6,0.7 2.4,1 1.6,0.4 3.3,0.5 4.9,0.7 0.3,0 0.6,0.1 0.9,0.1 -1.5,0.1 -3,0 -4.5,0 -1.9,0 -3.7,0.1 -5.6,-0.1 -1,-0.1 -2,-0.2 -3,-0.6 -0.2,-0.1 -0.4,-0.2 -0.5,-0.3 -0.5,-0.3 -0.6,-0.7 -0.4,-1.2 0.4,-1.3 1.3,-2.3 2.3,-3.2 1.8,-1.6 3.9,-2.7 6.2,-3.6 1.6,-0.6 3.3,-1.1 5,-1.3 0.7,-0.1 1.4,-0.1 2.1,0 0.2,-0.1 0.3,-0.1 0.3,0z"/><path fill="#ef1616" d="M20.3,13.7c-1.3,0.4 -2.5,0.9 -3.7,1.5 -2.1,1.1 -4.1,2.4 -5.7,4.2 -0.4,0.4 -0.7,0.8 -0.9,1.3 -0.3,0.7 -0.5,1.3 0,2 0,0 0.1,0.1 0,0.1h-0.1c-0.6,-0.1 -1,-0.6 -1.1,-1.2 0,-0.6 0.2,-1.2 0.6,-1.8 0.7,-1 1.6,-1.8 2.6,-2.5 2.3,-1.7 4.8,-2.9 7.5,-3.5 0.2,-0.1 0.5,-0.2 0.8,-0.1z"/></svg>