<svg xmlns="http://www.w3.org/2000/svg" viewBox="0 0 36 36"><path fill="#0066b4" d="M13.4,17.6c-0.5,0.4 -0.7,0.9 -0.7,0.9 -0.1,0.2 -0.2,0.5 -0.2,0.8 0,0.4 0.1,0.8 0.5,1 0.2,0.1 0.4,0.2 0.6,0.2 -1.1,0 -2.3,0 -3.4,-0.2 -0.4,-0.1 -0.7,-0.2 -1,-0.4 -0.2,-0.2 -0.3,-0.4 -0.4,-0.5 -0.3,-0.9 1.6,-3.3 4.1,-3.7 1.5,-0.2 3,0.3 3.4,0.4 0.3,0.1 0.5,0.2 0.7,0.3 -1.7,0.1 -3,0.6 -3.6,1.2z"/><path fill="#79bce8" d="M27.2,20h-0.7c-0.2,0 -0.4,-0.1 -0.7,-0.1 -2.5,-0.3 -5,-1 -7.5,-1.6 -1,-0.2 -2,-0.4 -3,-0.4 -0.2,0 -0.4,0 -0.7,0.1 0.5,-0.2 1,-0.3 1.5,-0.3 0.7,-0.1 1.5,-0.1 2.4,0 1,0.1 1.8,0.2 2.5,0.3 5,1.5 6.2,1.9 6.2,2z"/><path fill="#0483cb" d="M17.4,16.5c0.6,0.1 1,0.3 1.3,0.5 0.6,0.3 1.2,0.5 1.8,0.8 0,0 0.1,0 0.1,0.1 -0.3,0 -0.6,-0.1 -0.9,-0.1 -1.5,-0.2 -3,-0.3 -4.5,-0.1 -0.9,0.1 -1.6,0.4 -2.3,1.1 -0.2,0.2 -0.4,0.4 -0.5,0.7 0,-0.1 0,-0.3 0.1,-0.5 0,0 0.1,-0.4 0.3,-0.7 0.2,-0.3 1,-1.1 2.2,-1.5 0.5,-0.2 1.3,-0.5 2.4,-0.3z"/></svg>