<svg xmlns="http://www.w3.org/2000/svg" viewBox="0 0 36 36"><path fill="#d80027" d="M26.2,18.2l-5.6,5.2 7.9,6.6V16z"/><path fill="#ff5023" d="M7.5,16v14l7.9,-6.6z"/><path fill="#d80027" d="M15.4,23.4L7.5,30H18v-4.1z"/><path fill="#a2001d" d="M18,25.9V30h10.5l-7.9,-6.6z"/><path fill="#ff5023" d="M9.8,13.7L7.5,16h2.3z"/><path fill="#ff5023" d="M28.5,16l-2.3,-2.3V16z"/><path fill="#ff5023" d="M18,6l-3.7,3.5h7.4z"/><path fill="#a2001d" d="M26.2,18.2l2.3,-2.2h-2.3z"/><path fill="#a2001d" d="M18,25.9l-8.2,-7.7V16H7.5l7.9,7.4z"/><path fill="#dedde0" d="M9.8,18.2l8.2,7.7 2.6,-2.5 5.6,-5.3L26.2,9.5L9.7,9.5v6.4l0.1,2.3zM12.7,16.5h10.5v1.8L12.7,18.3v-1.8zM12.7,14.8L12.7,13h10.5v1.8L12.7,14.8z"/><path fill="#fff" d="M12.7,13h10.5v1.8H12.7z"/><path fill="#fff" d="M12.7,16.5h10.5v1.8H12.7z"/></svg>