<svg xmlns="http://www.w3.org/2000/svg" viewBox="0 0 36 36"><path fill="#e40000" d="M15.5,15zM15.9,15h-0.1,0.1zM15.7,15h-0.1,0.1zM19.2,15.5c0.7,0.1 1.3,0.2 2,0.3 0.1,0 0.3,0.1 0.4,0.1h-0.1c-0.3,0 -0.7,-0.1 -1,-0.1 -1,-0.1 -1.8,-0.1 -2,-0.1 -1.6,0 -5.1,0.7 -5.9,2.8 0,0.1 0,0.1 -0.1,0.1 1.5,-0.6 2.9,-1 3.9,-1.3 0.3,-0.1 1.2,-0.3 2.4,-0.5s2.6,-0.4 4.4,-0.4c1.7,0 2.9,0.3 3.4,0.4 0.3,0.1 0.5,0.1 0.6,0.1h-1.1c-0.7,0 -1.3,0 -2,0.1l-2.1,0.3c-1.8,0.3 -3.2,0.7 -4.2,1 -2.7,0.9 -4.1,1.3 -5.2,1.9 0,0 -0.6,0.3 -1.9,0.7 -0.3,0.1 -0.6,0.1 -1,0.1 -0.1,0 -0.2,0 -0.3,-0.1 -0.4,-0.1 -0.5,-0.4 -0.5,-0.8 0,-0.2 0.1,-0.4 0.2,-0.6 0.6,-1 1.4,-1.8 2.3,-2.6l1.5,-1.2c0.5,-0.3 1.1,-0.6 1.8,-0.8 0.3,-0.1 0.6,-0.1 0.8,-0.1 1.2,0.2 2.5,0.5 3.7,0.7zM21.6,15.9z"/></svg>