<svg xmlns="http://www.w3.org/2000/svg" viewBox="0 0 36 36"><path fill="#009441" d="M18.3,10.1c0.3,0 0.5,0.1 0.8,0.1 1.9,0.5 3.1,1.7 3.6,3.7 0,0.2 0.1,0.4 0.1,0.6 0,0.3 0,0.3 0.3,0.3 1,0.1 1.9,0.5 2.6,1.1 1.3,1.2 1.8,2.7 1.5,4.4 -0.3,1.7 -1.3,2.9 -2.9,3.6 -0.9,0.4 -1.8,0.4 -2.7,0.2 -0.1,0 -0.2,-0.1 -0.2,-0.2 0,-0.5 -0.1,-0.9 -0.1,-1.4 0.1,0 0.2,0 0.2,0.1 1.9,0.7 4,-0.6 4.3,-2.6 0.3,-1.8 -1,-3.4 -2.7,-3.7 -0.6,-0.1 -1.3,0 -1.9,0.1h-0.1v-0.2c0.1,-0.4 0.2,-0.7 0.2,-1.1 0.1,-0.5 -0.1,-1 -0.3,-1.4 -0.3,-0.6 -0.8,-1.2 -1.4,-1.6 -0.8,-0.6 -1.7,-0.7 -2.7,-0.3 -0.7,0.3 -1.2,0.7 -1.6,1.3 -0.4,0.6 -0.6,1.4 -0.5,2.3 0,0.3 0.1,0.6 0.2,0.9v0.2c-0.2,0 -0.3,-0.1 -0.5,-0.1 -0.8,-0.1 -1.6,-0.2 -2.3,0.2 -1.2,0.5 -2,1.6 -2,2.9 0,1.5 1,2.9 2.6,3.3 0.5,0.1 1.1,0.1 1.6,-0.1 0.1,0 0.2,-0.1 0.3,-0.1v0.5c0,0.3 0,0.6 -0.1,0.9 0,0.1 -0.1,0.1 -0.2,0.2 -0.7,0.2 -1.5,0.2 -2.2,-0.1 -1.8,-0.5 -2.9,-1.7 -3.4,-3.5 -0.7,-2.6 1.1,-5.3 3.7,-5.7 0.2,0 0.3,-0.1 0.5,-0.1 0.1,0 0.2,-0.1 0.2,-0.2 0,-0.9 0.3,-1.7 0.8,-2.4 0.8,-1.2 2,-1.9 3.4,-2.1h0.9z"/><path fill="#009441" d="M20.8,25.9c-0.4,-0.2 -0.8,-0.3 -1.1,-0.5 -0.2,-0.1 -0.3,-0.2 -0.5,-0.2 -0.2,-0.1 -0.2,-0.2 -0.2,-0.4 0,-0.8 -0.1,-1.6 -0.1,-2.3 -0.1,-1.4 -0.2,-2.7 -0.2,-4.1 0,-0.9 -0.1,-1.7 -0.1,-2.6v-0.5c-0.1,0.1 -0.2,0.1 -0.2,0.2 -0.1,0.1 -0.2,0.1 -0.3,0 -0.1,-0.1 -0.2,-0.1 -0.3,-0.2 0,0.3 -0.1,0.6 -0.1,1 -0.1,1.3 -0.2,2.6 -0.2,4 -0.1,1 -0.1,2 -0.2,3 0,0.5 -0.1,1.1 -0.1,1.6 0,0.1 0,0.2 -0.1,0.2 -0.6,0.3 -1.1,0.5 -1.7,0.8v-0.6c0.1,-0.7 0.1,-1.3 0.2,-2 0.1,-0.8 0.1,-1.6 0.2,-2.3 0.1,-0.8 0.2,-1.6 0.3,-2.5 0.2,-1.1 0.3,-2.1 0.7,-3.1 0.1,-0.2 0.2,-0.3 0.2,-0.5 0.1,-0.2 0.3,-0.3 0.5,-0.3s0.3,0.1 0.4,0.2c0.1,0.1 0.2,0.1 0.3,0 0.3,-0.3 0.7,-0.3 0.9,0.1 0.2,0.4 0.4,0.8 0.5,1.3 0.3,1.3 0.5,2.6 0.7,3.9 0.1,1.1 0.3,2.3 0.4,3.4 0.1,0.7 0.1,1.4 0.2,2.1 -0.1,0.1 -0.1,0.2 -0.1,0.3z"/></svg>