<svg xmlns="http://www.w3.org/2000/svg" viewBox="0 0 36 36"><path fill="#2b70b8" d="M17.2,17.7l-0.6,0.9c0,0.1 -0.1,0.1 -0.1,0.1h-5.3c-0.2,0 -0.4,0 -0.6,0.2 -0.1,0.1 -0.2,0.2 -0.2,0.3 0,0.1 0.2,0.1 0.3,0.1h3v0.1c-0.1,0.2 -0.3,0.5 -0.4,0.7 0,0.1 -0.1,0.1 -0.1,0.1h-3.1c-0.3,0 -0.6,-0.1 -0.9,-0.2 -0.2,-0.1 -0.3,-0.3 -0.3,-0.5 -0.1,-0.3 0,-0.6 0.2,-0.9 0.3,-0.4 0.6,-0.7 0.9,-1.1 0.3,-0.4 0.7,-0.8 1,-1.2 0.3,-0.4 0.7,-0.6 1.1,-0.7 0.4,-0.1 0.7,-0.1 1.1,-0.1h14v0.1c-0.2,0.3 -0.3,0.5 -0.5,0.8 0,0.1 -0.1,0.1 -0.1,0.1H13.7c-0.5,0 -0.9,0.1 -1.4,0.3 -0.2,0.1 -0.4,0.3 -0.6,0.5l-0.3,0.3h5.7s0.1,0 0,0.1c0.1,-0.1 0.1,0 0.1,0z"/><path fill="#2b70b8" d="M10.1,16.9c0.1,-0.3 0.2,-0.6 0.4,-0.9 0.1,-0.2 0.3,-0.4 0.4,-0.6 0.2,-0.2 0.3,-0.4 0.6,-0.6 0.6,-0.6 1.4,-1 2.2,-1.4 1.1,-0.4 2.2,-0.6 3.3,-0.7h1.6c0.9,0.1 1.8,0.3 2.7,0.6 0.8,0.3 1.6,0.8 2.3,1.3 0.2,0.2 0.5,0.4 0.7,0.6v0.1h-2.8c-0.9,-0.6 -1.8,-1.1 -2.8,-1.3 -0.3,-0.1 -0.6,-0.2 -1,-0.2s-0.7,0 -1.1,0.1c-1,0.2 -1.9,0.5 -2.7,1.1l-0.1,0.1c-0.1,0.2 -0.3,0.2 -0.5,0.2 -0.4,0 -0.9,0 -1.3,0.1 -0.5,0.2 -1,0.4 -1.4,0.9 -0.1,0.1 -0.2,0.3 -0.5,0.6 0.1,-0.1 0.1,0 0,0zM26.1,17.7c-0.2,0.3 -0.3,0.7 -0.5,1 0,0.1 -0.1,0.1 -0.1,0.1h-7.7c0.1,-0.2 0.2,-0.3 0.3,-0.4 0.2,-0.3 0.3,-0.5 0.5,-0.8 0,-0.1 0.1,-0.1 0.1,-0.1h7.5c0,0.1 -0.1,0.1 -0.1,0.2zM10.7,20.4c0.1,0 0.1,0 0,0h2.5c0.7,0.8 1.6,1.2 2.5,1.5 0.6,0.2 1.1,0.3 1.7,0.3 0.3,0 0.6,0 0.9,-0.1 1,-0.2 1.9,-0.5 2.7,-1 0.3,-0.2 0.6,-0.5 0.9,-0.8l0.1,-0.1h-7.5c-0.1,0 -0.1,0 -0.1,-0.1 0.1,-0.2 0.3,-0.5 0.4,-0.7 0.1,-0.1 0.2,-0.2 0.3,-0.2h9.7c0.1,0 0.1,0 0.1,0.1 -0.3,0.7 -0.7,1.4 -1.3,1.9 -0.9,0.8 -1.9,1.3 -3,1.6 -0.9,0.2 -1.7,0.4 -2.6,0.4h-1.7c-1.7,-0.1 -3.3,-0.6 -4.7,-1.7 -0.2,-0.2 -0.4,-0.3 -0.6,-0.5 0.1,-0.2 -0.1,-0.4 -0.3,-0.6z"/></svg>