<svg xmlns="http://www.w3.org/2000/svg" viewBox="0 0 36 36"><path fill="#e90202" d="M20.8,23.5v-1.9c0,-0.5 -0.2,-0.7 -0.7,-0.7H18c-1.2,0 -2.2,-0.8 -2.6,-1.8 -0.1,-0.1 0,-0.2 0.1,-0.2h6.2c0.4,0 0.6,-0.2 0.6,-0.6v-0.1c0.1,-2.7 -2.2,-4.7 -4.8,-4.5 -0.3,0 -0.4,-0.1 -0.4,-0.4v-3c0,-0.3 0,-0.3 -0.2,-0.2 -2.4,0.4 -4.3,1.6 -5.7,3.6 -1.9,2.9 -1.7,6.6 0.5,9.3 1.3,1.7 3.1,2.6 5.2,2.9 0.2,0 0.2,0 0.2,-0.2v-1.5c0,-0.1 0,-0.2 -0.2,-0.2 -0.5,-0.1 -1.1,-0.2 -1.6,-0.5 -2,-1 -3.2,-2.6 -3.5,-4.9 -0.3,-2.2 0.5,-4 2.2,-5.5 0.4,-0.3 0.7,-0.6 1.2,-0.8v2c0,0.5 0.2,0.7 0.7,0.7h2c1.1,0 2,0.6 2.5,1.5 0.1,0.2 0.1,0.2 -0.1,0.2h-6.2c-0.4,0 -0.6,0.2 -0.6,0.5 -0.1,0.8 0,1.5 0.3,2.2 0.8,1.9 2.6,2.9 4.7,2.7 0.3,0 0.4,0.1 0.4,0.4v3.1c0,0.1 0,0.2 0.2,0.2 0.7,-0.1 1.4,-0.3 2.1,-0.6 2.5,-1.2 4.1,-3.1 4.6,-5.8 0.5,-2.2 0,-4.3 -1.3,-6.1 -1.3,-1.9 -3.2,-3 -5.4,-3.4 -0.1,0 -0.2,0 -0.1,0.1v1.6c0,0.1 0,0.1 0.1,0.1 0.5,0.1 0.9,0.2 1.4,0.4 2.1,1 3.3,2.6 3.6,4.9 0.3,2.3 -0.6,4.2 -2.4,5.6 -0.2,0.5 -0.5,0.7 -0.9,0.9z"/><path fill="#e90202" d="M8.8,8.8zM8.8,27.2zM27.2,27.2z"/></svg>