<svg xmlns="http://www.w3.org/2000/svg" viewBox="0 0 36 36"><path fill="#e70000" d="M25.1,17c-0.7,-2.8 -2,-3.8 -4.9,-3.8h-5c-2.7,0 -4.4,1.7 -4.4,4.4v6.6c0,0.6 -0.1,0.8 -0.7,0.8 -1.4,0 -1.4,0 -1.4,-1.4v-6.1c0,-3.5 2.3,-6.1 5.8,-6.4 2.4,-0.2 4.8,-0.2 7.1,0 2.9,0.3 5.1,2.6 5.4,5.4V24c0,0.6 -0.1,0.9 -0.8,0.8h-0.5c-0.5,0.1 -0.7,-0.1 -0.7,-0.7v-6.4c0.2,-0.1 0.3,-0.4 0.1,-0.7z"/><path fill="#e70000" d="M22.4,20.7v2c0,1.3 -0.8,2.2 -2.1,2.2 -1.6,0.1 -3.1,0.1 -4.7,0 -1.3,0 -2.1,-0.9 -2.1,-2.2v-4c0,-1.3 0.8,-2.2 2.1,-2.2 1.6,-0.1 3.1,-0.1 4.7,0 1.3,0.1 2.1,0.9 2.1,2.2v2z"/><path fill="#e70000" d="M11.7,20.7v-3.5c0,-1.8 1.3,-3.2 3.1,-3.2 2.1,-0.1 4.2,-0.1 6.3,0 1.8,0 3.2,1.4 3.2,3.2v7.1c0,0.4 -0.1,0.6 -0.5,0.6s-0.6,-0.1 -0.6,-0.6v-6.6c0,-1.9 -0.8,-2.7 -2.7,-2.7h-5.4c-1.5,0 -2.4,0.9 -2.4,2.4V24c0,0.4 0.2,0.8 -0.5,0.8s-0.5,-0.5 -0.5,-0.8v-3.3zM25.1,17c0.3,0.2 0.1,0.6 0.1,0.8v6.1c0,0.8 0.3,0.8 0.9,0.8 0.6,0 0.9,-0.1 0.9,-0.8v-6.6c0,-0.3 0,-0.5 0.1,-0.8 0.1,2.7 0,5.3 0.1,8 0,0.3 -0.1,0.4 -0.4,0.4h-0.1C25,25 25,25 25,23.4c0.1,-2.1 0.1,-4.2 0.1,-6.4z"/><path fill="#FFF" d="M17.9,22.2L16,22.2c-0.5,0 -0.7,-0.2 -0.7,-0.7 0.1,-0.8 0.1,-1.6 0.2,-2.4 0.1,-0.8 0.5,-1.2 1.3,-1.2h2.4c0.8,0 1.2,0.4 1.3,1.2 0.1,0.8 0.1,1.6 0.2,2.4 0.1,0.5 -0.2,0.7 -0.7,0.7h-2.1zM20.6,22.7c0.4,0 0.7,0.2 0.8,0.7 0,0.4 -0.2,0.7 -0.6,0.7 -0.4,0 -0.7,-0.2 -0.8,-0.6 -0.1,-0.6 0.2,-0.8 0.6,-0.8zM15.2,22.7c0.4,0 0.7,0.3 0.7,0.7 0,0.4 -0.3,0.6 -0.7,0.6 -0.4,0 -0.7,-0.2 -0.7,-0.7 0,-0.4 0.3,-0.6 0.7,-0.6z"/></svg>