<svg xmlns="http://www.w3.org/2000/svg" viewBox="0 0 36 36"><path fill="#012631" d="M28.2,15.9L22.4,11c-1.3,-1 -2.8,-1.7 -4.4,-2l-3.5,9 13.7,-2.1z"/><path fill="#014859" d="M16.5,8.9H6.3L18,18V9c-0.5,-0.1 -1,-0.1 -1.5,-0.1z"/><path fill="#d3dee1" d="M29.9,18c-0.1,-0.6 -0.5,-1.1 -0.9,-1.4l-0.8,-0.7H18l-2.1,4.9 14,-2.8z"/><path fill="#eff7f9" d="M18,15.9L12.2,11c-1.6,-1.4 -3.7,-2.1 -5.9,-2.1H6V18l12,2.8v-4.9z"/><path fill="#9da9ad" d="M27.2,23.6h1.4v2.8h-1.4v-2.8zM24.4,23.6h1.4v2.8h-1.4v-2.8zM21.5,23.6h1.4v2.8h-1.4v-2.8zM18.7,23.6h1.4v2.8h-1.4v-2.8z"/><path fill="#b7c5c8" d="M15.9,23.6h1.4v2.8h-1.4v-2.8zM13.1,23.6h1.4v2.8h-1.4v-2.8zM10.2,23.6h1.4v2.8h-1.4v-2.8zM7.4,23.6h1.4v2.8H7.4v-2.8z"/><path fill="#4f575b" d="M30,27.1v-1.4H18l-0.9,0.7 0.9,0.7h12z"/><path fill="#697276" d="M6,25.7h12v1.4H6v-1.4z"/><path fill="#4f575b" d="M30,22.9H18l-0.9,0.7 0.9,0.7h12v-1.4z"/><path fill="#697276" d="M6,22.9h12v1.4H6v-1.4z"/><path fill="#00cffa" d="M18,18l-2.1,1.8 2.1,1.8h9.2c1.2,0 2.2,-0.7 2.6,-1.8 0.2,-0.6 0.2,-1.1 0.1,-1.7H18z"/><path fill="#5ce3ff" d="M6,18h12v3.5H6V18z"/></svg>