<svg xmlns="http://www.w3.org/2000/svg" viewBox="0 0 36 36"><path fill="#0077c4" d="M18,9h6.7c1.6,0 2.4,0.8 2.4,2.4v13.3c0,1 -0.4,1.7 -1.4,2.1 -0.9,0.4 -1.9,0.1 -2.6,-0.6 -1.4,-1.5 -1.6,-3.7 -0.3,-5.6 0.7,-1.1 1.1,-2.2 1.1,-3.5 0,-2.8 -1.8,-5.2 -4.5,-5.9 -0.4,-0.1 -0.8,-0.2 -0.7,-0.7 0,-0.3 -0.1,-0.4 -0.4,-0.4h-1.1c-0.2,0 -0.4,0.1 -0.3,0.2 0.1,0.9 -0.5,0.8 -1,1 -3.9,1.3 -5.4,5.9 -3.1,9.3 0.8,1.1 1.1,2.3 0.9,3.6 -0.2,1 -0.7,1.9 -1.6,2.5 -1.5,0.9 -3.4,-0.1 -3.4,-1.8V11.2c0,-1.2 1,-2.1 2.3,-2.1 2.4,-0.1 4.7,-0.1 7,-0.1z"/><path fill="#0077c4" d="M14.6,27c1.6,-2.7 1.5,-5.2 -0.2,-7.6 -1.2,-1.7 -0.8,-4.1 0.8,-5.5 1.6,-1.4 4,-1.5 5.7,-0.1 1.6,1.4 2.1,3.7 1,5.5 -0.3,0.5 -0.7,1 -1,1.6 -0.8,1.9 -0.6,3.7 0.4,5.4 0.3,0.5 0.3,0.6 -0.3,0.6 -1.9,0 -1.9,0 -1.9,-1.9v-6.4c0,-0.5 0.1,-0.7 0.6,-0.6 0.6,0.1 1.1,-0.2 1.1,-0.9s-0.5,-0.9 -1.1,-0.9h-3.1c-0.6,0 -1,0.3 -1,0.9 0,0.6 0.4,0.9 1,0.9 0.6,-0.1 0.7,0.1 0.7,0.7v7.6c0,0.6 -0.2,0.7 -0.7,0.7 -0.7,-0.1 -1.3,0 -2,0z"/></svg>