<svg xmlns="http://www.w3.org/2000/svg" viewBox="0 0 36 36"><path fill="#91d523" d="M15.5,19.7c0.4,-2.6 0.8,-5.1 1.1,-7.7l0.3,-2.1c0,-0.4 0.3,-0.4 0.6,-0.4 0.4,0 0.3,0.3 0.3,0.5 -0.4,2.7 -0.8,5.3 -1.2,8 -0.1,0.4 -0.1,0.9 -0.2,1.4 1.1,-0.4 2.1,-1.1 3,-1.8 2.4,-2 3.7,-4.5 3.7,-7.7 0,-0.3 0.1,-0.4 0.4,-0.4h2.9c0.3,0 0.4,0.1 0.3,0.4 -0.6,2.8 -2.1,5 -4.2,6.8 -1.5,1.4 -3.2,2.3 -5.2,2.8 -0.1,0 -0.3,0 -0.4,0.2 -0.4,0.3 -0.9,0.3 -1.4,0z"/><path fill="#276efe" d="M15.5,19.7H17c1.4,0.2 2.8,0.4 4.1,1 2.4,0.9 4.3,2.5 5.7,4.7 0,0.1 0.1,0.1 0.1,0.2 0.4,0.8 0.4,0.8 -0.5,0.8h-3.6c-0.4,0 -0.7,0 -0.8,-0.6 -0.3,-2.5 -2.1,-3.8 -4.2,-4.7 -0.6,-0.2 -1.2,-0.5 -1.8,-0.5 -0.3,0.2 -0.5,0.2 -0.8,0h-1c-0.6,0.2 -1.2,0.3 -1.8,0H9.2c-0.2,0 -0.5,0.1 -0.5,-0.3 0.1,-0.3 0,-0.6 0.5,-0.6h3.4c0.6,-0.3 1.2,-0.3 1.8,0h1.1z"/><path fill="#91d523" d="M14.4,19.7h-1.8c0.5,-3.2 1,-6.4 1.5,-9.7 0.1,-0.4 0.2,-0.6 0.7,-0.5 1.2,0 1.2,0 1,1.2 -0.4,3 -0.9,6 -1.4,9z"/><path fill="#92d523" d="M12.5,20.7h1.8c-0.3,1.8 -0.5,3.5 -0.8,5.3 0,0.3 -0.1,0.4 -0.5,0.5 -1.4,0 -1.4,0.1 -1.2,-1.3 0.2,-1.5 0.5,-3 0.7,-4.5z"/><path fill="#92d522" d="M15.3,20.7h0.8c-0.3,1.8 -0.5,3.5 -0.8,5.3 0,0.3 -0.2,0.4 -0.5,0.4 -0.5,0 -0.3,-0.3 -0.2,-0.5 0.2,-1.7 0.4,-3.4 0.7,-5.2z"/></svg>