<svg xmlns="http://www.w3.org/2000/svg" viewBox="0 0 36 36"><path fill="#008fd6" d="M24.9,24.6c-0.4,0 -0.8,-0.2 -1.2,-0.4 -2.7,-2 -5.5,-3.9 -8.2,-5.9 0,0 -0.1,0 -0.1,-0.1h0.6c0.8,0.1 1.3,-0.3 1.7,-1 0.8,-1.5 1.6,-2.9 2.3,-4.4 0.4,-0.7 0.9,-1.3 1.8,-1.4h0.8c0.9,0 1.3,0.6 1.6,1.2 0.1,0.2 0.2,0.5 0.3,0.7 0.8,2.3 1.5,4.7 2.3,7 0.2,0.5 0.4,1 0.4,1.5v1.3c-0.1,0.5 -0.3,0.9 -0.8,1.2 -0.3,0.1 -0.5,0.2 -0.8,0.2 -0.2,0.1 -0.5,0.1 -0.7,0.1z"/><path fill="#6da93b" d="M17.9,16c-0.9,0 -1.5,0.4 -2.1,1.1 -1.6,2.1 -3.1,4.3 -4.6,6.5 -0.4,0.6 -1,0.9 -1.5,0.8 -0.7,-0.2 -1,-0.8 -0.9,-1.5 0.1,-0.8 0.5,-1.5 0.7,-2.2 0.7,-1.9 1.3,-3.9 2,-5.8 0.5,-1.3 1.7,-1.8 2.9,-1.1 1.2,0.6 2.3,1.4 3.5,2.2z"/></svg>