<svg xmlns="http://www.w3.org/2000/svg" viewBox="0 0 36 36"><path fill="#ee0e40" d="M8.8,20.5c2.2,-1.2 4.4,-2.5 6.8,-3.5 0.4,-0.2 0.7,-0.3 1.1,-0.2 0.4,0 0.7,0.1 0.9,0.4 0.3,0.6 0.6,0.3 1,0.1 1,-0.6 2.1,-1.2 3.1,-1.7 1.1,-0.6 2,-0.4 2.9,0.5 0.9,0.9 1.7,1.9 2.4,2.9 0.5,0.7 0.2,1.3 -0.6,1.4 -1.6,0.2 -3.2,0 -4.8,-0.3 0.4,-0.1 0.6,-0.2 0.9,-0.4 0.4,-0.2 0.6,-0.5 0.5,-0.9 -0.1,-0.4 -0.4,-0.6 -0.8,-0.6 -0.3,0 -0.6,0.1 -1,0.2 -1.6,0.6 -3.3,1.3 -4.9,1.9 -0.3,0.1 -0.4,0.1 -0.3,-0.2v-0.5c0,-0.2 -0.1,-0.3 -0.2,-0.4 -0.8,-0.3 -1.5,0 -2.2,0.2 -1.4,0.3 -2.8,0.7 -4.2,1.1 -0.4,0.2 -0.5,0.2 -0.6,0z"/></svg>