<svg xmlns="http://www.w3.org/2000/svg" viewBox="0 0 36 36"><path fill="#e00000" d="M21.8,26.9h-1.1c-1,0 -1.8,-0.5 -2.5,-1.2 -0.1,-0.1 -0.2,-0.1 -0.3,0 -0.1,0.2 -0.3,0.3 -0.5,0.4 -0.6,0.5 -1.3,0.8 -2.1,0.8h-1.1c-0.8,-0.1 -1.5,-0.4 -2.1,-0.9 -1.3,-1.1 -1.8,-3.2 -1.1,-4.8 0.3,-0.6 0.3,-0.6 -0.3,-0.9 -0.9,-0.5 -1.5,-1.2 -1.8,-2.2 -0.2,-0.6 -0.2,-1.2 -0.2,-1.8 0,-2.2 2.1,-3.8 4.1,-3.7 0.2,0 0.4,0 0.6,0.1 0.3,0.1 0.4,0 0.4,-0.3 0.1,-0.8 0.4,-1.4 0.9,-2 0.7,-0.8 1.6,-1.4 2.7,-1.4 1.2,-0.1 2.3,0.1 3.2,0.9 0.7,0.6 1.1,1.4 1.3,2.3v0.2c0.1,0.4 0.1,0.4 0.4,0.3 1.1,-0.2 2,0 2.9,0.6 0.7,0.4 1.2,1 1.5,1.8 0.2,0.4 0.1,0.8 0.2,1.2v1c-0.1,0.5 -0.1,1.1 -0.4,1.5 -0.4,0.7 -1,1.2 -1.7,1.6 -0.4,0.2 -0.4,0.2 -0.2,0.5 0.8,1.7 0.6,3.4 -0.6,4.7 -0.6,0.7 -1.4,1.1 -2.3,1.1 0.2,0.2 0.1,0.2 0.1,0.2z"/><path fill="#FFF" d="M18.9,19.1v3.1c0,0.2 0,0.3 -0.3,0.3h-1.2c-0.3,0 -0.3,-0.1 -0.3,-0.3V16c0,-0.5 0,-0.5 -0.4,-0.3 -2.7,1 -3.3,4.5 -1.2,6.4 0.2,0.2 0.2,0.3 0.1,0.5 -0.3,0.3 -0.5,0.6 -0.7,0.9 -0.1,0.2 -0.2,0.2 -0.4,0 -2.8,-2.3 -2.6,-6.7 0.3,-8.8 0.6,-0.4 1.3,-0.8 2.1,-0.9 0.2,0 0.3,-0.1 0.3,-0.4v-1c0,-0.2 0,-0.2 0.2,-0.2h1.3c0.2,0 0.2,0.1 0.2,0.2v1c0,0.2 0.1,0.3 0.3,0.4 2.1,0.5 3.5,1.8 4.1,3.8 0.7,2.1 -0.1,4.6 -1.8,6 -0.2,0.1 -0.2,0.2 -0.4,0 -0.2,-0.3 -0.5,-0.7 -0.7,-1 -0.2,-0.2 -0.1,-0.3 0.1,-0.4 2.1,-1.9 1.5,-5.3 -1.1,-6.4h-0.1c-0.4,-0.2 -0.4,-0.2 -0.4,0.3v3z"/></svg>