<svg xmlns="http://www.w3.org/2000/svg" viewBox="0 0 36 36"><path fill="#347be9" d="M23.4,13.7c0.7,-0.2 1.4,-0.3 2,-0.4 0.3,-0.1 0.6,0.1 0.7,0.4 1.9,3.6 1.1,8.2 -1.9,10.9 -2.8,2.5 -5.9,3.1 -9.4,1.9 -0.3,-0.1 -0.4,-0.2 -0.2,-0.5 2.6,-4.6 6.4,-7.9 11.2,-10.2 0.3,-0.2 0.3,-0.3 0.1,-0.5 -0.2,-0.1 -0.3,-0.3 -0.5,-0.5 -0.1,-0.1 -0.2,-0.2 -0.3,-0.1 -0.3,0.2 -0.5,0 -0.7,-0.2 -0.3,-0.2 -0.6,-0.4 -1,-0.8zM8.9,16.8c0.2,-0.4 0.4,-0.8 1.2,-1.2 0.9,-0.5 1.7,-1 2.6,-1.5 0.3,-0.2 0.5,-0.1 0.8,0.1 0.3,0.3 0.7,0.6 1,1 0.2,0.1 0.2,0.2 0,0.4 -0.8,0.5 -1.4,1.2 -2.1,1.7 -0.2,0.1 -0.3,0.4 -0.2,0.6 0.1,0.2 0.3,0.3 0.6,0.3 0.8,0.1 1.4,-0.3 2.1,-0.6 0.3,-0.2 0.7,-0.4 1,-0.6 0.2,-0.1 0.3,-0.1 0.5,0.1 0.4,0.5 0.8,1.1 1.3,1.6 0.2,0.2 0.1,0.3 -0.1,0.4 -2,1.6 -3.7,3.5 -5.2,5.6 -0.1,0.2 -0.2,0.2 -0.4,0.1 -0.7,-0.7 -1.3,-1.4 -1.8,-2.2 -0.6,-1.1 -0.9,-2.2 -1.1,-3.4 -0.5,-1.6 -0.3,-2.2 -0.2,-2.4zM20.7,11.8c0.2,0 0.3,-0.1 0.4,-0.1v-0.1c-0.8,-0.7 -1.7,-0.4 -2.5,-0.3 -2.8,0.5 -5.6,1.2 -8.2,2.3 -0.1,0 -0.2,0.1 -0.4,0.1 0.3,-0.6 0.6,-1.1 1,-1.6 2.4,-2.7 5.3,-3.8 8.9,-3 1.2,0.3 2.2,0.8 3.2,1.6 0.3,0.3 0.6,0.6 0.8,1 0.1,0.2 0.1,0.4 -0.1,0.6 -0.2,0.3 -1.3,0.6 -1.6,0.4 -0.1,0 -0.1,-0.1 -0.2,-0.1 -0.4,-0.3 -0.8,-0.5 -1.3,-0.8zM17.4,16.1c0,-0.1 0.1,-0.2 0.1,-0.2 0.7,-0.3 1.5,-0.7 2.2,-1 0.1,-0.1 0.2,0 0.3,0.1l1.2,1.2c0.2,0.2 0.1,0.2 -0.1,0.3 -0.7,0.4 -1.3,0.8 -2,1.2 -0.2,0.1 -0.3,0.1 -0.4,0 -0.4,-0.5 -0.9,-0.9 -1.3,-1.4v-0.2z"/><path fill="#347be9" d="M14.2,13.4l2.7,-0.9c0.1,0 0.2,0 0.3,0.1 0.4,0.3 0.8,0.6 1.2,1 0.2,0.1 0.2,0.2 0,0.3 -0.7,0.3 -1.5,0.6 -2.2,0.9 -0.1,0.1 -0.3,0.1 -0.4,0 -0.5,-0.5 -1,-0.9 -1.6,-1.4zM22.6,13.9h0.1c0.4,0.4 0.8,0.7 1.2,1.1 0.1,0.1 0,0.2 -0.1,0.2 -0.4,0.2 -0.9,0.4 -1.3,0.6 -0.2,0.1 -0.3,0 -0.4,-0.1 -0.4,-0.4 -0.8,-0.7 -1.1,-1.1 -0.2,-0.2 -0.2,-0.2 0.1,-0.3 0.5,0 1,-0.2 1.5,-0.4zM21.6,13c-0.3,0.1 -0.4,0.1 -0.6,0.1 -1.5,0.4 -1.6,0.4 -2.8,-0.7 -0.1,-0.1 -0.2,-0.1 -0.1,-0.2 0,-0.1 0.1,-0.1 0.2,-0.1l1.5,-0.3h0.3c0.4,0.4 0.9,0.8 1.5,1.2z"/></svg>