<svg xmlns="http://www.w3.org/2000/svg" viewBox="0 0 36 36"><path fill="#95d6a4" d="M15.5,17.4c-0.2,0 -0.4,0 -0.6,0.1 -0.1,0 -0.2,0 -0.3,-0.2 -0.3,-1.2 -1.4,-2.1 -2.7,-2.1 -1.4,0 -2.6,1 -2.8,2.4 0,0.1 -0.1,0.2 -0.2,0.2 -1.4,0.2 -2.5,1.4 -2.5,2.8v5.7c0,0.5 0.4,0.9 0.9,0.9h8.2c1.5,0 2.8,-1.2 2.8,-2.8v-4.2c0,-1.5 -1.3,-2.8 -2.8,-2.8z"/><path fill="#78c2a4" d="M15.5,17.4c-0.2,0 -0.4,0 -0.6,0.1 -0.1,0 -0.2,0 -0.3,-0.2 -0.3,-1.2 -1.4,-2.1 -2.7,-2.1 -0.4,0 -0.9,0.1 -1.2,0.3 0.9,0.3 1.6,1 1.9,2 0,0.1 0.2,0.2 0.3,0.2 0.2,0 0.4,-0.1 0.6,-0.1 1.6,0 2.8,1.3 2.8,2.8v4.2c0,1.2 -0.8,2.2 -1.9,2.6h1.2c1.5,0 2.8,-1.2 2.8,-2.8v-4.2c-0.1,-1.5 -1.4,-2.8 -2.9,-2.8z"/><path fill="#9d6b6b" d="M27.9,24.3H11.6v-4.1c0,-0.3 0.2,-0.5 0.5,-0.5h15.3c0.3,0 0.5,0.2 0.5,0.5v4.1z"/><path fill="#8b5e5e" d="M27.4,19.6H26c0.3,0 0.5,0.2 0.5,0.5v4.1h1.4v-4.1c0,-0.2 -0.2,-0.5 -0.5,-0.5z"/><path fill="#8b5e5e" d="M29.2,23.8H10.3c-0.3,0 -0.5,0.2 -0.5,0.5v1.1c0,0.3 0.2,0.5 0.5,0.5h18.9c0.3,0 0.5,-0.2 0.5,-0.5v-1.1c-0.1,-0.3 -0.3,-0.5 -0.5,-0.5z"/><path fill="#785252" d="M29.2,23.8h-0.5v0.5c0,0.3 -0.2,0.5 -0.5,0.5H9.8v0.5c0,0.3 0.2,0.5 0.5,0.5h18.9c0.3,0 0.5,-0.2 0.5,-0.5v-1.1c-0.1,-0.2 -0.3,-0.4 -0.5,-0.4z"/><path fill="#f6e266" d="M21.6,12.2m-1.5,0a1.5,1.5 0,1 1,3 0a1.5,1.5 0,1 1,-3 0"/><path fill="#f6e266" d="M28.2,12.2m-1.5,0a1.5,1.5 0,1 1,3 0a1.5,1.5 0,1 1,-3 0"/><path fill="#f6e266" d="M24.9,9.9m-1.5,0a1.5,1.5 0,1 1,3 0a1.5,1.5 0,1 1,-3 0"/><path fill="#f1d333" d="M22.1,10.9c0.1,0.2 0.1,0.3 0.1,0.5 0,0.8 -0.7,1.5 -1.5,1.5 -0.2,0 -0.3,0 -0.5,-0.1 0.2,0.6 0.7,1 1.4,1 0.8,0 1.5,-0.7 1.5,-1.5 0,-0.7 -0.4,-1.2 -1,-1.4zM28.7,10.9c0.1,0.2 0.1,0.3 0.1,0.5 0,0.8 -0.7,1.5 -1.5,1.5 -0.2,0 -0.3,0 -0.5,-0.1 0.2,0.6 0.7,1 1.4,1 0.8,0 1.5,-0.7 1.5,-1.5 -0.1,-0.7 -0.5,-1.2 -1,-1.4zM25.4,8.6c0.1,0.2 0.1,0.3 0.1,0.5 0,0.8 -0.7,1.5 -1.5,1.5 -0.2,0 -0.3,0 -0.5,-0.1 0.2,0.6 0.7,1 1.4,1 0.8,0 1.5,-0.7 1.5,-1.5 0,-0.7 -0.4,-1.2 -1,-1.4z"/><path fill="#FF000000" d="M22.1,22.2h-8.7c-0.2,0 -0.4,0.2 -0.4,0.4s0.2,0.4 0.4,0.4h8.7c0.2,0 0.4,-0.2 0.4,-0.4 -0.1,-0.2 -0.2,-0.4 -0.4,-0.4z"/><path fill="#FF000000" d="M29.5,23.6v-0.3c0,-0.7 -0.5,-1.2 -1.2,-1.2h-0.1v-1.9c0,-0.5 -0.4,-0.8 -0.8,-0.8h-2.2v-0.9c0.3,-0.3 1.1,-1.1 1.1,-1.8 0,-0.5 -0.4,-0.9 -0.9,-0.9h-0.2v-1.1c0.3,0.3 0.8,0.5 1.3,0.5 0.8,0 1.4,-0.4 1.8,-1.1 0.9,-0.1 1.7,-0.9 1.7,-1.8 0,-1 -0.8,-1.8 -1.8,-1.8s-1.8,0.8 -1.8,1.8c0,0.8 0.5,1.5 1.2,1.7 -0.2,0.3 -0.6,0.5 -1,0.5 -0.7,0 -1.3,-0.6 -1.3,-1.3v-1.4c0.7,-0.1 1.2,-0.6 1.4,-1.3 0,-0.2 -0.1,-0.4 -0.3,-0.4 -0.2,0 -0.4,0.1 -0.4,0.3 -0.1,0.5 -0.6,0.8 -1.1,0.8 -0.6,0 -1.1,-0.5 -1.1,-1.1S24.3,9 24.9,9c0.3,0 0.5,0.1 0.7,0.2 0.2,0 0.4,0 0.5,-0.2 0.1,-0.2 0.1,-0.4 -0.1,-0.5 -0.3,-0.3 -0.7,-0.4 -1.1,-0.4 -1,0 -1.8,0.8 -1.8,1.8 0,0.9 0.6,1.6 1.5,1.8v1.4c0,0.7 -0.6,1.3 -1.3,1.3 -0.4,0 -0.8,-0.2 -1,-0.5 0.7,-0.3 1.2,-0.9 1.2,-1.7 0,-1 -0.8,-1.8 -1.8,-1.8s-1.8,0.8 -1.8,1.8c0,0.9 0.7,1.7 1.7,1.8 0.3,0.7 1,1.1 1.8,1.1 0.5,0 0.9,-0.2 1.3,-0.5v1.1h-0.2c-0.5,0 -0.9,0.4 -0.9,0.9 0,0.7 0.7,1.5 1.1,1.8v0.9h-6.1c-0.2,-0.6 -0.5,-1.1 -1,-1.5 -0.6,-0.5 -1.3,-0.7 -2,-0.7 -0.2,0 -0.4,0 -0.6,0.1 -0.4,-1.3 -1.6,-2.3 -3,-2.3 -0.5,0 -1,0.1 -1.4,0.3 -0.2,0.1 -0.2,0.3 -0.2,0.5 0.1,0.2 0.3,0.2 0.5,0.2 0.3,-0.2 0.7,-0.3 1.1,-0.3 1.1,0 2.1,0.8 2.4,1.8 0.1,0.3 0.4,0.5 0.7,0.4 0.2,0 0.4,-0.1 0.6,-0.1 1,0 1.9,0.6 2.3,1.5h-5.7c-0.5,0 -0.8,0.4 -0.8,0.8v2h-0.1c-0.7,0 -1.2,0.5 -1.2,1.2v0.3c-0.3,0.1 -0.5,0.4 -0.5,0.7v1.1c0,0.5 0.4,0.8 0.8,0.8h0.9v0.7L7.3,26.8c-0.3,0 -0.6,-0.3 -0.6,-0.6v-5.7c0,-1.3 0.9,-2.3 2.2,-2.4 0.3,0 0.5,-0.2 0.5,-0.5s0.2,-0.6 0.3,-0.9c0.1,-0.2 0,-0.4 -0.1,-0.5s-0.4,0 -0.5,0.1c-0.2,0.3 -0.3,0.7 -0.4,1C7.2,17.7 6,19 6,20.6v5.7c0,0.7 0.6,1.3 1.3,1.3h3.9c0,0.2 0.2,0.3 0.3,0.3s0.3,-0.1 0.3,-0.3h3.6c1,0 1.9,-0.4 2.5,-1.2l0.1,-0.1h9.5v1.3c0,0.2 0.2,0.4 0.4,0.4s0.4,-0.2 0.4,-0.4v-1.3h0.9c0.5,0 0.8,-0.4 0.8,-0.8v-1.1c0,-0.4 -0.2,-0.7 -0.5,-0.8zM27.1,12.2c0,-0.6 0.5,-1.1 1.1,-1.1 0.6,0 1.1,0.5 1.1,1.1s-0.5,1.1 -1.1,1.1c-0.6,0.1 -1.1,-0.4 -1.1,-1.1zM20.5,12.2c0,-0.6 0.5,-1.1 1.1,-1.1s1.1,0.5 1.1,1.1 -0.5,1.1 -1.1,1.1c-0.6,0.1 -1.1,-0.4 -1.1,-1.1zM24.2,16.6c0,-0.1 0.1,-0.2 0.2,-0.2s0.2,0 0.2,0.1c0.1,0.1 0.2,0.2 0.3,0.2 0.1,0 0.3,-0.1 0.3,-0.2s0.1,-0.1 0.2,-0.1 0.2,0.1 0.2,0.2c0,0.3 -0.4,0.8 -0.7,1.2 -0.3,-0.4 -0.7,-0.9 -0.7,-1.2zM28.3,22.7c0.3,0 0.5,0.2 0.5,0.5v0.2h-0.6l0.1,-0.7zM12,21.4h15.6v0.8h-3.7c-0.2,0 -0.4,0.2 -0.4,0.4s0.2,0.4 0.4,0.4h3.7v0.6L12,23.6v-2.2zM12.1,20h15.3c0.1,0 0.1,0.1 0.1,0.1v0.6L12,20.7v-0.6c0,-0.1 0,-0.1 0.1,-0.1zM11.2,22.7l0.1,0.7h-0.6v-0.2c0,-0.2 0.2,-0.5 0.5,-0.5zM15.5,26.9h-3.6v-0.7h5.3c-0.5,0.4 -1.1,0.7 -1.7,0.7zM29.3,25.4c0,0.1 -0.1,0.1 -0.1,0.1L10.3,25.5c-0.1,0 -0.1,-0.1 -0.1,-0.1v-1.1c0,-0.1 0.1,-0.1 0.1,-0.1h18.9c0.1,0 0.1,0.1 0.1,0.1v1.1z"/></svg>