<svg xmlns="http://www.w3.org/2000/svg" viewBox="0 0 36 36"><path fill="#255140" d="M19.5,8.6c6.2,1 9.6,7.9 6.6,13.4 -0.8,1.4 -2.1,2 -3.6,2.2 -0.7,0.1 -1.5,0.1 -2.2,-0.1 -0.4,-0.1 -0.5,-0.2 -0.5,-0.6v-5.8c0,-1.4 -1.3,-2.2 -2.5,-1.6 -0.7,0.3 -1,0.9 -1,1.7v4.9c0,0.5 -0.2,0.7 -0.7,0.7 -0.3,0 -0.6,0.1 -0.9,0.3 2.1,-0.1 4,1 6,1.2 1.9,0.2 3.8,-0.1 5.2,-1.6 0.3,-0.3 0.5,-0.6 0.7,-0.9 0,0.8 -0.2,1.5 -0.6,2.2 -1.3,2.1 -3.7,3.1 -6.3,2.7 -1.1,-0.2 -2.3,-0.5 -3.3,-0.8 -2.2,-0.8 -4.3,-0.7 -6.4,0.3 -0.1,0 -0.2,0.1 -0.4,0 0.5,-0.7 1.2,-1.4 1.9,-1.9 0.4,-0.2 0.4,-0.3 0.1,-0.7 -2.5,-2.6 -3.4,-5.6 -2.5,-9.1 1,-3.5 3.4,-5.6 6.8,-6.5 0.6,0 3.2,-0.1 3.6,0z"/><path fill="#FFF" d="M13.9,19.9v2.4c0,0.2 0.1,0.4 -0.1,0.5 -0.2,0.1 -0.3,-0.2 -0.5,-0.3 -3.7,-3.4 -2.3,-9.7 2.5,-11.3 3,-1 6.3,0.2 7.9,2.9 1.6,2.7 1.2,6.2 -1.1,8.3 -0.1,0.1 -0.3,0.4 -0.5,0.3 -0.2,-0.1 -0.1,-0.4 -0.1,-0.6v-4.8c-0.1,-1.9 -1.6,-3.6 -3.4,-3.8 -2,-0.3 -3.9,0.8 -4.5,2.7 -0.3,0.8 -0.2,1.6 -0.2,2.3v1.4z"/></svg>