<svg xmlns="http://www.w3.org/2000/svg" viewBox="0 0 36 36"><path fill="#009f35" d="M24.1,8.8c0.5,0 1.3,0.3 1.8,0.7 0.7,0.5 1.1,1.2 1.2,2.1v0.4s0,0.1 -0.1,0.1H12.1c-0.1,0 -0.1,0 -0.1,0.1V27c0,0.1 0,0.1 -0.1,0.1 -1.4,-0.1 -2.4,-0.8 -3,-2.1 -0.2,-0.4 -0.3,-0.8 -0.3,-1.2V12.7c0,-0.4 0,-0.8 0.1,-1.2 0.1,-0.8 0.5,-1.5 1.1,-2 0.5,-0.4 1.1,-0.7 1.8,-0.8h3.5c1.5,0.1 8.6,0.1 9,0.1z"/><path fill="#009f35" d="M27.1,13.8s0.1,0 0.1,0.1v10c0,0.8 -0.3,1.5 -0.9,2.1 -0.5,0.6 -1.2,0.9 -1.9,1h-0.5c-0.1,0 -0.1,0 -0.1,-0.1V17c0,-0.1 0,-0.1 -0.1,-0.1h-6.4c-0.1,0 -0.1,0 -0.1,0.1v9.8c0,0.1 0,0.1 -0.1,0.1H14c-0.1,0 -0.1,0 -0.1,-0.1V13.6l13.2,0.2z"/><path fill="#009f35" d="M18.8,23v-4.1c0,-0.1 0,-0.1 0.1,-0.1H22c0.1,0 0.1,0 0.1,0.1V27c0,0.1 0,0.1 -0.1,0.1h-3.2c-0.1,0 -0.1,0 -0.1,-0.1 0.1,-1.3 0.1,-2.7 0.1,-4z"/></svg>