<svg xmlns="http://www.w3.org/2000/svg" viewBox="0 0 36 36"><path fill="#ffcb61" d="M28.6,26.8c0,-0.6 0.5,-1 1,-1v-1.5c-0.6,0 -1,-0.5 -1,-1s0.5,-1 1,-1v-1.5c-0.6,0 -1,-0.5 -1,-1s0.5,-1 1,-1v-1.5c-0.6,0 -1,-0.5 -1,-1s0.5,-1 1,-1v-1.5c-0.6,0 -1,-0.5 -1,-1 0,-0.6 0.5,-1 1,-1v-1.5c-0.6,0 -1,-0.5 -1,-1 0,-0.6 0.5,-1 1,-1V6.4h-1.8c0,0.6 -0.5,1 -1,1 -0.6,0 -1,-0.5 -1,-1h-1.5c0,0.6 -0.5,1 -1,1 -0.6,0 -1,-0.5 -1,-1h-1.5c0,0.6 -0.5,1 -1,1 -0.6,0 -1,-0.5 -1,-1h-1.5c0,0.6 -0.5,1 -1,1 -0.6,0 -1,-0.5 -1,-1h-1.5c0,0.6 -0.5,1 -1,1 -0.6,0 -1,-0.5 -1,-1h-1.5c0,0.6 -0.5,1 -1,1 -0.6,0 -1,-0.5 -1,-1H6.4v1.8c0.6,0 1,0.5 1,1 0,0.6 -0.5,1 -1,1v1.5c0.6,0 1,0.5 1,1 0,0.6 -0.5,1 -1,1v1.5c0.6,0 1,0.5 1,1 0,0.6 -0.5,1 -1,1v1.5c0.6,0 1,0.5 1,1s-0.5,1 -1,1v1.5c0.6,0 1,0.5 1,1 0,0.6 -0.5,1 -1,1v1.5c0.6,0 1,0.5 1,1 0,0.6 -0.5,1 -1,1v1.8h1.8c0,-0.6 0.5,-1 1,-1 0.6,0 1,0.5 1,1h1.5c0,-0.6 0.5,-1 1,-1 0.6,0 1,0.5 1,1h1.5c0,-0.6 0.5,-1 1,-1 0.6,0 1,0.5 1,1h1.5c0,-0.6 0.5,-1 1,-1 0.6,0 1,0.5 1,1h1.5c0,-0.6 0.5,-1 1,-1s1,0.5 1,1h1.5c0,-0.6 0.5,-1 1,-1s1,0.5 1,1h1.8v-1.8c-0.4,0.1 -0.9,-0.4 -0.9,-0.9z"/><path fill="#ffebc2" d="M20.6,27.1V8.9H19L15.4,18l3.6,9.1z"/><path fill="#f7f5f2" d="M9.7,8.9h16.6V27H9.7z"/><path fill="#619243" d="M12.8,20.6l0.2,-1.5 -1.5,0.2c-0.2,0 -0.5,0.1 -0.6,0.3 -0.4,0.4 -0.4,1.2 0,1.6s1.2,0.4 1.6,0l0.3,-0.6zM18.9,22.9l-0.9,-1.2 -0.9,1.2c-0.1,0.2 -0.2,0.4 -0.2,0.7 0,0.6 0.5,1.1 1.1,1.1 0.6,0 1.1,-0.5 1.1,-1.1 0,-0.3 -0.1,-0.5 -0.2,-0.7zM16.3,20.1l-0.9,-1.2 -0.9,1.2c-0.1,0.2 -0.2,0.4 -0.2,0.7 0,0.6 0.5,1.1 1.1,1.1s1.1,-0.5 1.1,-1.1c0,-0.3 -0.1,-0.5 -0.2,-0.7zM13.3,16.2l1.2,-0.9 -1.2,-0.9c-0.2,-0.1 -0.4,-0.2 -0.7,-0.2 -0.6,0 -1.1,0.5 -1.1,1.1 0,0.6 0.5,1.1 1.1,1.1 0.3,0.1 0.5,0 0.7,-0.2zM23.2,17.7l-0.2,-1.5 1.5,0.2c0.2,0 0.5,0.1 0.6,0.3 0.4,0.4 0.4,1.2 0,1.6s-1.2,0.4 -1.6,0l-0.3,-0.6zM19.7,17.2l0.9,-1.2 0.9,1.2c0.1,0.2 0.2,0.4 0.2,0.7 0,0.6 -0.5,1.1 -1.1,1.1s-1.1,-0.5 -1.1,-1.1c0,-0.3 0.1,-0.5 0.2,-0.7zM22.7,13.3l-1.2,-0.9 1.2,-0.9c0.2,-0.1 0.4,-0.2 0.7,-0.2 0.6,0 1.1,0.5 1.1,1.1 0,0.6 -0.5,1.1 -1.1,1.1 -0.3,0.1 -0.5,0 -0.7,-0.2z"/><path fill="#FF000000" d="M29.6,8.6c0.2,0 0.4,-0.2 0.4,-0.4L30,6.4c0,-0.2 -0.2,-0.4 -0.4,-0.4h-1.8c-0.2,0 -0.4,0.2 -0.4,0.4 0,0.4 -0.3,0.6 -0.6,0.6 -0.4,0 -0.6,-0.3 -0.6,-0.6 -0.1,-0.2 -0.2,-0.4 -0.4,-0.4h-1.5c-0.2,0 -0.4,0.2 -0.4,0.4 0,0.4 -0.3,0.6 -0.6,0.6 -0.4,0 -0.6,-0.3 -0.6,-0.6 0,-0.2 -0.2,-0.4 -0.4,-0.4h-1.5c-0.2,0 -0.4,0.2 -0.4,0.4 0,0.4 -0.3,0.6 -0.6,0.6s-0.6,-0.3 -0.6,-0.6c0,-0.2 -0.2,-0.4 -0.4,-0.4h-1.5c-0.2,0 -0.4,0.2 -0.4,0.4 0,0.4 -0.3,0.6 -0.6,0.6 -0.4,0 -0.6,-0.3 -0.6,-0.6 0,-0.2 -0.2,-0.4 -0.4,-0.4h-1.5c-0.2,0 -0.4,0.2 -0.4,0.4 0,0.4 -0.3,0.6 -0.6,0.6 -0.4,0 -0.6,-0.3 -0.6,-0.6 0,-0.2 -0.2,-0.4 -0.4,-0.4h-1.5c-0.3,0 -0.4,0.2 -0.4,0.4 0,0.3 -0.3,0.6 -0.7,0.6 -0.3,0 -0.6,-0.3 -0.6,-0.6 0,-0.2 -0.2,-0.4 -0.4,-0.4L6.4,6c-0.2,0 -0.4,0.2 -0.4,0.4v1.8c0,0.2 0.2,0.4 0.4,0.4 0.3,0 0.6,0.3 0.6,0.6 0,0.4 -0.3,0.6 -0.6,0.6 -0.2,0.1 -0.4,0.2 -0.4,0.4v1.5c0,0.2 0.2,0.4 0.4,0.4 0.4,0 0.6,0.3 0.6,0.6 0,0.4 -0.3,0.6 -0.6,0.6 -0.2,0 -0.4,0.2 -0.4,0.4v1.5c0,0.2 0.2,0.4 0.4,0.4 0.4,0 0.6,0.3 0.6,0.6s-0.3,0.6 -0.6,0.6c-0.2,0 -0.4,0.2 -0.4,0.4v1.5c0,0.2 0.2,0.4 0.4,0.4 0.4,0 0.6,0.3 0.6,0.6s-0.3,0.6 -0.6,0.6c-0.2,0 -0.4,0.2 -0.4,0.4v1.5c0,0.2 0.2,0.4 0.4,0.4 0.4,0 0.6,0.3 0.6,0.6 0,0.4 -0.3,0.6 -0.6,0.6 -0.2,0 -0.4,0.2 -0.4,0.4v1.5c0,0.2 0.2,0.4 0.4,0.4 0.4,0 0.6,0.3 0.6,0.6 0,0.4 -0.3,0.6 -0.6,0.6 -0.2,0 -0.4,0.2 -0.4,0.4v1.8c0,0.3 0.2,0.5 0.4,0.5h1.8c0.2,0 0.4,-0.2 0.4,-0.4 0,-0.4 0.3,-0.6 0.6,-0.6s0.6,0.3 0.6,0.6c0,0.2 0.2,0.4 0.4,0.4h1.5c0.2,0 0.4,-0.2 0.4,-0.4 0,-0.4 0.3,-0.6 0.6,-0.6 0.4,0 0.6,0.3 0.6,0.6 0,0.2 0.2,0.4 0.4,0.4h1.5c0.2,0 0.4,-0.2 0.4,-0.4 0,-0.4 0.3,-0.6 0.6,-0.6 0.4,0 0.6,0.3 0.6,0.6 0,0.2 0.2,0.4 0.4,0.4h1.5c0.2,0 0.4,-0.2 0.4,-0.4 0,-0.4 0.3,-0.6 0.6,-0.6s0.6,0.3 0.6,0.6c0,0.2 0.2,0.4 0.4,0.4h1.5c0.2,0 0.4,-0.2 0.4,-0.4 0,-0.4 0.3,-0.6 0.6,-0.6 0.4,0 0.6,0.3 0.6,0.6 0,0.2 0.2,0.4 0.4,0.4h1.5c0.2,0 0.4,-0.2 0.4,-0.4 0,-0.4 0.3,-0.6 0.6,-0.6s0.6,0.3 0.6,0.6c0,0.2 0.2,0.4 0.4,0.4h1.8c0.2,0 0.4,-0.2 0.4,-0.4v-1.8c0,-0.2 -0.2,-0.4 -0.4,-0.4 -0.4,0 -0.6,-0.3 -0.6,-0.6s0.3,-0.6 0.6,-0.6c0.2,0 0.4,-0.2 0.4,-0.4v-1.5c0,-0.2 -0.2,-0.4 -0.4,-0.4 -0.4,0 -0.6,-0.3 -0.6,-0.6s0.3,-0.6 0.6,-0.6c0.2,0 0.4,-0.2 0.4,-0.4v-1.5c0,-0.2 -0.2,-0.4 -0.4,-0.4 -0.4,0 -0.6,-0.3 -0.6,-0.6 0,-0.4 0.3,-0.6 0.6,-0.6 0.2,0 0.4,-0.2 0.4,-0.4v-1.5c0,-0.2 -0.2,-0.4 -0.4,-0.4 -0.4,0 -0.6,-0.3 -0.6,-0.6s0.3,-0.6 0.6,-0.6c0.2,0 0.4,-0.2 0.4,-0.4v-1.5c0,-0.2 -0.2,-0.4 -0.4,-0.4 -0.4,0 -0.6,-0.3 -0.6,-0.6 0,-0.4 0.3,-0.6 0.6,-0.6 0.2,0 0.4,-0.2 0.4,-0.4v-1.5c0,-0.2 -0.2,-0.4 -0.4,-0.4 -0.4,0 -0.6,-0.3 -0.6,-0.6s0.4,-0.7 0.7,-0.7zM29.2,10.6v0.8c-0.6,0.2 -1,0.7 -1,1.4s0.4,1.2 1,1.4v0.8c-0.6,0.2 -1,0.7 -1,1.4 0,0.6 0.4,1.2 1,1.4v0.8c-0.6,0.2 -1,0.7 -1,1.4 0,0.6 0.4,1.2 1,1.4v0.8c-0.6,0.2 -1,0.7 -1,1.4 0,0.6 0.4,1.2 1,1.4v0.8c-0.6,0.2 -1,0.7 -1,1.4s0.4,1.2 1,1.4v1.1h-1.1c-0.2,-0.6 -0.7,-1 -1.4,-1s-1.2,0.4 -1.4,1h-0.8c-0.2,-0.6 -0.7,-1 -1.4,-1s-1.2,0.4 -1.4,1h-0.8c-0.2,-0.6 -0.7,-1 -1.4,-1s-1.2,0.4 -1.4,1h-0.8c-0.2,-0.6 -0.7,-1 -1.4,-1 -0.6,0 -1.2,0.4 -1.4,1h-0.8c-0.2,-0.6 -0.7,-1 -1.4,-1s-1.2,0.4 -1.4,1h-0.8c-0.2,-0.6 -0.7,-1 -1.4,-1 -0.6,0 -1.2,0.4 -1.4,1h-0.5v-1.1c0.6,-0.2 1,-0.7 1,-1.4 0,-0.6 -0.4,-1.2 -1,-1.4L6.8,25c0.6,-0.2 1,-0.7 1,-1.4s-0.4,-1.2 -1,-1.4v-0.8c0.6,-0.2 1,-0.7 1,-1.4 0,-0.6 -0.4,-1.2 -1,-1.4v-0.8c0.6,-0.2 1,-0.7 1,-1.4 0,-0.6 -0.4,-1.2 -1,-1.4v-0.8c0.6,-0.2 1,-0.7 1,-1.4 0,-0.6 -0.4,-1.2 -1,-1.4v-0.8c0.6,-0.2 1,-0.7 1,-1.4s-0.4,-1.2 -1,-1.3L6.8,6.8h1.1c0.2,0.6 0.7,1 1.4,1 0.6,0 1.2,-0.4 1.4,-1h0.8c0.2,0.6 0.7,1 1.4,1s1.2,-0.4 1.4,-1h0.8c0.2,0.6 0.7,1 1.4,1 0.6,0 1.2,-0.4 1.4,-1h0.8c0.2,0.6 0.7,1 1.4,1s1.2,-0.4 1.4,-1h0.8c0.2,0.6 0.7,1 1.4,1s1.2,-0.4 1.4,-1h0.8c0.2,0.6 0.7,1 1.4,1s1.2,-0.4 1.4,-1h1.1v1.1c-0.6,0.2 -1,0.7 -1,1.4 -0.6,0.6 -0.2,1.1 0.4,1.3z"/><path fill="#FF000000" d="M22.7,17.2l0.2,1.4c0,0.3 0.2,0.6 0.4,0.9 0.3,0.3 0.7,0.4 1.1,0.4 0.4,0 0.8,-0.2 1.1,-0.4 0.3,-0.3 0.4,-0.7 0.4,-1.1 0,-0.4 -0.2,-0.8 -0.4,-1.1 -0.2,-0.2 -0.5,-0.4 -0.9,-0.4l-1.4,-0.2 -3,-3h1.1l1.1,0.8c0.3,0.2 0.6,0.3 0.9,0.3 0.8,0 1.5,-0.7 1.5,-1.5s-0.7,-1.5 -1.5,-1.5c-0.3,0 -0.6,0.1 -0.9,0.3l-1.1,0.8h-1.9l-1.1,-1.1v-1.3c0,-0.2 -0.2,-0.4 -0.4,-0.4s-0.4,0.2 -0.4,0.4v4.3l-1.1,1.1h-1.9l-1,-0.9c-0.3,-0.2 -0.6,-0.3 -0.9,-0.3 -0.8,0 -1.5,0.7 -1.5,1.5s0.7,1.5 1.5,1.5c0.3,0 0.6,-0.1 0.9,-0.3l1.1,-0.8h1.1l-3,3 -1.4,0.2c-0.3,0 -0.6,0.2 -0.9,0.4 -0.3,0.3 -0.4,0.7 -0.4,1.1 0,0.4 0.2,0.8 0.4,1.1 0.3,0.3 0.7,0.4 1.1,0.4 0.4,0 0.8,-0.2 1.1,-0.4 0.2,-0.2 0.4,-0.5 0.4,-0.9l0.2,-1.4 1.7,-1.7v1.1l-0.8,1.1c-0.2,0.3 -0.3,0.6 -0.3,0.9 0,0.8 0.7,1.5 1.5,1.5s1.5,-0.7 1.5,-1.5c0,-0.3 -0.1,-0.6 -0.3,-0.9l-0.8,-1.1v-1.9l1.9,-1.9v6.6l-0.8,1.1c-0.2,0.3 -0.3,0.6 -0.3,0.9 0,0.8 0.7,1.5 1.5,1.5s1.5,-0.7 1.5,-1.5c0,-0.3 -0.1,-0.6 -0.3,-0.9l-0.8,-1.1v-1.7l2.1,2.1c0.1,0.1 0.2,0.1 0.3,0.1 0.1,0 0.2,0 0.3,-0.1 0.1,-0.1 0.1,-0.4 0,-0.5l-2.7,-2.7v-6.8l1.9,1.9v1.9l-0.8,1.1c-0.2,0.3 -0.3,0.6 -0.3,0.9 0,0.8 0.7,1.5 1.5,1.5s1.5,-0.7 1.5,-1.5c0,-0.3 -0.1,-0.6 -0.3,-0.9l-0.9,-0.9v-1.1l1.7,1.6zM22.9,12.7c0.1,-0.1 0.3,-0.1 0.4,-0.1 0.4,0 0.7,0.3 0.7,0.7 0,0.4 -0.3,0.7 -0.7,0.7 -0.2,0 -0.3,-0.1 -0.4,-0.1l-0.8,-0.6 0.8,-0.6zM13.1,16.8c-0.1,0.1 -0.3,0.1 -0.4,0.1 -0.4,0 -0.7,-0.3 -0.7,-0.7 0,-0.4 0.3,-0.7 0.7,-0.7 0.2,0 0.3,0.1 0.4,0.1l0.8,0.6 -0.8,0.6zM16.1,21.6c0,0.4 -0.3,0.7 -0.7,0.7s-0.7,-0.3 -0.7,-0.7c0,-0.2 0.1,-0.3 0.1,-0.4l0.6,-0.8 0.6,0.8c0.1,0.1 0.1,0.2 0.1,0.4zM12.4,21.3c0,0.2 -0.1,0.3 -0.2,0.4 -0.2,0.2 -0.4,0.3 -0.6,0.3 -0.2,0 -0.4,-0.1 -0.5,-0.2 -0.1,-0.1 -0.2,-0.3 -0.2,-0.5s0.1,-0.4 0.2,-0.5c0.1,-0.1 0.3,-0.2 0.4,-0.2l1,-0.1 -0.1,0.8zM18.7,24.4c0,0.4 -0.3,0.7 -0.7,0.7 -0.4,0 -0.7,-0.3 -0.7,-0.7 0,-0.2 0.1,-0.3 0.1,-0.4l0.6,-0.8 0.6,0.8c0.1,0.1 0.1,0.2 0.1,0.4zM21.4,18.7c0,0.4 -0.3,0.7 -0.7,0.7 -0.4,0 -0.7,-0.3 -0.7,-0.7 0,-0.2 0.1,-0.3 0.1,-0.4l0.6,-0.8 0.6,0.8c0,0.1 0.1,0.2 0.1,0.4zM24.5,17.6c0.2,0 0.3,0.1 0.4,0.2 0.1,0.1 0.2,0.3 0.2,0.5s-0.1,0.4 -0.2,0.5c-0.1,0.1 -0.3,0.2 -0.5,0.2s-0.4,-0.1 -0.5,-0.2c-0.1,-0.1 -0.2,-0.3 -0.2,-0.4l-0.1,-1 0.9,0.2z"/><path fill="#FF000000" d="M27.1,8.6H8.9c-0.2,0 -0.4,0.2 -0.4,0.4v18.1c0,0.2 0.2,0.4 0.4,0.4H27c0.2,0 0.4,-0.2 0.4,-0.4v-3.8c0,-0.2 -0.2,-0.4 -0.4,-0.4s-0.4,0.2 -0.4,0.4v3.4H9.3V9.3h17.4v12.4c0,0.2 0.2,0.4 0.4,0.4s0.4,-0.2 0.4,-0.4V8.9c-0.1,-0.2 -0.2,-0.3 -0.4,-0.3z"/></svg>