<svg xmlns="http://www.w3.org/2000/svg" viewBox="0 0 36 36"><path d="M9.5,20.1c-0.3,-0.1 -0.5,-0.2 -0.6,-0.3 -0.1,-0.1 -0.1,-0.1 -0.1,-0.3 0,-0.2 0.1,-0.6 0.2,-0.9 0.2,-0.6 1,-1.7 1.7,-2.3 1.5,-1.5 3.9,-2.8 5.8,-3.2 0.9,-0.2 0.7,-0.2 4.9,-0.2h3.8v1.4h-3.3c-3.1,0 -3.2,0 -3.6,0.1 -0.7,0.1 -1.2,0.3 -1.8,0.5 -0.4,0.1 -1.1,0.5 -1.4,0.7 -0.9,0.5 -1.7,1.3 -2,1.9 -0.1,0.2 -0.2,0.5 -0.2,0.8 0,0.1 0.2,0.3 0.4,0.4 0.1,0 0.2,0.1 0.4,0.1 0.2,0.1 0.3,0.1 3.2,0.1h3l-0.1,0.1c-0.1,0.1 -0.5,0.5 -0.7,0.6 -0.4,0.3 -0.9,0.5 -1.4,0.5H9.5z"/><path d="M26.5,15.9c0.3,0.1 0.5,0.2 0.6,0.3 0.1,0.1 0.1,0.1 0.1,0.3 0,0.2 -0.1,0.6 -0.2,0.9 -0.2,0.6 -1,1.7 -1.7,2.3 -1.5,1.5 -3.9,2.8 -5.8,3.2 -0.9,0.2 -0.7,0.2 -4.9,0.2h-3.8v-1.4h3.3c3.1,0 3.2,0 3.6,-0.1 0.7,-0.1 1.2,-0.3 1.8,-0.5 0.4,-0.1 1.1,-0.5 1.4,-0.7 0.9,-0.5 1.7,-1.3 2,-1.9 0.1,-0.2 0.2,-0.5 0.2,-0.8 0,-0.1 -0.2,-0.3 -0.4,-0.4 -0.1,0 -0.2,-0.1 -0.4,-0.1 -0.2,-0.1 -0.3,-0.1 -3.2,-0.1h-3l0.1,-0.1c0.1,-0.1 0.5,-0.5 0.7,-0.6 0.4,-0.3 0.9,-0.5 1.4,-0.5h8.2z"/></svg>