<svg xmlns="http://www.w3.org/2000/svg" viewBox="0 0 36 36"><path fill="#fd0000" d="M8.8,22.2V9h5c0.1,0 0.1,0 0.1,0.1 0.1,0.2 0.1,0.3 0.2,0.5 0.3,0.9 0.7,1.8 1.1,2.7 0.5,1.3 1,2.5 1.5,3.8 0.4,1.1 0.9,2.2 1.3,3.3 0.2,-0.6 0.5,-1.2 0.7,-1.8 0.5,-1.1 0.9,-2.3 1.4,-3.4 0.4,-1 0.8,-2 1.2,-3.1 0.3,-0.7 0.5,-1.4 0.8,-2 0,0 0,-0.1 0.1,-0.1h5v13.1c0,0.1 0,0.1 -0.1,0.1h-3c-0.1,0 -0.2,0 -0.2,-0.2v-7.9c-0.1,0.3 -0.3,0.6 -0.4,0.9 -0.3,0.6 -0.6,1.1 -0.8,1.7 -0.3,0.5 -0.5,1.1 -0.8,1.6 -0.2,0.4 -0.4,0.9 -0.7,1.3l-0.9,1.8c-0.1,0.2 -0.2,0.5 -0.3,0.7 0,0.1 -0.1,0.1 -0.2,0.1h-3.5c-0.1,0 -0.1,0 -0.2,-0.1 -0.4,-0.7 -0.7,-1.5 -1.1,-2.2 -0.4,-0.9 -0.9,-1.8 -1.3,-2.7l-0.9,-1.8 -0.6,-1.2v7.9c0,0.2 0,0.2 -0.2,0.2H9c-0.1,-0.1 -0.2,-0.1 -0.2,-0.1z"/><path fill="#13007d" d="M8.8,22.8L12,22.8c0.1,0 0.1,0 0.1,0.1v1.6c0.2,-0.1 0.5,-0.2 0.7,-0.3 1.1,-0.5 2.2,-0.9 3.3,-1.4h3.5c0.2,0 0.3,0 0.5,0.1 1.3,0.5 2.5,1.1 3.8,1.6h0.1v-1.6s0,-0.1 0.1,-0.1h3.1c0.1,0 0.1,0 0.1,0.1v2.2c0,0.1 0,0.1 -0.1,0.1h-5c-0.6,-0.3 -1.2,-0.6 -1.7,-0.9 -0.8,-0.4 -1.5,-0.8 -2.3,-1.1h-0.1c-1.1,0.6 -2.2,1.1 -3.3,1.7 -0.2,0.1 -0.4,0.2 -0.7,0.3L8.9,25.2c-0.1,-0.9 -0.1,-1.6 -0.1,-2.4zM8.8,25.5h4.7c0.1,0 0.1,0 0.1,0.1L13.6,27s0,0.1 -0.1,0.1L8.8,27.1v-1.6z"/><path fill="#13007d" d="M18,27h-2.4c-0.1,0 -0.1,0 -0.1,-0.1v-1.4c0,-0.1 0,-0.1 0.1,-0.1h4.7c0.1,0 0.1,0 0.1,0.1v1.4c0,0.1 0,0.1 -0.1,0.1L18,27zM24.8,27h-2.3c-0.1,0 -0.1,0 -0.1,-0.1v-1.4c0,-0.1 0,-0.1 0.1,-0.1h4.7c0.1,0 0.1,0 0.1,0.1v1.4c0,0.1 0,0.1 -0.1,0.1h-2.4z"/></svg>