<svg xmlns="http://www.w3.org/2000/svg" viewBox="0 0 36 36"><path fill="#01287a" d="M18,15.6c0.2,-0.3 0.4,-0.4 0.7,-0.6 1.5,-1.3 2.9,-2.6 4.4,-3.9 0.3,-0.2 0.5,-0.4 0.9,-0.4h1.8c0.8,0 1.4,0.6 1.4,1.4v11.7c0,0.9 -0.7,1.5 -1.5,1.5h-2c-0.1,0 -0.2,0 -0.2,-0.1v-9.6s0,-0.1 -0.1,-0.1c-0.9,0.8 -1.8,1.6 -2.7,2.5 -0.1,-0.1 -0.3,-0.2 -0.4,-0.3 -0.8,-0.7 -1.5,-1.4 -2.3,-2.1zM12.5,25.3c0,0.1 -0.1,0 -0.2,0h-2.1c-0.8,0 -1.4,-0.6 -1.4,-1.4L8.8,12.2c0,-0.8 0.6,-1.4 1.4,-1.4L12,10.8c0.3,0 0.6,0.1 0.8,0.3 1.6,1.5 3.3,3 4.9,4.4 0.1,0 0.1,0.1 0.1,0.2 -0.9,0.8 -1.7,1.6 -2.6,2.4 -0.9,-0.8 -1.8,-1.7 -2.8,-2.5v5c-0.1,0.1 0,0.2 0,0.2v2.9c0.1,0.4 0.1,1 0.1,1.6z"/><path fill="#d6032b" d="M12.5,25.3v-4.8c0.2,-0.2 0.5,-0.4 0.7,-0.6 0.7,-0.6 1.4,-1.3 2.1,-1.9 0.9,-0.8 1.8,-1.6 2.6,-2.4h0.1c0.7,0.7 1.5,1.4 2.2,2 0.1,0.1 0.3,0.2 0.4,0.3 0.5,0.5 1,0.9 1.5,1.4 0.4,0.4 0.8,0.7 1.3,1.1v4.7c-0.5,-0.3 -0.8,-0.7 -1.2,-1 -1.4,-1.2 -2.7,-2.4 -4.1,-3.7 -0.1,-0.1 -0.2,-0.1 -0.4,0 -1.1,1 -2.3,2.1 -3.5,3.1 -0.4,0.7 -1,1.2 -1.7,1.8 0.1,-0.1 0.1,-0.1 0,0z"/><path fill="#FFF" d="M23.4,20.5c-0.4,-0.4 -0.8,-0.7 -1.3,-1.1 -0.5,-0.5 -1,-0.9 -1.5,-1.4 0.9,-0.8 1.8,-1.6 2.7,-2.5 0.1,0 0.1,0.1 0.1,0.1 0.1,1.6 0.1,3.3 0,4.9zM15.3,18c-0.7,0.6 -1.4,1.3 -2.1,1.9 -0.2,0.2 -0.4,0.4 -0.7,0.6v-5c1,0.8 1.9,1.7 2.8,2.5z"/></svg>