<svg xmlns="http://www.w3.org/2000/svg" viewBox="0 0 36 36"><path fill="#fe0000" d="M27.1,20.3s-0.1,0 0,0h-2.8c-0.3,0 -0.5,-0.1 -0.5,-0.5v-1.5c0,-0.6 -0.4,-1.1 -0.9,-1.3 -0.9,-0.2 -1.8,0.1 -2,1.1v1.7c0,0.3 -0.1,0.4 -0.4,0.4h-4.9c-0.3,0 -0.4,-0.1 -0.4,-0.5v-1.4c0,-0.2 0,-0.4 -0.1,-0.5 -0.2,-0.6 -0.6,-0.9 -1.2,-0.9 -0.5,0 -1,0.1 -1.4,0.6 -0.2,0.3 -0.3,0.5 -0.3,0.9v1.5c0,0.3 -0.1,0.3 -0.3,0.3H8.8v-1.4h1.4c0.2,0 0.3,-0.1 0.3,-0.3V16c0,-0.4 0.2,-0.6 0.5,-0.6h5.3c0.3,0 0.5,0.2 0.5,0.5v2.5c0,0.2 0.1,0.3 0.3,0.3h1.6c0.2,0 0.3,-0.1 0.4,-0.4V16c0,-0.4 0.2,-0.6 0.6,-0.6H25c0.3,0 0.5,0.2 0.5,0.5v2.4c0,0.4 0.1,0.4 0.4,0.4h1c0.1,0 0.2,0 0.2,-0.1v1.7z"/></svg>