<svg xmlns="http://www.w3.org/2000/svg" viewBox="0 0 36 36"><path fill="#c78d17" d="M16.5,27.2V16.9c0,-0.3 -0.1,-0.4 -0.4,-0.4H13c-0.2,0 -0.3,0.1 -0.3,0.3v2.8c0,0.3 0.1,0.4 0.5,0.4 0.3,0 0.4,-0.1 0.4,-0.4v-2.1c0,-0.2 -0.1,-0.3 -0.3,-0.5h0.7c0.4,0.1 0.7,0.3 0.7,0.8v2.4c0,0.5 -0.5,0.9 -1,0.9h-1.2c-0.5,0 -0.9,-0.4 -0.9,-0.9v-3.9c0,-0.6 0.4,-0.9 0.9,-0.9h5.1c0.2,0 0.2,0.1 0.2,0.2v3.5c-0.1,2.4 0,4.7 -0.1,7.1v0.2c-0.1,0.2 -0.3,0.3 -0.6,0.5 -0.2,0 -0.4,0.1 -0.6,0.3 0.1,0 0.1,0 0,0z"/><path fill="#c78d17" d="M10.4,15.3c0,-0.1 0.1,-0.2 0.1,-0.3 0.3,-0.6 0.8,-0.9 1.5,-0.9h4.1c0.5,0 0.4,0.1 0.4,-0.4v-2.5c0,-0.3 0.1,-0.6 0.3,-0.9 0.5,-0.6 1.2,-0.7 1.2,-0.7 0.1,0.1 0,0.2 -0.1,0.3s-0.1,0.3 -0.1,0.4v4.5c0,0.3 -0.1,0.4 -0.4,0.4h-4.8c-0.4,0 -0.8,-0.1 -1.1,0.2 -0.1,0.2 -0.2,0.3 -0.2,0.5v4.7c0,0.3 0.2,0.6 0.5,0.6 0.8,0.2 1.7,0.1 2.6,0 0.3,0 0.5,-0.3 0.5,-0.6v-3.2c0,-0.2 -0.2,-0.3 -0.3,-0.5 0.3,-0.1 0.7,0 1,0.1 0.4,0.2 0.4,0.5 0.4,0.9v2.7c0,0.8 -0.8,1.6 -1.7,1.6h-2.6c-0.6,0 -1,-0.3 -1.3,-0.8 -0.1,-0.1 -0.1,-0.2 -0.2,-0.3 0.2,-1.8 0.2,-3.8 0.2,-5.8zM19.9,8.8c-0.6,0.7 -0.4,1.4 -0.5,2.2v8.8c0,0.3 0,0.4 0.3,0.4h3c0.4,0 0.5,-0.1 0.5,-0.5v-2.6c0,-0.4 -0.5,-0.7 -0.9,-0.5 -0.1,0.1 -0.1,0.2 -0.1,0.3L22.2,19c0,0.2 0.1,0.3 0.2,0.5 -0.4,-0.2 -0.8,0.1 -1.1,-0.3 -0.1,-0.1 -0.1,-0.2 -0.1,-0.4v-2.5c0,-0.3 0.3,-0.7 0.6,-0.7 0.6,-0.1 1.1,-0.1 1.7,0 0.5,0 0.8,0.4 0.8,1v3.5c0,0.2 0,0.5 -0.2,0.7 -0.2,0.3 -0.4,0.5 -0.7,0.5h-4.9c-0.3,0 -0.3,-0.1 -0.3,-0.3L18.2,10.6c0,-0.2 0.1,-0.6 0.3,-0.9 0.1,-0.1 0.5,-0.7 1.2,-0.9h0.2z"/><path fill="#c78d17" d="M18.2,26.3v-4.6c0,-0.3 0.1,-0.3 0.3,-0.3h5.1c0.6,0 0.9,-0.3 0.9,-0.9v-4.4c0,-0.5 -0.4,-0.8 -0.8,-0.8h-1.8c-0.7,0 -0.9,0.3 -0.9,0.9v2.5c0,0.2 0,0.5 0.2,0.6l0.1,0.1 -0.1,0.1c-0.2,0.2 -0.7,0.1 -1,-0.3 -0.2,-0.3 -0.2,-0.9 -0.2,-0.9v-2.6c0,-0.7 0.7,-1.6 1.6,-1.6h2.5c1,0 1.7,0.8 1.7,1.6v5c0,0.9 -0.7,1.7 -1.7,1.7H20c-0.3,0 -0.3,0.1 -0.3,0.3v2.8c-0.1,0.3 -0.5,0.3 -0.9,0.5l-0.6,0.3z"/></svg>